<?xml version="1.0" encoding="utf-8"?>
<!-- Generator: Adobe Illustrator 21.0.2, SVG Export Plug-In . SVG Version: 6.00 Build 0)  -->
<svg version="1.1" id="Layer_4" xmlns="http://www.w3.org/2000/svg" xmlns:xlink="http://www.w3.org/1999/xlink" x="0px" y="0px"
	 viewBox="0 0 57.6 36.1" style="enable-background:new 0 0 57.6 36.1;" xml:space="preserve">
<path d="M56.9,9.3c0.9-0.9,0.9-2.4,0-3.4C56,5,54.5,5,53.5,6l-5.8,5.8c-1.1,1.1-2.6,1.8-4.2,1.8c-0.2,0-0.4,0.3-0.6,0.3
	c-0.3,0.6-1.2,0.9-1.2,1.6c-1.8,0.9-4.3,0.2-6.2-0.6l2,2l0,0l-2.1,10.9h2.1l0,6.1c0,1.3,1.1,2.4,2.4,2.4c1.3,0,2.4-1.1,2.4-2.4v-6.1
	h2.5v6.1c0,1.3,1.1,2.4,2.4,2.4c1.3,0,2.4-1.1,2.4-2.4l0-6.1h2.3l-2.4-10.9l0.1,0L56.9,9.3z"/>
<path d="M14.1,13.6c-1.7,0-3.2-0.7-4.2-1.8L4.1,6C3.1,5,1.6,5,0.7,6c-0.9,0.9-0.9,2.4,0,3.4l7.4,7.4v7.1v2.4v7.5
	c0,1.3,1.1,2.4,2.4,2.4s2.4-1.1,2.4-2.4v-6.3c0-0.7,0.6-1.2,1.2-1.2c0.7,0,1.2,0.6,1.2,1.2v6.3c0,1.3,1.1,2.4,2.4,2.4
	c1.3,0,2.4-1.1,2.4-2.4v-7.5v-2.4v-7.1l0.2-0.2C17.7,17.1,15.9,14.7,14.1,13.6z"/>
<circle cx="14.1" cy="5.8" r="5.8"/>
<circle cx="43.6" cy="5.9" r="5.8"/>
<path d="M28.2,17.7l-5-2.9c0,0-3.1-2-5.6-1.4c-2.3,0.6-5.5-0.2-5.5-0.2l1.5,1.6l12.1,6.9c0.3,0.2,0.6,0.4,1,0.4
	c1.3,0.2,2.5-0.7,2.7-2C29.6,19.2,29.1,18.2,28.2,17.7z"/>
<path d="M43.8,17.4c0-0.6,1.8-3.8,2.2-4.4c-0.7,0.2-2.3,1-5.3,0.5c-2.1-0.3-4.4,0.7-5.3,1.2C37.3,15.6,42,18.3,43.8,17.4z"/>
<path d="M42.7,13.7c-0.4,0.6-1,1.1-1,1.7c-1.8,0.9-4.4,0.2-6.4-0.7c-0.2,0.1-0.3,0.2-0.3,0.2l-5,2.9c-0.8,0.5-1.4,1.4-1.2,2.4
	c0.2,1.3,1.4,2.2,2.7,2c0.4-0.1,0.7-0.2,1-0.4l12.1-6.9l1.5-1.6C46.2,13.3,44.5,13.7,42.7,13.7z"/>
</svg>
