<?xml version="1.0" encoding="utf-8"?>
<!-- Generator: Adobe Illustrator 21.0.2, SVG Export Plug-In . SVG Version: 6.00 Build 0)  -->
<svg version="1.1" id="Layer_1" xmlns="http://www.w3.org/2000/svg" xmlns:xlink="http://www.w3.org/1999/xlink" x="0px" y="0px"
	 viewBox="0 0 19 43" style="enable-background:new 0 0 19 43;" xml:space="preserve">
<style type="text/css">
	.st0{clip-path:url(#SVGID_2_);fill:#0E0F0F;}
</style>
<g>
	<g>
		<defs>
			<rect id="SVGID_1_" width="19" height="43"/>
		</defs>
		<clipPath id="SVGID_2_">
			<use xlink:href="#SVGID_1_"  style="overflow:visible;"/>
		</clipPath>
		<path class="st0" d="M12.6,3.6c0,2-1.6,3.6-3.6,3.6c-2,0-3.6-1.6-3.6-3.6S7,0,9,0C11,0,12.6,1.6,12.6,3.6L12.6,3.6z M12.6,3.6"/>
		<path class="st0" d="M10.2,8.9C9.3,8.7,8.4,8.8,7.5,9c-6,0.7-7.9,7.6-7.4,12.9c0.2,2.3,3.8,2.3,3.6,0C3.5,20,3.6,17.1,4.6,15v7.5
			c0,0.1,0,0.2,0,0.3c0,0,0,0.1,0,0.1c0,6,0,12-0.3,17.9c-0.1,2.7,4,2.6,4.1,0c0.2-4.7,0.2-9.4,0.3-14.1c0.2,0,0.4,0,0.6,0
			c0,4.7,0.1,9.4,0.3,14.1c0.1,2.6,4.2,2.7,4.1,0c-0.2-6-0.3-12-0.3-17.9c0-0.2,0-0.4-0.1-0.5c0-2.6-0.1-5.2-0.1-7.8
			c1.2,2.1,1.3,5.2,1.1,7.3c-0.2,2.3,3.4,2.3,3.6,0C18.6,16.5,16.5,9.4,10.2,8.9L10.2,8.9z M10.2,8.9"/>
	</g>
</g>
</svg>
