<?xml version="1.0" encoding="utf-8"?>
<!-- Generator: Adobe Illustrator 21.0.2, SVG Export Plug-In . SVG Version: 6.00 Build 0)  -->
<svg version="1.1" xmlns="http://www.w3.org/2000/svg" xmlns:xlink="http://www.w3.org/1999/xlink" x="0px" y="0px"
	 viewBox="0 0 4.1 3.6" style="enable-background:new 0 0 4.1 3.6;" xml:space="preserve">
<style type="text/css">
	.st0{enable-background:new    ;}
</style>
<g id="Vector_Smart_Object_copy_3_xA0_Изображение_1_">
</g>
<g id="Ellipse_10_copy_16_1_" class="st0">
	<g id="Ellipse_10_copy_16">
		<g>
			<path d="M1.7,0.5c0.8,0,1.4,0.6,1.4,1.4S2.4,3.3,1.7,3.3S0.3,2.7,0.3,1.9S0.9,0.5,1.7,0.5 M1.7,0.2C0.8,0.2,0,1,0,1.9
				c0,0.9,0.8,1.7,1.7,1.7c0.9,0,1.7-0.8,1.7-1.7C3.4,1,2.6,0.2,1.7,0.2L1.7,0.2z"/>
		</g>
	</g>
	<g>
		<path d="M4.1,0.5L3.5,0L1.7,1.8L1.1,1.2L0.5,1.7l1.2,1.2L4.1,0.5z M4.1,0.5"/>
	</g>
</g>
</svg>
