<?xml version="1.0" encoding="utf-8"?>
<!-- Generator: Adobe Illustrator 21.0.2, SVG Export Plug-In . SVG Version: 6.00 Build 0)  -->
<svg version="1.1" xmlns="http://www.w3.org/2000/svg" xmlns:xlink="http://www.w3.org/1999/xlink" x="0px" y="0px"
	 viewBox="0 0 190 190" style="enable-background:new 0 0 190 190;" xml:space="preserve">
	<style type="text/css">
		.st0{fill:#ffffff;}
		.st1{fill:url(#SVGID_1_);}
	</style>
	<g id="submit">
		<g id="Ellipse_1">
			<path class="st0" d="M1.7,95C1.7,43.5,43.5,1.7,95,1.7V0C42.5,0,0,42.5,0,95c0,52.5,42.5,95,95,95v-1.7C43.5,188.3,1.7,146.5,1.7,95z"/>
			<linearGradient id="SVGID_1_" gradientUnits="userSpaceOnUse" x1="142.499" y1="0" x2="142.499" y2="190">
				<stop offset="5.000000e-02" style="stop-color:#ffffff; stop-opacity:0"/>
				<stop offset="0.95" style="stop-color:#ffffff"/>
			</linearGradient>
			<path class="st1" d="M95,0C95,0,95,0,95,0l0,1.7c0,0,0,0,0,0c51.5,0,93.3,41.9,93.3,93.3c0,51.5-41.9,93.3-93.3,93.3c0,0,0,0,0,0
				v1.7c0,0,0,0,0,0c52.5,0,95-42.5,95-95C190,42.5,147.5,0,95,0z"/>
		</g>
	</g>
</svg>
