<?xml version="1.0" standalone="no"?>
<!DOCTYPE svg PUBLIC "-//W3C//DTD SVG 1.1//EN" "http://www.w3.org/Graphics/SVG/1.1/DTD/svg11.dtd" >
<svg xmlns="http://www.w3.org/2000/svg">
<metadata></metadata>
<defs>
<font id="ubuntubold_italic" horiz-adv-x="1163" >
<font-face units-per-em="2048" ascent="1638" descent="-410" />
<missing-glyph horiz-adv-x="491" />
<glyph unicode="&#xd;" horiz-adv-x="491" />
<glyph horiz-adv-x="0" />
<glyph horiz-adv-x="0" />
<glyph unicode=" "  horiz-adv-x="491" />
<glyph unicode="&#x09;" horiz-adv-x="491" />
<glyph unicode="&#xa0;" horiz-adv-x="491" />
<glyph unicode="!" horiz-adv-x="604" d="M164 139q0 47 17.5 86t46 66.5t65.5 43t76 15.5q72 0 120 -41t48 -125q0 -47 -17.5 -86t-46.5 -66.5t-65.5 -43t-75.5 -15.5q-72 0 -120 41t-48 125zM291 453q16 147 36.5 290.5t59.5 309.5l88 366h326l-88 -366q-41 -166 -87 -309.5t-102 -290.5h-233z" />
<glyph unicode="&#x22;" horiz-adv-x="1007" d="M369 954q8 119 22.5 236t36.5 217l37 149h301l-37 -151q-23 -98 -67 -215t-91 -236h-202zM815 954q8 119 22.5 236t36.5 217l37 149h301l-37 -151q-23 -98 -67 -215t-91 -236h-202z" />
<glyph unicode="#" horiz-adv-x="1351" d="M141 0l146 348h-142l58 236h182l104 252h-225l58 235h266l147 348h262l-147 -348h227l148 348h262l-148 -348h144l-58 -235h-184l-104 -252h227l-57 -236h-269l-145 -348h-262l145 348h-227l-146 -348h-262zM647 584h227l105 252h-227z" />
<glyph unicode="$" d="M139 139l125 226q23 -16 55.5 -34t73.5 -32t88.5 -24.5t96.5 -10.5q43 0 87 5t78.5 20.5t56 45.5t21.5 79q0 33 -14 57.5t-39 45t-56.5 37.5t-64.5 34l-53 26q-131 66 -189.5 164.5t-58.5 204.5q0 68 24.5 132.5t75 117.5t129 89t187.5 48l55 219h258l-57 -225 q78 -16 142.5 -44t105.5 -54l-123 -217q-53 41 -129 62.5t-148 21.5q-88 0 -151.5 -33t-63.5 -103q0 -29 8.5 -51t28 -42.5t52 -42t83.5 -46.5q59 -31 113.5 -64.5t96.5 -78.5t67.5 -102.5t25.5 -135.5q0 -96 -30.5 -167.5t-87 -123t-135 -81t-175.5 -39.5l-59 -246h-258 l61 250q-111 16 -188.5 51t-114.5 61z" />
<glyph unicode="%" horiz-adv-x="1781" d="M246 958q0 117 34.5 208t93 154.5t134.5 97.5t156 34q68 0 124 -18.5t97 -56.5t63.5 -94t22.5 -132q0 -117 -35 -208t-93.5 -154.5t-134 -97.5t-155.5 -34q-68 0 -124 18.5t-97 56.5t-63.5 94.5t-22.5 131.5zM315 0l1143 1419h295l-1143 -1419h-295zM471 967 q0 -55 30.5 -84t73.5 -29q33 0 64 19.5t54.5 57.5t37.5 91t14 121q0 55 -27.5 84.5t-70.5 29.5q-33 0 -64.5 -20t-56 -57t-40 -91.5t-15.5 -121.5zM1098 268q0 117 34.5 208t93 154.5t134.5 97.5t156 34q68 0 124 -18.5t97 -56.5t63.5 -94t22.5 -132q0 -117 -35 -208 t-93.5 -154.5t-134 -97.5t-155.5 -34q-68 0 -124 18.5t-97 56.5t-63.5 94.5t-22.5 131.5zM1323 276q0 -55 30.5 -83.5t73.5 -28.5q33 0 64 19.5t54.5 57.5t37.5 91t14 121q0 55 -27.5 84.5t-70.5 29.5q-33 0 -64.5 -20.5t-56 -57t-40 -91t-15.5 -122.5z" />
<glyph unicode="&#x26;" horiz-adv-x="1357" d="M164 322q0 154 80 265t258 191l35 17q-41 68 -60.5 134t-19.5 130q0 82 31.5 154.5t92 125t145.5 83t192 30.5q88 0 155.5 -23.5t111.5 -62.5t66.5 -91t22.5 -110q0 -51 -18.5 -106t-54.5 -108.5t-91 -100.5t-129 -80l-76 -35l172 -229q51 84 94 207l269 -35 q-88 -223 -207 -377q53 -76 95 -151.5t77 -149.5h-309q-12 27 -27.5 55.5t-32.5 59.5q-195 -133 -444 -133q-109 0 -189.5 28.5t-134 76.5t-79 108.5t-25.5 126.5zM467 381q0 -66 42 -114t122 -48q53 0 122.5 17.5t147.5 70.5l-239 316l-31 -15q-86 -39 -125 -102.5 t-39 -124.5zM727 1051q0 -57 53 -146l25 10q98 45 152.5 97.5t54.5 124.5q0 39 -29 68.5t-90 29.5t-113.5 -46t-52.5 -138z" />
<glyph unicode="'" horiz-adv-x="561" d="M369 954q8 119 22.5 236t36.5 217l37 149h301l-37 -151q-23 -98 -67 -215t-91 -236h-202z" />
<glyph unicode="(" horiz-adv-x="729" d="M201 276q0 184 46 366.5t129 353.5t198.5 326t254.5 282l197 -138q-117 -127 -213 -267t-165.5 -291.5t-108.5 -312.5t-39 -327q0 -129 24.5 -255t77.5 -255l-225 -137q-92 154 -134 317.5t-42 337.5z" />
<glyph unicode=")" horiz-adv-x="729" d="M-49 -240q117 125 214 265.5t165.5 293t107.5 313.5t39 326q0 129 -24.5 255t-77.5 255l225 138q92 -154 134 -318t42 -338q0 -184 -46 -366.5t-129 -353.5t-198.5 -325.5t-255.5 -281.5z" />
<glyph unicode="*" horiz-adv-x="1028" d="M266 1008l82 254l49 -17q25 -8 57.5 -25.5t64.5 -39t61.5 -43t52.5 -39.5q-10 27 -21.5 62.5t-21.5 72.5t-17.5 72.5t-7.5 62.5v51h266v-51q0 -27 -7 -62.5t-17 -72.5t-21.5 -72.5t-21.5 -62.5q20 18 51 39.5t62.5 43t64.5 39t57 25.5l50 17l81 -254l-49 -17 q-27 -8 -61.5 -12t-73.5 -5t-75.5 -1h-65.5q25 -16 54.5 -38t59 -45.5t56 -48t43.5 -46.5l33 -43l-217 -154l-31 41q-16 20 -31.5 53t-30 69t-24.5 70.5t-19 63.5q-8 -29 -18 -63.5t-24.5 -70.5t-30 -69t-31.5 -53l-31 -41l-217 154l33 43q16 23 43 47t56.5 47.5t59 45 t54.5 38.5h-66t-75.5 1t-73.5 5t-62 12z" />
<glyph unicode="+" d="M195 483l63 256h342l90 379h279l-90 -379h342l-64 -256h-342l-90 -379h-279l91 379h-342z" />
<glyph unicode="," horiz-adv-x="514" d="M-20 -274q78 135 131 280.5t63 304.5h320q-6 -178 -89 -337.5t-202 -307.5z" />
<glyph unicode="-" horiz-adv-x="702" d="M150 473l67 277h594l-68 -277h-593z" />
<glyph unicode="." horiz-adv-x="516" d="M123 139q0 47 17.5 86t46 66.5t65.5 43t76 15.5q72 0 120 -40t48 -126q0 -47 -17.5 -86t-46.5 -66.5t-65.5 -43t-75.5 -15.5q-72 0 -120 40t-48 126z" />
<glyph unicode="/" horiz-adv-x="892" d="M-184 -379l1147 1983h309l-1145 -1983h-311z" />
<glyph unicode="0" d="M197 391q0 233 52 428t145 336t224.5 219t290.5 78q100 0 170 -36t114 -95t63.5 -134t19.5 -155q0 -233 -52.5 -427.5t-145.5 -336t-224 -219.5t-291 -78q-100 0 -169.5 36t-113.5 95.5t-63.5 134t-19.5 154.5zM477 434q0 -106 32.5 -153.5t100.5 -47.5q66 0 121 39 t97 102.5t74 144.5t52.5 165t30.5 164t10 141q0 104 -31.5 153.5t-97.5 49.5q-68 0 -123 -39t-98 -102.5t-74.5 -145.5t-52 -166t-31 -163.5t-10.5 -141.5z" />
<glyph unicode="1" d="M410 1124q66 25 137 56.5t142 69.5t138.5 80t122.5 89h213l-342 -1419h-305l246 1022q-72 -41 -156 -75t-160 -58z" />
<glyph unicode="2" d="M123 0q18 129 63 223t112 171t150.5 143.5t182.5 142.5q92 72 156.5 124t104.5 96t58.5 83t18.5 82q0 53 -38 89t-97 36q-84 0 -164 -36t-174 -107l-105 223q123 100 246 141t254 41q82 0 152.5 -26.5t123 -72.5t81 -107.5t28.5 -131.5q0 -78 -16.5 -139.5t-55.5 -118.5 t-103.5 -116.5t-158.5 -133.5q-55 -43 -111.5 -82t-110.5 -80t-105.5 -87t-96.5 -103h610l-61 -254h-944z" />
<glyph unicode="3" d="M113 68l110 241q59 -41 147.5 -66.5t180.5 -25.5q57 0 111.5 12.5t95.5 41t65.5 73.5t24.5 111q0 84 -68.5 127t-183.5 43h-131l59 241h148q43 0 90 8.5t86 30t64.5 57t25.5 93.5q0 72 -49 105.5t-129 33.5q-63 0 -140 -22.5t-159 -65.5l-78 229q100 57 206.5 87 t221.5 30q109 0 190.5 -29.5t136 -79t81 -112t26.5 -127.5q0 -53 -17.5 -105.5t-51 -98.5t-85.5 -83.5t-120 -62.5q86 -41 133 -126t47 -186q0 -84 -35 -168t-110.5 -151.5t-192.5 -109.5t-281 -42q-233 0 -419 97z" />
<glyph unicode="4" d="M137 317l51 226q66 90 160 203.5t205 232.5t229.5 233.5t233.5 206.5h291l-207 -856h149l-59 -246h-152l-77 -317h-291l75 317h-608zM481 563h332l119 496q-53 -51 -111.5 -110.5t-118 -124t-116 -131t-105.5 -130.5z" />
<glyph unicode="5" d="M129 68l113 247q72 -43 153.5 -65.5t157.5 -22.5q147 0 225 55.5t78 172.5q0 49 -26.5 89t-86 67.5t-159 43t-242.5 15.5q68 190 129 383.5t109 365.5h757l-61 -254h-506q-20 -74 -44 -148.5t-42 -125.5q123 -10 212 -46t147.5 -91.5t87 -126t28.5 -150.5 q0 -115 -38 -209t-113.5 -159.5t-188 -101.5t-260.5 -36q-43 0 -98 6.5t-113.5 17.5t-115 29.5t-103.5 43.5z" />
<glyph unicode="6" d="M215 471q0 180 61.5 353t188.5 308.5t321.5 218.5t460.5 83h38t44 -2l-37 -242q-127 -4 -236.5 -18.5t-200.5 -53.5t-159.5 -104.5t-113.5 -169.5q53 29 123.5 42t132.5 13q76 0 142.5 -23.5t116.5 -71.5t78.5 -120t28.5 -166q0 -133 -43 -234.5t-116.5 -171t-172 -105.5 t-206.5 -36q-96 0 -178 33t-142.5 95.5t-95.5 155.5t-35 216zM506 465q0 -98 45 -169t139 -71q98 0 160.5 72t62.5 201q0 98 -53 135t-127 37q-51 0 -103 -13.5t-98 -31.5q-27 -78 -26 -160z" />
<glyph unicode="7" d="M276 0q39 152 113 314.5t166 317t194.5 292t198.5 237.5h-616l63 258h994l-54 -221q-78 -66 -185.5 -190.5t-216 -285.5t-202.5 -346.5t-145 -375.5h-310z" />
<glyph unicode="8" d="M190 322q0 61 17.5 117.5t55.5 109.5t97.5 103t143.5 102q-49 47 -83 107.5t-34 146.5q0 80 29.5 159.5t92 143t157 102.5t223.5 39q86 0 159.5 -24.5t127 -68.5t84 -107.5t30.5 -139.5q0 -45 -10 -95t-41 -100.5t-87 -101.5t-148 -96q35 -25 65.5 -53.5t53 -65.5 t35.5 -82t13 -102q0 -92 -35.5 -173t-104 -141.5t-171 -95.5t-233.5 -35q-76 0 -154 17.5t-140.5 59.5t-102.5 109t-40 165zM483 358q0 -72 50.5 -107.5t121.5 -35.5q43 0 83 13.5t71 38t49.5 60.5t18.5 81q0 41 -14.5 72.5t-40 58t-59.5 48t-73 42.5q-63 -31 -103 -65 t-63.5 -68.5t-32 -69.5t-8.5 -68zM668 1026q0 -66 41 -111t98 -79q119 55 159 115.5t40 117.5q0 66 -41 102.5t-113 36.5q-84 0 -134 -53t-50 -129z" />
<glyph unicode="9" d="M158 -6l37 242q127 2 236.5 17t200.5 54t159.5 104.5t113.5 170.5q-53 -29 -123.5 -42.5t-132.5 -13.5q-76 0 -142.5 23.5t-116.5 72t-78.5 119t-28.5 166.5q0 131 43 233.5t116.5 172t172 105.5t206.5 36q94 0 177 -32.5t143.5 -95t95.5 -156t35 -216.5 q0 -180 -61.5 -353t-188.5 -308t-321.5 -218t-460.5 -83h-38t-44 2zM573 928q0 -98 53.5 -135t127.5 -37q51 0 103 13t97 32q27 78 27 160q0 98 -45 168.5t-139 70.5q-98 0 -161 -71.5t-63 -200.5z" />
<glyph unicode=":" horiz-adv-x="516" d="M123 139q0 47 17.5 86t46 66.5t65.5 43t76 15.5q72 0 120 -40t48 -126q0 -47 -17.5 -86t-46.5 -66.5t-65.5 -43t-75.5 -15.5q-72 0 -120 40t-48 126zM277 866q0 47 17.5 86t46 66.5t65.5 43t76 15.5q72 0 120 -40t48 -126q0 -47 -17.5 -86t-46.5 -66.5t-65.5 -43 t-75.5 -15.5q-72 0 -120 40t-48 126z" />
<glyph unicode=";" horiz-adv-x="516" d="M-12 -274q78 135 131 280.5t63 304.5h320q-6 -178 -89 -337.5t-202 -307.5zM277 866q0 47 17.5 86t46 66.5t65.5 43t76 15.5q72 0 120 -40t48 -126q0 -47 -17.5 -86t-46.5 -66.5t-65.5 -43t-75.5 -15.5q-72 0 -120 40t-48 126z" />
<glyph unicode="&#x3c;" d="M193 500l55 239l971 371l20 -254l-709 -246l582 -268l-129 -227z" />
<glyph unicode="=" d="M152 258l61 256h963l-62 -256h-962zM260 707l62 256h962l-61 -256h-963z" />
<glyph unicode="&#x3e;" d="M139 371l709 245l-582 269l129 225l791 -385l-56 -240l-970 -370z" />
<glyph unicode="?" horiz-adv-x="880" d="M252 139q0 47 17.5 86t46 66.5t65.5 43t76 15.5q72 0 120 -40t48 -126q0 -47 -17.5 -86t-46.5 -66.5t-65.5 -43t-75.5 -15.5q-72 0 -120 40t-48 126zM350 453q0 63 19.5 116.5t53.5 98.5t79 86t96 80q61 47 104 81.5t71 64.5t41 56.5t13 55.5q0 53 -37.5 77.5t-95.5 24.5 q-37 0 -78 -7t-79.5 -19.5t-73.5 -27t-62 -28.5l-39 240q80 45 183.5 72.5t208.5 27.5q74 0 141.5 -18.5t118.5 -56.5t81.5 -94t30.5 -130q0 -88 -27.5 -153.5t-70.5 -117t-97 -93t-108 -82.5q-78 -59 -137 -119t-65 -135h-271z" />
<glyph unicode="@" horiz-adv-x="1927" d="M205 365q0 266 91 472.5t242.5 347t346 213t403.5 72.5q141 0 270.5 -39.5t228.5 -121.5t158.5 -207t59.5 -297q0 -137 -34 -271.5t-105.5 -240t-182 -171t-262.5 -65.5q-53 0 -100 20.5t-78 59.5q-72 -41 -140.5 -60.5t-146.5 -19.5q-162 0 -252 106.5t-90 280.5 q0 100 41 209t121 198t200 146.5t279 57.5q123 0 203 -21.5t135 -44.5l-145 -606q-4 -10 -4 -18.5v-16.5q0 -35 22.5 -50t57.5 -15q53 0 98 37.5t78 104.5t51 158t18 197q0 129 -39.5 222.5t-109.5 151.5t-162 86t-198 28q-147 0 -294 -56.5t-262.5 -168t-187.5 -280.5 t-72 -392q0 -145 46.5 -241.5t124 -154t181 -82t220.5 -24.5q72 0 160 10t161 25l-12 -203q-86 -16 -177 -26.5t-169 -10.5q-180 0 -323.5 49t-244 140.5t-153.5 221.5t-53 290zM885 469q0 -92 32.5 -140t110.5 -48q61 0 143 41q2 16 6.5 36.5t10.5 49.5l100 421 q-35 8 -84 9q-84 0 -143.5 -35t-99 -89.5t-58 -120t-18.5 -124.5z" />
<glyph unicode="A" horiz-adv-x="1462" d="M31 0q133 229 248.5 423.5t223 367t210 327t209.5 301.5h284q33 -147 62.5 -326.5t55.5 -366.5t47.5 -374.5t39.5 -351.5h-321q-4 80 -9.5 156.5t-11.5 152.5h-532q-41 -76 -86 -152.5t-86 -156.5h-334zM666 559h383q-10 125 -22 266.5t-32 282.5q-86 -137 -169 -272.5 t-160 -276.5z" />
<glyph unicode="B" horiz-adv-x="1347" d="M154 25l327 1372q117 23 245 31t235 8q123 0 212 -26t145 -69t84 -101t28 -124q0 -45 -9.5 -94t-37 -97t-75.5 -91t-126 -78q92 -41 135 -112t43 -157q0 -98 -39 -189t-125 -161.5t-223 -112.5t-334 -42q-123 0 -252 10t-233 33zM522 252q33 -6 83 -9t93 -3q61 0 122 9 t109 33.5t78.5 67.5t30.5 111q0 29 -11 57.5t-35.5 51t-64.5 37t-96 14.5h-221zM670 860h200q123 0 183.5 53.5t60.5 126.5q0 39 -17.5 67t-46 44t-65.5 23.5t-76 7.5q-43 0 -92 -3t-74 -8z" />
<glyph unicode="C" horiz-adv-x="1306" d="M252 573q0 160 56.5 318t166 281.5t268 201.5t365.5 78q98 0 193.5 -22.5t199.5 -79.5l-115 -248q-86 45 -153.5 61.5t-145.5 16.5q-117 0 -210 -47.5t-159.5 -128t-101 -187t-34.5 -225.5q0 -180 78.5 -262t226.5 -82q98 0 181 20.5t155 53.5l34 -261 q-84 -41 -186 -65.5t-250 -24.5q-127 0 -232.5 42t-180 120t-115.5 189.5t-41 250.5z" />
<glyph unicode="D" horiz-adv-x="1470" d="M154 25l329 1370q117 23 224.5 32t193.5 9q152 0 271.5 -41t202.5 -117t126 -180.5t43 -231.5q0 -207 -67.5 -370.5t-193.5 -277.5t-306 -175t-408 -61q-86 0 -198.5 10t-216.5 33zM526 256q23 -2 46.5 -3t64.5 -1q133 0 240.5 41t182.5 117.5t116 188.5t41 251 q0 72 -18.5 130t-60.5 100t-108.5 64.5t-161.5 22.5q-61 0 -125 -6z" />
<glyph unicode="E" horiz-adv-x="1216" d="M154 0l340 1419h927l-65 -262h-608l-66 -287h537l-64 -258h-537l-81 -348h655l-66 -264h-972z" />
<glyph unicode="F" horiz-adv-x="1177" d="M154 0l340 1419h919l-65 -264h-600l-72 -303h530l-63 -264h-531l-141 -588h-317z" />
<glyph unicode="G" horiz-adv-x="1409" d="M252 573q0 160 56.5 318t167 281.5t274 201.5t376.5 78q98 0 208 -28.5t198 -86.5l-115 -247q-72 45 -152.5 67.5t-158.5 22.5q-125 0 -222.5 -47.5t-165 -128t-102 -187t-34.5 -225.5q0 -180 75 -263t222 -83q41 0 73.5 3t59.5 7l118 494h320l-172 -711 q-57 -23 -165.5 -44.5t-276.5 -21.5q-143 0 -253 42t-183.5 120t-110.5 188.5t-37 249.5z" />
<glyph unicode="H" horiz-adv-x="1462" d="M154 0l340 1419h319l-131 -545h504l131 545h319l-342 -1419h-319l145 604h-504l-145 -604h-317z" />
<glyph unicode="I" horiz-adv-x="638" d="M154 0l340 1419h319l-342 -1419h-317z" />
<glyph unicode="J" horiz-adv-x="1056" d="M41 96l141 238q49 -35 107.5 -61.5t138.5 -26.5q57 0 99 13t73 43t52.5 77t37.5 115l221 925h320l-238 -989q-25 -104 -65.5 -189t-106 -145.5t-162 -92.5t-233.5 -32q-111 0 -210 34t-175 91z" />
<glyph unicode="K" horiz-adv-x="1355" d="M154 0l340 1419h319l-125 -512q160 137 301 263t264 249h379q-186 -174 -369.5 -345t-385.5 -333q129 -141 247.5 -323t212.5 -418h-348q-29 70 -68.5 149.5t-88 159.5t-103.5 154t-113 131l-145 -594h-317z" />
<glyph unicode="L" horiz-adv-x="1155" d="M154 0l340 1419h319l-276 -1149h628l-65 -270h-946z" />
<glyph unicode="M" horiz-adv-x="1798" d="M113 0q47 168 103 358.5t116.5 380t120 365.5t112.5 315h287q12 -55 31.5 -156.5t41 -223t44 -249.5t41.5 -235q70 106 151.5 229t161.5 242t151.5 222.5t122.5 170.5h283q-14 -141 -37.5 -317t-53.5 -364.5t-62.5 -379t-65.5 -358.5h-311q43 209 91 451.5t89 490.5 q-53 -84 -118.5 -187.5t-131.5 -209t-127 -201.5t-106 -164h-234q-10 61 -24.5 155.5t-32 200t-36 213t-34.5 193.5q-80 -248 -144.5 -490.5t-119.5 -451.5h-309z" />
<glyph unicode="N" horiz-adv-x="1519" d="M154 0l340 1419h243q47 -72 101.5 -169t112 -209.5t114.5 -234.5t109 -241l202 854h318l-342 -1419h-240q-86 242 -191.5 483.5t-228.5 456.5l-225 -940h-313z" />
<glyph unicode="O" horiz-adv-x="1550" d="M252 567q0 160 55 317.5t158.5 283.5t253 205t338.5 79q125 0 229.5 -41t180 -117.5t117.5 -187.5t42 -250q0 -160 -54 -318.5t-157.5 -284.5t-253.5 -204t-340 -78q-125 0 -229.5 41t-180 118t-117.5 187.5t-42 249.5zM580 590q0 -154 64.5 -249t209.5 -95q94 0 175 49 t141.5 131t94 187.5t33.5 220.5q0 154 -64.5 249t-209.5 95q-94 0 -175 -49.5t-141.5 -131.5t-94 -188.5t-33.5 -218.5z" />
<glyph unicode="P" horiz-adv-x="1308" d="M154 0l333 1399q111 20 210.5 28.5t187.5 8.5q129 0 232.5 -28t175 -80t110.5 -128t39 -170q0 -154 -59.5 -260t-164 -172t-246 -94.5t-306.5 -28.5h-80l-115 -475h-317zM651 743h80q86 0 156.5 13.5t121 44t78 79t27.5 117.5q0 92 -66.5 131t-189.5 39q-35 0 -59.5 -2 t-48.5 -4z" />
<glyph unicode="Q" horiz-adv-x="1548" d="M252 567q0 160 55 317.5t158.5 283.5t253 205t338.5 79q125 0 229.5 -41t180 -117.5t117.5 -187.5t42 -250q0 -141 -43 -283.5t-126 -262.5t-202.5 -206t-273.5 -116v-6q0 -45 29.5 -72t80 -41t116 -20.5t136.5 -10.5l-94 -221q-162 6 -270.5 32.5t-175 70.5t-95 107.5 t-28.5 143.5v15q-197 41 -312.5 190.5t-115.5 390.5zM580 590q0 -154 64.5 -249t209.5 -95q94 0 175 49t141.5 131t94 187.5t33.5 220.5q0 154 -64.5 249t-209.5 95q-94 0 -175 -49.5t-141.5 -131.5t-94 -188.5t-33.5 -218.5z" />
<glyph unicode="R" horiz-adv-x="1343" d="M154 0l333 1399q111 20 215.5 28.5t190.5 8.5q137 0 239.5 -33t170 -88t100.5 -130t33 -157q0 -68 -15.5 -133.5t-57.5 -124.5t-112.5 -109.5t-181.5 -85.5q57 -106 117.5 -257.5t113.5 -317.5h-342q-47 141 -95 279.5t-107 238.5h-160l-125 -518h-317zM657 770h109 q98 0 165.5 18.5t108.5 49t58.5 70.5t17.5 81q0 35 -10 66.5t-37 56.5t-71.5 39t-114.5 14q-35 0 -72 -2t-61 -4z" />
<glyph unicode="S" horiz-adv-x="1144" d="M82 102l135 244q25 -16 59.5 -34.5t78.5 -35t93.5 -27.5t102.5 -11q47 0 94 7t84 25.5t60.5 52t23.5 87.5q0 41 -22.5 70.5t-57.5 54t-78 45t-86 45.5q-55 33 -104 69.5t-84 82.5t-55.5 102.5t-20.5 130.5q0 94 36 175t106.5 140t177 93t249.5 34q66 0 127.5 -11 t114.5 -27.5t97 -38t75 -42.5l-133 -235q-51 39 -125 65.5t-160 26.5q-47 0 -90 -8t-75.5 -27.5t-52 -50.5t-19.5 -76q0 -41 15.5 -68.5t40 -48t57 -37t69.5 -34.5q63 -33 122.5 -70t104.5 -85t72 -109.5t27 -145.5q0 -117 -43 -203t-121 -143t-185.5 -85t-238.5 -28 q-86 0 -161 14.5t-135 34t-104 42t-71 40.5z" />
<glyph unicode="T" horiz-adv-x="1216" d="M297 1151l65 268h1151l-65 -268h-416l-276 -1151h-320l277 1151h-416z" />
<glyph unicode="U" horiz-adv-x="1398" d="M246 397q0 106 30 228l191 794h319l-200 -839q-20 -74 -21 -150q0 -41 9.5 -73.5t33 -57.5t63.5 -38t99 -13q123 0 186.5 76.5t98.5 218.5l209 876h319l-215 -903q-70 -289 -226.5 -417t-414.5 -128q-133 0 -224 32t-148.5 88t-83 135t-25.5 171z" />
<glyph unicode="V" horiz-adv-x="1409" d="M348 1419h342q6 -117 15.5 -251t21.5 -270t25.5 -270t27.5 -251q63 106 136 233t148 264.5t147.5 276.5t134.5 268h340q-78 -147 -170.5 -317t-198 -352.5t-223 -372t-246.5 -377.5h-299q-33 174 -62.5 360.5t-56.5 370.5t-47.5 359.5t-34.5 328.5z" />
<glyph unicode="W" horiz-adv-x="1916" d="M328 756q0 166 6 330.5t16 332.5h322q-10 -180 -19.5 -353t-9.5 -359v-141.5t4 -143.5q57 100 120.5 213t125 225.5t117 218t94.5 189.5h262q4 -84 11 -190.5t16.5 -220.5t19.5 -226.5t21 -208.5q53 104 108 225t110.5 250t110 262t103.5 260h338q-160 -389 -326 -740 t-356 -679h-299q-16 113 -29.5 216t-25 203.5t-20.5 203t-18 213.5q-117 -217 -230.5 -425t-242.5 -411h-299q-16 190 -23 376.5t-7 379.5z" />
<glyph unicode="X" horiz-adv-x="1370" d="M31 0l645 772l-289 647h352l170 -438q92 111 178.5 224.5t157.5 213.5h350q-59 -84 -125.5 -173t-137 -178t-142.5 -174t-139 -161q43 -96 80.5 -182t72.5 -173t68 -179.5t67 -198.5h-342q-29 88 -52 155.5t-44.5 126t-44 110.5t-49.5 110l-412 -502h-364z" />
<glyph unicode="Y" horiz-adv-x="1335" d="M348 1419h340q33 -147 72 -288t86 -295q59 76 113.5 146.5t105.5 141t101.5 143t103.5 152.5h352q-86 -121 -166 -229.5t-159.5 -212t-163.5 -205.5t-179 -211l-135 -561h-319l135 561q-86 217 -155.5 424t-131.5 434z" />
<glyph unicode="Z" horiz-adv-x="1306" d="M92 0l47 190q82 109 192.5 237t230.5 257t241 250t223 217h-627l66 268h1046l-53 -221q-82 -70 -196.5 -177.5t-239.5 -233t-250 -261t-227 -258.5h712l-65 -268h-1100z" />
<glyph unicode="[" horiz-adv-x="763" d="M61 -379l476 1983h555l-60 -244h-264l-358 -1495h264l-60 -244h-553z" />
<glyph unicode="\" horiz-adv-x="831" d="M307 1604h293l211 -1983h-293z" />
<glyph unicode="]" horiz-adv-x="763" d="M-78 -379l60 244h262l358 1495h-264l59 244h555l-477 -1983h-553z" />
<glyph unicode="^" d="M213 739l575 688h242l240 -716l-266 -113l-160 506l-414 -498z" />
<glyph unicode="_" horiz-adv-x="1030" d="M-61 -379l57 254h1024l-59 -254h-1022z" />
<glyph unicode="`" horiz-adv-x="505" d="M315 1475l189 161l276 -338l-131 -118z" />
<glyph unicode="a" horiz-adv-x="1204" d="M205 418q0 141 50 266t139 218t210 146.5t262 53.5q18 0 64.5 -2t106 -9.5t125 -23.5t124.5 -45l-133 -557q-20 -82 -20 -164q-1 -35 3 -71q12 -118 48 -210l-273 -38q-12 25 -22 47t-21 51q-57 -47 -126.5 -78t-155.5 -31q-102 0 -175 36t-119 96.5t-66.5 141.5 t-20.5 173zM508 440q0 -98 32.5 -155.5t121.5 -57.5q47 0 84.5 18.5t80.5 61.5q4 51 13.5 107.5t19.5 103.5l80 324q-27 4 -48.5 6t-51.5 2q-70 0 -130.5 -35t-105.5 -91t-70.5 -130t-25.5 -154z" />
<glyph unicode="b" horiz-adv-x="1177" d="M143 51l355 1489l317 49l-127 -528q41 18 82 28.5t88 10.5q98 0 170 -35t119 -94.5t69.5 -139t22.5 -172.5q0 -141 -52 -267t-142.5 -219t-213 -147.5t-266.5 -54.5q-18 0 -64 1t-105.5 9.5t-126 25t-126.5 44.5zM489 231q12 -2 21.5 -4t20 -3t24.5 -1h37q72 0 135.5 35 t109.5 93.5t72.5 132t26.5 153.5q0 98 -33 153.5t-121 55.5q-29 0 -74.5 -10.5t-82.5 -42.5z" />
<glyph unicode="c" horiz-adv-x="983" d="M205 430q0 139 45 262t129 215t203.5 145.5t267.5 53.5q92 0 164.5 -17.5t132.5 -46.5l-105 -237q-41 16 -85 29.5t-107 13.5q-154 0 -242 -103.5t-88 -281.5q0 -104 45 -169t166 -65q59 0 114.5 12.5t98.5 30.5l23 -243q-57 -23 -126 -40.5t-167 -17.5q-127 0 -215 37 t-145.5 99.5t-83 146.5t-25.5 176z" />
<glyph unicode="d" horiz-adv-x="1208" d="M205 416q0 139 50 263t138 216t209 145.5t264 53.5q37 0 69 -4.5t64 -12.5l111 463l317 49l-270 -1124q-20 -82 -20 -164q-1 -35 3 -71q12 -118 48 -210l-273 -38q-12 25 -22 47t-21 51q-57 -47 -127.5 -78t-156.5 -31q-102 0 -175 35t-119 95.5t-67.5 141.5t-21.5 173z M508 438q0 -98 33.5 -154.5t122.5 -56.5q47 0 85.5 18.5t81.5 61.5q4 51 13.5 107.5t19.5 103.5l76 316q-12 2 -21.5 4t-18.5 3t-23.5 1h-36.5q-72 0 -133.5 -34t-105.5 -91.5t-68.5 -130t-24.5 -148.5z" />
<glyph unicode="e" horiz-adv-x="1085" d="M205 422q0 131 46 254t130 218t204 153.5t265 58.5q72 0 133 -20.5t107.5 -59.5t72 -95.5t25.5 -127.5q0 -115 -51.5 -195t-142.5 -130t-216 -72.5t-272 -22.5q14 -86 62 -122t153 -36q66 0 133.5 11.5t126.5 33.5l23 -239q-57 -23 -146.5 -41.5t-193.5 -18.5 q-127 0 -214.5 36t-141.5 97.5t-78.5 143.5t-24.5 174zM514 592q127 4 205 21.5t121 42t57 52.5t14 60q0 96 -110 96q-104 0 -183 -74.5t-104 -197.5z" />
<glyph unicode="f" horiz-adv-x="897" d="M-74 -348q53 49 98.5 120.5t81 151.5t61.5 163t42 155l213 893q51 217 184 335.5t375 118.5q92 0 160.5 -19.5t103.5 -35.5l-102 -240q-37 18 -85 27.5t-89 9.5q-113 0 -167 -57t-75 -144l-12 -53h360l-61 -250h-359l-125 -522q-70 -293 -151.5 -455.5t-179.5 -236.5z " />
<glyph unicode="g" horiz-adv-x="1161" d="M68 -303l102 242q63 -29 132 -49.5t169 -20.5q131 0 197.5 58.5t87.5 150.5l8 39q-41 -20 -87 -32.5t-97 -12.5q-96 0 -166 29.5t-114 83t-65.5 126t-21.5 158.5q0 156 57.5 275.5t152.5 199.5t219 121t259 41q98 0 194.5 -20.5t188.5 -63.5l-211 -887 q-31 -133 -81 -230.5t-124.5 -162t-179 -96t-244.5 -31.5q-129 0 -217 23.5t-159 58.5zM516 492q0 -37 6 -69t22.5 -55.5t45 -38t72.5 -14.5q29 0 76.5 10.5t86.5 47.5l113 469q-35 8 -86 8q-78 0 -139.5 -27.5t-105.5 -75t-67.5 -114t-23.5 -141.5z" />
<glyph unicode="h" horiz-adv-x="1157" d="M143 0l369 1540l317 49l-124 -514q41 8 82.5 14.5t82.5 6.5q88 0 151.5 -26t104.5 -72t61.5 -109.5t20.5 -136.5q0 -86 -20 -170l-139 -582h-306l136 569q8 35 15 74t7 74q0 53 -27.5 91t-105.5 38q-33 0 -62.5 -4t-58.5 -11l-198 -831h-306z" />
<glyph unicode="i" horiz-adv-x="579" d="M143 0l256 1077h306l-259 -1077h-303zM428 1362q0 43 17.5 81t46 65.5t66.5 44t81 16.5q63 0 114.5 -38t51.5 -116q0 -43 -17.5 -81t-46 -65.5t-66.5 -44t-81 -16.5q-63 0 -114.5 38t-51.5 116z" />
<glyph unicode="j" horiz-adv-x="593" d="M-184 -340l78 242q29 -10 56 -16.5t62 -6.5q72 0 111 43t55 125l248 1030h305l-250 -1038q-49 -213 -153 -315.5t-297 -102.5q-57 0 -113.5 11.5t-101.5 27.5zM455 1362q0 43 17 81t46 65.5t67 44t81 16.5q63 0 114 -38t51 -116q0 -43 -17 -81t-46 -65.5t-66.5 -44 t-80.5 -16.5q-63 0 -114.5 38t-51.5 116z" />
<glyph unicode="k" horiz-adv-x="1148" d="M143 0l369 1540l317 49l-217 -901q123 98 231.5 200.5t186.5 188.5h344q-115 -127 -238.5 -248.5t-283.5 -259.5q43 -53 87 -122.5t84 -145.5t73.5 -153.5t56.5 -147.5h-340q-18 53 -46 116.5t-61.5 126t-70.5 122t-74 106.5l-115 -471h-303z" />
<glyph unicode="l" horiz-adv-x="645" d="M231 453l261 1087l317 49l-285 -1179q-8 -37 -9 -68t11.5 -54.5t42 -37.5t82.5 -19l-61 -251q-145 0 -228 38q-83 36 -119 102q-35 64 -35 146q0 85 23 187z" />
<glyph unicode="m" horiz-adv-x="1732" d="M143 0l248 1028q35 10 75 23.5t90 24.5t112.5 18.5t144.5 7.5q98 0 162.5 -24.5t118.5 -73.5q76 43 150.5 70.5t174.5 27.5q96 0 165 -25.5t114 -74t65.5 -115t20.5 -146.5q0 -37 -5 -77.5t-16 -81.5l-139 -582h-305l135 569q6 29 13.5 65t7.5 71q0 57 -27 99t-105 42 q-43 0 -81.5 -15.5t-69.5 -31.5q4 -16 4 -30.5v-27.5q0 -37 -5 -77.5t-15 -81.5l-140 -582h-305l135 569q6 29 13.5 65t7.5 71q0 57 -26.5 99t-104.5 42q-33 0 -55.5 -3t-53.5 -9l-198 -834h-306z" />
<glyph unicode="n" horiz-adv-x="1161" d="M143 0l248 1028q35 10 77 23.5t94 24.5t116.5 18.5t146.5 7.5q242 0 332 -140q54 -84 54 -205q0 -80 -23 -175l-139 -582h-306l136 569q12 53 19 103q3 24 3 45q0 24 -4 44q-8 38 -38 61.5t-91 23.5q-59 0 -121 -12l-198 -834h-306z" />
<glyph unicode="o" horiz-adv-x="1175" d="M205 416q0 123 40 245.5t117.5 221t190.5 161t258 62.5q106 0 187 -33t133.5 -92t79 -140t26.5 -179q0 -123 -39 -246t-114.5 -221.5t-189 -161t-263.5 -62.5q-109 0 -189 33t-132 92.5t-78.5 140t-26.5 179.5zM508 446q0 -104 32.5 -160.5t118.5 -56.5q68 0 119 39 t86 98.5t52.5 130t17.5 134.5q0 104 -33 160.5t-119 56.5q-68 0 -119 -39t-85.5 -98.5t-52 -130t-17.5 -134.5z" />
<glyph unicode="p" horiz-adv-x="1183" d="M51 -379l340 1417q82 25 187.5 44.5t228.5 19.5q115 0 197.5 -35t136 -95.5t79 -141.5t25.5 -173q0 -150 -49 -273.5t-136 -213.5t-209 -140t-265 -50q-70 0 -140 12l-92 -371h-303zM502 238q35 -8 86 -9q80 0 145.5 30t111.5 83t71.5 128t25.5 165q0 88 -39 149.5 t-135 61.5q-66 0 -123 -12z" />
<glyph unicode="q" horiz-adv-x="1173" d="M205 418q0 160 54 286.5t149.5 215t222.5 135.5t274 47q190 0 391 -80l-333 -1401h-306l95 397q-88 -38 -180 -38h-5q-78 0 -144.5 29.5t-114.5 86t-75.5 138.5t-27.5 184zM508 440q0 -117 39 -162t106 -45q39 0 77 11.5t85 40.5l135 557q-20 4 -42.5 6t-45.5 2 q-84 0 -149.5 -33t-111.5 -89t-69.5 -131t-23.5 -157z" />
<glyph unicode="r" horiz-adv-x="872" d="M143 0l246 1020q88 29 197.5 54.5t247.5 25.5q51 0 113.5 -9.5t109.5 -29.5l-90 -246q-41 10 -81 19.5t-118 9.5q-29 0 -63.5 -5t-57.5 -12l-198 -827h-306z" />
<glyph unicode="s" horiz-adv-x="989" d="M102 66l105 233q35 -20 109 -51t178 -31t143 29.5t39 64.5q0 23 -7 39.5t-23.5 30.5t-45.5 29.5t-74 35.5q-51 23 -96 48.5t-79 61.5t-53 82t-19 110q0 166 121.5 262t355.5 96q111 0 196.5 -24.5t139.5 -53.5l-105 -227q-43 23 -110.5 43t-133.5 20q-29 0 -56.5 -3 t-51 -13t-37.5 -28.5t-14 -49.5q0 -41 31.5 -61.5t89.5 -49.5q80 -39 133 -71.5t84.5 -69.5t46 -84t14.5 -110q0 -66 -27.5 -129.5t-87 -112.5t-151.5 -80t-221 -31q-80 0 -144.5 10.5t-114 26t-83 31.5t-52.5 27z" />
<glyph unicode="t" horiz-adv-x="851" d="M207 299q4 94 29 199l200 848l318 49l-78 -318h340l-62 -250h-338l-90 -376q-12 -47 -15 -88q-1 -7 0 -15q1 -32 11 -56q14 -30 46 -46.5t89 -16.5q49 0 95.5 9.5t93.5 25.5l22 -233q-61 -23 -132.5 -39.5t-170.5 -16.5q-141 0 -219 42t-110 115q-29 65 -29 147v20z" />
<glyph unicode="u" horiz-adv-x="1189" d="M206 303v21q0 84 21 172l140 581h305l-137 -577q-9 -44 -17 -92q-4 -26 -4 -51q0 -19 2 -37q6 -40 31.5 -65.5t81.5 -25.5q47 0 87 17.5t85 60.5q4 51 13 107.5t20 103.5l133 559h305l-146 -612q-20 -82 -20 -164q0 -35 4 -71q12 -118 47 -210l-272 -38q-23 45 -43 100 q-57 -45 -129 -76t-160 -31q-121 0 -195.5 44t-111.5 117t-40 167z" />
<glyph unicode="v" horiz-adv-x="1118" d="M256 1077h315q2 -80 6.5 -175t10.5 -191.5t14 -187.5t19 -165q45 61 101 151.5t109.5 189t98.5 197.5t69 181h324q-53 -145 -132 -298.5t-169 -297t-183.5 -268.5t-172.5 -213h-254q-53 205 -96.5 478.5t-59.5 598.5z" />
<glyph unicode="w" horiz-adv-x="1671" d="M266 1077h299q0 -74 1 -160t4 -178t9.5 -188t16.5 -191q51 86 101.5 179.5t96.5 186.5t86 183t70 168h254q0 -147 5 -329.5t26 -387.5q55 92 102 189.5t87 192t72 180.5t56 155h324q-41 -102 -97.5 -230t-130 -269.5t-165.5 -289t-205 -288.5h-238q-25 168 -37 321.5 t-16 309.5q-39 -84 -87 -171t-98 -170t-97.5 -158t-83.5 -132h-238q-16 86 -33.5 205t-34 259t-30 297t-19.5 316z" />
<glyph unicode="x" horiz-adv-x="1124" d="M41 0l489 549l-264 528h309l156 -336q70 86 132.5 168t119.5 168h305q-86 -123 -188.5 -255t-237.5 -275q82 -154 139.5 -284t102.5 -263h-301q-37 100 -74 184t-72 156l-297 -340h-319z" />
<glyph unicode="y" horiz-adv-x="1089" d="M-51 -330l92 240q41 -16 73.5 -25.5t80.5 -9.5q72 0 136 46t107 124q-53 205 -97 459t-60 573h313q2 -80 8 -176t14.5 -193.5t18.5 -189.5t22 -166q98 147 173 327.5t141 397.5h323q-57 -156 -115.5 -291t-122 -256.5t-131 -232.5t-143.5 -219q-55 -80 -114.5 -162 t-132 -147.5t-161.5 -106.5t-206 -41q-72 0 -123 13.5t-96 35.5z" />
<glyph unicode="z" horiz-adv-x="1077" d="M123 0l43 178q59 74 136 160t160 174t166 169t154 146h-438l62 250h835l-49 -203q-47 -41 -123 -111.5t-164 -155.5t-180 -178t-172 -179h500l-62 -250h-868z" />
<glyph unicode="{" horiz-adv-x="759" d="M164 492l59 241q63 0 108.5 14.5t76 40t48 60.5t27.5 78l74 309q23 92 61.5 161.5t102 116t157 69t222.5 22.5h41l-60 -244h-51q-49 0 -83 -11.5t-56.5 -33t-35.5 -52t-21 -71.5l-64 -272q-12 -53 -28.5 -98.5t-45 -84.5t-72.5 -69.5t-112 -55.5q72 -33 98.5 -79 t26.5 -105q0 -47 -16 -123l-64 -272q-12 -49 -12 -82q0 -47 28.5 -66.5t98.5 -19.5h51l-59 -244h-41q-180 0 -275.5 56.5t-95.5 205.5q0 61 22 162l60 254q20 98 -16.5 145.5t-153.5 47.5z" />
<glyph unicode="|" horiz-adv-x="622" d="M61 -379l476 1983h290l-477 -1983h-289z" />
<glyph unicode="}" horiz-adv-x="759" d="M-104 -379l59 244h51q51 0 84 10t54.5 31.5t35 53.5t23.5 73l63 272q12 53 28.5 98.5t45.5 84t73 69.5t111 55q-72 33 -98.5 79t-26.5 106q0 47 17 123l63 272q12 49 13 82q0 47 -29 66.5t-98 19.5h-52l60 244h41q180 0 275 -56.5t95 -206.5q0 -61 -22 -161l-60 -254 q-20 -98 17 -145.5t153 -47.5l-59 -241q-63 0 -108.5 -14.5t-76 -40t-48 -60.5t-27.5 -78l-74 -309q-23 -92 -61.5 -162t-102 -116t-156.5 -68.5t-222 -22.5h-41z" />
<glyph unicode="~" d="M168 465q23 70 56.5 135.5t81.5 115.5t110.5 79.5t142.5 29.5q68 0 118 -24.5t91 -53t79 -53t83 -24.5q18 0 33.5 4t32 19.5t35 45t42.5 80.5l195 -57q-29 -78 -64 -143.5t-81 -113.5t-106 -76t-140 -28q-68 0 -118 25t-91 53.5t-79 53t-83 24.5q-18 0 -33.5 -4 t-32 -19.5t-35 -45t-43.5 -80.5z" />
<glyph unicode="&#xa2;" d="M299 479q0 131 37 238.5t101.5 189.5t150.5 137.5t184 79.5l72 295h291l-70 -286q90 -18 170 -64l-102 -235q-49 29 -100.5 41t-98.5 12q-70 0 -128 -26.5t-101 -77t-67 -125t-24 -169.5q0 -102 52.5 -140t126.5 -38q59 0 124.5 16.5t118.5 37.5l23 -244 q-59 -25 -123 -40t-125 -22l-68 -282h-290l75 315q-104 43 -166.5 135t-62.5 252z" />
<glyph unicode="&#xa3;" d="M213 0q74 166 120 303t77 254h-179l60 250h178l51 197q33 123 89.5 207.5t128 137t154.5 75t173 22.5q92 0 171 -20.5t144 -55.5l-123 -225q-104 47 -194 47q-43 0 -83 -10.5t-74 -38t-61.5 -76.5t-45.5 -127l-33 -133h360l-59 -250h-360q-18 -72 -45 -152.5t-54 -148.5 h555l-61 -256h-889z" />
<glyph unicode="&#xa5;" d="M172 227l47 195h297l33 141h-297l47 195h236q-33 84 -65 171t-60.5 173t-52 167t-40.5 150h320q14 -74 30.5 -138t35 -127.5t39.5 -130t46 -140.5q104 135 196.5 259t191.5 277h331q-115 -172 -237.5 -331.5t-261.5 -329.5h206l-47 -195h-299l-32 -141h299l-48 -195h-299 l-55 -227h-319l55 227h-297z" />
<glyph unicode="&#xa8;" horiz-adv-x="1097" d="M473 1368q0 39 14.5 72t38 55.5t53 35.5t60.5 13q57 0 98 -38t41 -101q0 -37 -15 -68.5t-40 -55.5t-54.5 -36t-58.5 -12q-59 0 -98 37t-39 98zM928 1368q0 39 14 72t38 55.5t53.5 35.5t60.5 13q57 0 98 -38t41 -101q0 -37 -15.5 -68.5t-40 -55.5t-54 -36t-58.5 -12 q-59 0 -98 37t-39 98z" />
<glyph unicode="&#xa9;" horiz-adv-x="1630" d="M246 711q0 174 58 312t156.5 233.5t227.5 145.5t270 50t270.5 -50t227.5 -145.5t156.5 -233.5t58.5 -312q0 -176 -58.5 -313.5t-156.5 -232.5t-227 -145.5t-271 -50.5q-141 0 -270 50.5t-227.5 145.5t-156.5 232.5t-58 313.5zM455 711q0 -123 36.5 -223.5t103.5 -172 t160 -110.5t203 -39q111 0 204 39t160 110.5t103.5 172t36.5 223.5t-36.5 223t-103.5 172t-160 110.5t-204 38.5t-203.5 -38.5t-159.5 -110.5t-103.5 -172t-36.5 -223zM616 715q0 186 101.5 285.5t267.5 99.5q98 0 158.5 -26.5t83.5 -39.5l-66 -180q-29 16 -64.5 27.5 t-92.5 11.5q-68 0 -109 -43t-41 -125q0 -37 6 -70.5t22.5 -59.5t45 -42t76.5 -16q61 0 102 14t74 27l57 -187q-27 -14 -90.5 -38.5t-155.5 -24.5q-184 0 -279.5 100t-95.5 287z" />
<glyph unicode="&#xab;" horiz-adv-x="1255" d="M205 594l448 479l193 -115l-322 -403l148 -371l-203 -94zM758 594l448 479l193 -115l-322 -403l148 -371l-203 -94z" />
<glyph unicode="&#xad;" horiz-adv-x="702" d="M150 473l67 277h594l-68 -277h-593z" />
<glyph unicode="&#xae;" horiz-adv-x="1630" d="M246 711q0 174 58 312t156.5 233.5t227.5 145.5t270 50t270.5 -50t227.5 -145.5t156.5 -233.5t58.5 -312q0 -176 -58.5 -313.5t-156.5 -232.5t-227 -145.5t-271 -50.5q-141 0 -270 50.5t-227.5 145.5t-156.5 232.5t-58 313.5zM455 711q0 -123 36.5 -223.5t103.5 -172 t160 -110.5t203 -39q111 0 204 39t160 110.5t103.5 172t36.5 223.5t-36.5 223t-103.5 172t-160 110.5t-204 38.5t-203.5 -38.5t-159.5 -110.5t-103.5 -172t-36.5 -223zM688 362v701q70 16 130.5 23.5t105.5 7.5q330 0 329 -248q0 -127 -110 -187q23 -35 40 -66.5t34.5 -65 t35 -73.5t39.5 -92h-209q-35 78 -59.5 136.5t-54.5 105.5h-82v-242h-199zM887 764h37q66 0 98.5 17.5t32.5 66.5q0 41 -29 57.5t-84 16.5q-14 0 -29.5 -1t-25.5 -3v-154z" />
<glyph unicode="&#xb4;" horiz-adv-x="585" d="M362 1307l328 329l158 -178l-363 -278z" />
<glyph unicode="&#xb8;" horiz-adv-x="667" d="M-2 -406l74 168q27 -12 60.5 -20t64.5 -8q82 0 82 49q0 23 -14.5 37t-47.5 28l-41 19q12 20 30.5 46t36 51.5t33 46t21.5 30.5h192q-8 -10 -20 -27.5t-25.5 -36t-26 -37t-20.5 -30.5q45 -23 67.5 -59.5t22.5 -77.5q0 -59 -23.5 -102.5t-63.5 -71t-91 -40t-104 -12.5 q-55 0 -109.5 12.5t-97.5 34.5z" />
<glyph unicode="&#xbb;" horiz-adv-x="1255" d="M125 205l321 403l-147 371l203 94l264 -504l-449 -479zM676 205l321 403l-147 371l203 94l264 -504l-449 -479z" />
<glyph unicode="&#x2c6;" horiz-adv-x="815" d="M403 1309l367 297l252 -318l-123 -108l-170 159l-231 -155z" />
<glyph unicode="&#x2da;" horiz-adv-x="663" d="M416 1432q0 57 19.5 101t53 73.5t76.5 45t90 15.5q49 0 93.5 -15.5t78 -45t53 -73.5t19.5 -101t-19.5 -101.5t-53 -74t-77.5 -45t-94 -15.5q-47 0 -90 15.5t-76.5 45t-53 73.5t-19.5 102zM563 1432q0 -47 29 -72t63 -25q37 0 66 25t29 72t-29 71.5t-66 24.5 q-35 0 -63.5 -24.5t-28.5 -71.5z" />
<glyph unicode="&#x2dc;" horiz-adv-x="763" d="M336 1315q47 111 112.5 165t159.5 54q39 0 70 -11.5t57.5 -24.5t51 -24.5t49.5 -11.5q29 0 52 16.5t58 67.5l137 -84q-47 -111 -112.5 -165t-159.5 -54q-39 0 -69.5 11.5t-57.5 24.5t-51.5 24.5t-48.5 11.5q-29 0 -52.5 -16.5t-58.5 -67.5z" />
<glyph unicode="&#x400;" horiz-adv-x="1216" d="M154 0l340 1419h927l-65 -262h-608l-66 -287h537l-64 -258h-537l-81 -348h655l-66 -264h-972zM700 1803l189 161l276 -338l-131 -118z" />
<glyph unicode="&#x401;" horiz-adv-x="1216" d="M154 0l340 1419h927l-65 -262h-608l-66 -287h537l-64 -258h-537l-81 -348h655l-66 -264h-972zM625 1696q0 39 14.5 72t38 55.5t53 35.5t60.5 13q57 0 98 -38t41 -101q0 -37 -15 -68.5t-40 -55.5t-54.5 -36t-58.5 -12q-59 0 -98 37t-39 98zM1080 1696q0 39 14 72t38 55.5 t53.5 35.5t60.5 13q57 0 98 -38t41 -101q0 -37 -15.5 -68.5t-40 -55.5t-54 -36t-58.5 -12q-59 0 -98 37t-39 98z" />
<glyph unicode="&#x402;" horiz-adv-x="1607" d="M297 1147l65 272h1156l-66 -272h-448l-66 -270q119 25 223 24q229 0 348 -109.5t119 -287.5q0 -127 -43 -224.5t-119.5 -163t-183 -98t-231.5 -32.5q-74 0 -148 12l64 238q18 -4 45.5 -5.5t54.5 -1.5q113 0 182.5 65.5t69.5 170.5q0 51 -19.5 86t-52.5 54.5t-76 27.5 t-88 8q-53 0 -108 -7t-101 -18l-147 -616h-319l276 1147h-387z" />
<glyph unicode="&#x403;" horiz-adv-x="1134" d="M154 0l340 1419h886l-65 -270h-567l-277 -1149h-317zM841 1635l328 329l158 -178l-363 -278z" />
<glyph unicode="&#x404;" horiz-adv-x="1386" d="M252 592q0 152 51 305.5t156.5 277t269.5 201.5t389 78q104 0 211 -24.5t211 -77.5l-131 -254q-86 37 -171 57.5t-163 20.5q-154 0 -270.5 -77t-173.5 -243h567l-65 -270h-555q0 -96 25.5 -161t69.5 -103.5t102.5 -55t125.5 -16.5q94 0 194.5 25.5t188.5 64.5l41 -264 q-135 -53 -246.5 -79t-234.5 -26q-289 0 -440.5 159t-151.5 462z" />
<glyph unicode="&#x405;" horiz-adv-x="1144" d="M82 102l135 244q25 -16 59.5 -34.5t78.5 -35t93.5 -27.5t102.5 -11q47 0 94 7t84 25.5t60.5 52t23.5 87.5q0 41 -22.5 70.5t-57.5 54t-78 45t-86 45.5q-55 33 -104 69.5t-84 82.5t-55.5 102.5t-20.5 130.5q0 94 36 175t106.5 140t177 93t249.5 34q66 0 127.5 -11 t114.5 -27.5t97 -38t75 -42.5l-133 -235q-51 39 -125 65.5t-160 26.5q-47 0 -90 -8t-75.5 -27.5t-52 -50.5t-19.5 -76q0 -41 15.5 -68.5t40 -48t57 -37t69.5 -34.5q63 -33 122.5 -70t104.5 -85t72 -109.5t27 -145.5q0 -117 -43 -203t-121 -143t-185.5 -85t-238.5 -28 q-86 0 -161 14.5t-135 34t-104 42t-71 40.5z" />
<glyph unicode="&#x406;" horiz-adv-x="638" d="M154 0l340 1419h319l-342 -1419h-317z" />
<glyph unicode="&#x407;" horiz-adv-x="638" d="M154 0l340 1419h319l-342 -1419h-317zM342 1696q0 39 14.5 72t38 55.5t53 35.5t60.5 13q57 0 98 -38t41 -101q0 -37 -15 -68.5t-40 -55.5t-54.5 -36t-58.5 -12q-59 0 -98 37t-39 98zM797 1696q0 39 14 72t38 55.5t53.5 35.5t60.5 13q57 0 98 -38t41 -101 q0 -37 -15.5 -68.5t-40 -55.5t-54 -36t-58.5 -12q-59 0 -98 37t-39 98z" />
<glyph unicode="&#x408;" horiz-adv-x="1056" d="M41 96l141 238q49 -35 107.5 -61.5t138.5 -26.5q57 0 99 13t73 43t52.5 77t37.5 115l221 925h320l-238 -989q-25 -104 -65.5 -189t-106 -145.5t-162 -92.5t-233.5 -32q-111 0 -210 34t-175 91z" />
<glyph unicode="&#x409;" horiz-adv-x="2138" d="M82 250q102 8 179 58t135.5 132t102.5 191.5t80.5 236.5t68.5 267.5t67 283.5h925l-120 -504h104q147 0 249.5 -25.5t165 -76.5t91.5 -125t29 -170q0 -154 -64.5 -256t-170 -163.5t-240 -87t-271.5 -25.5q-109 0 -220.5 12t-201.5 35l269 1116h-308q-68 -285 -134 -500 t-157.5 -361.5t-221.5 -225t-326 -91.5zM1368 262q27 -4 58.5 -6t66.5 -2q102 0 167.5 20.5t102.5 54t51.5 74.5t14.5 84q0 35 -12.5 66t-41 52.5t-78.5 33.5t-124 12h-113z" />
<glyph unicode="&#x40a;" horiz-adv-x="2129" d="M154 0l340 1419h319l-131 -545h504l131 545h315l-121 -504h105q147 0 249.5 -25.5t165 -76.5t91 -125t28.5 -170q0 -154 -64.5 -256t-170 -163.5t-239.5 -87t-271 -25.5q-109 0 -220.5 12t-201.5 35l137 571h-504l-145 -604h-317zM1360 262q27 -4 58.5 -6t66.5 -2 q102 0 167.5 20.5t102.5 54t51.5 74.5t14.5 84q0 35 -12.5 66t-41 52.5t-79 33.5t-123.5 12h-113z" />
<glyph unicode="&#x40b;" horiz-adv-x="1554" d="M297 1147l65 272h1156l-66 -272h-448l-66 -268q49 12 104.5 19t108.5 7q193 0 298 -91t105 -257q0 -68 -18 -147l-100 -410h-320l103 422q6 23 8 43t2 37q0 82 -54.5 107.5t-138.5 25.5q-43 0 -85 -6t-77 -17l-147 -612h-319l276 1147h-387z" />
<glyph unicode="&#x40c;" horiz-adv-x="1355" d="M154 0l340 1419h319l-125 -512q160 137 301 263t264 249h379q-186 -174 -369.5 -345t-385.5 -333q129 -141 247.5 -323t212.5 -418h-348q-29 70 -68.5 149.5t-88 159.5t-103.5 154t-113 131l-145 -594h-317zM940 1635l328 329l158 -178l-363 -278z" />
<glyph unicode="&#x40d;" horiz-adv-x="1499" d="M154 0l340 1419h317l-203 -837q100 111 203.5 225.5t206 223t203 207.5t192.5 181h260l-342 -1419h-315l223 930q-117 -123 -223.5 -239t-205.5 -228.5t-195.5 -227t-194.5 -235.5h-266zM829 1803l189 161l276 -338l-131 -118z" />
<glyph unicode="&#x40e;" horiz-adv-x="1269" d="M123 25l100 251q72 -32 154 -32q61 0 118.5 23.5t110.5 76.5l37 39q-43 123 -83 256t-75.5 268t-63.5 265.5t-46 246.5h354q18 -166 52 -353t81 -374q86 143 181.5 324.5t211.5 402.5h342q-186 -336 -362 -624.5t-330 -505.5q-104 -143 -233 -230.5t-303 -87.5 q-123 0 -246 54zM692 1831l215 53q2 -78 37 -109.5t86 -31.5q53 0 95 28.5t79 110.5l193 -66q-49 -143 -152 -210.5t-250 -67.5q-63 0 -117.5 19.5t-94.5 57t-64.5 92t-26.5 124.5z" />
<glyph unicode="&#x40f;" horiz-adv-x="1445" d="M154 0l340 1419h319l-276 -1149h487l276 1149h320l-340 -1419h-408l-92 -379h-307l92 379h-411z" />
<glyph unicode="&#x410;" horiz-adv-x="1462" d="M31 0q133 229 248.5 423.5t223 367t210 327t209.5 301.5h284q33 -147 62.5 -326.5t55.5 -366.5t47.5 -374.5t39.5 -351.5h-321q-4 80 -9.5 156.5t-11.5 152.5h-532q-41 -76 -86 -152.5t-86 -156.5h-334zM666 559h383q-10 125 -22 266.5t-32 282.5q-86 -137 -169 -272.5 t-160 -276.5z" />
<glyph unicode="&#x411;" horiz-adv-x="1304" d="M154 33l333 1386h918l-66 -270h-596l-57 -234h100q147 0 250 -25.5t165.5 -76.5t91 -125t28.5 -170q0 -154 -64.5 -256t-170 -163.5t-239.5 -87t-272 -25.5q-109 0 -220 12t-201 35zM530 262q27 -4 59 -6t66 -2q102 0 168 20.5t103 54t51 74.5t14 84q0 35 -12 66 t-41 52.5t-79 33.5t-124 12h-112z" />
<glyph unicode="&#x412;" horiz-adv-x="1347" d="M154 25l327 1372q117 23 245 31t235 8q123 0 212 -26t145 -69t84 -101t28 -124q0 -45 -9.5 -94t-37 -97t-75.5 -91t-126 -78q92 -41 135 -112t43 -157q0 -98 -39 -189t-125 -161.5t-223 -112.5t-334 -42q-123 0 -252 10t-233 33zM522 252q33 -6 83 -9t93 -3q61 0 122 9 t109 33.5t78.5 67.5t30.5 111q0 29 -11 57.5t-35.5 51t-64.5 37t-96 14.5h-221zM670 860h200q123 0 183.5 53.5t60.5 126.5q0 39 -17.5 67t-46 44t-65.5 23.5t-76 7.5q-43 0 -92 -3t-74 -8z" />
<glyph unicode="&#x413;" horiz-adv-x="1134" d="M154 0l340 1419h886l-65 -270h-567l-277 -1149h-317z" />
<glyph unicode="&#x414;" horiz-adv-x="1722" d="M-4 -379l156 649h186q92 88 161.5 209t123 255t91.5 269.5t64 251.5l37 164h928l-277 -1149h244l-156 -649h-307l92 379h-946l-92 -379h-305zM700 270h455l211 879h-315q-35 -139 -67 -256t-71 -221.5t-89 -202.5t-124 -199z" />
<glyph unicode="&#x415;" horiz-adv-x="1216" d="M154 0l340 1419h927l-65 -262h-608l-66 -287h537l-64 -258h-537l-81 -348h655l-66 -264h-972z" />
<glyph unicode="&#x416;" horiz-adv-x="2070" d="M61 0q86 113 177.5 222.5t183.5 208.5t185 185t186 154l-390 649h385l285 -569l137 569h312l-138 -569l580 569h383l-725 -696q125 -154 223.5 -333t165.5 -390h-356q-39 102 -75 185t-73 157t-80 144.5t-94 148.5l-153 -635h-312l154 635q-96 -86 -173 -160 t-147.5 -147.5t-140 -153.5t-147.5 -174h-353z" />
<glyph unicode="&#x417;" horiz-adv-x="1236" d="M82 86l147 250q86 -47 169 -69.5t180 -22.5q82 0 141 17.5t99 47t59.5 66.5t19.5 76q0 72 -56.5 112.5t-172.5 40.5h-230l64 262h174q55 0 109.5 10.5t99.5 34t72.5 62.5t27.5 96q0 55 -48 82t-122 27t-163 -25t-173 -72l-45 267q96 49 207 75.5t252 26.5 q117 0 197.5 -27.5t132 -73.5t74 -105.5t22.5 -123.5q0 -123 -67.5 -221t-204.5 -151q106 -55 144 -132t38 -151q0 -82 -37 -169t-118 -160t-209 -119t-312 -46q-135 0 -258 31t-213 84z" />
<glyph unicode="&#x418;" horiz-adv-x="1499" d="M154 0l340 1419h317l-203 -837q100 111 203.5 225.5t206 223t203 207.5t192.5 181h260l-342 -1419h-315l223 930q-117 -123 -223.5 -239t-205.5 -228.5t-195.5 -227t-194.5 -235.5h-266z" />
<glyph unicode="&#x419;" horiz-adv-x="1499" d="M154 0l340 1419h317l-203 -837q100 111 203.5 225.5t206 223t203 207.5t192.5 181h260l-342 -1419h-315l223 930q-117 -123 -223.5 -239t-205.5 -228.5t-195.5 -227t-194.5 -235.5h-266zM811 1837l215 53q2 -78 37 -109.5t86 -31.5q53 0 95 28.5t79 110.5l193 -66 q-49 -143 -152 -210.5t-250 -67.5q-63 0 -117.5 19.5t-94.5 57t-64.5 92t-26.5 124.5z" />
<glyph unicode="&#x41a;" horiz-adv-x="1355" d="M154 0l340 1419h319l-125 -512q160 137 301 263t264 249h379q-186 -174 -369.5 -345t-385.5 -333q129 -141 247.5 -323t212.5 -418h-348q-29 70 -68.5 149.5t-88 159.5t-103.5 154t-113 131l-145 -594h-317z" />
<glyph unicode="&#x41b;" horiz-adv-x="1468" d="M82 250q102 8 179 58t135.5 132t102.5 191.5t80.5 236.5t68.5 267.5t67 283.5h927l-339 -1419h-320l277 1149h-308q-68 -285 -134 -500t-157.5 -361.5t-221.5 -225t-326 -91.5z" />
<glyph unicode="&#x41c;" horiz-adv-x="1798" d="M113 0q47 168 103 358.5t116.5 380t120 365.5t112.5 315h287q12 -55 31.5 -156.5t41 -223t44 -249.5t41.5 -235q70 106 151.5 229t161.5 242t151.5 222.5t122.5 170.5h283q-14 -141 -37.5 -317t-53.5 -364.5t-62.5 -379t-65.5 -358.5h-311q43 209 91 451.5t89 490.5 q-53 -84 -118.5 -187.5t-131.5 -209t-127 -201.5t-106 -164h-234q-10 61 -24.5 155.5t-32 200t-36 213t-34.5 193.5q-80 -248 -144.5 -490.5t-119.5 -451.5h-309z" />
<glyph unicode="&#x41d;" horiz-adv-x="1462" d="M154 0l340 1419h319l-131 -545h504l131 545h319l-342 -1419h-319l145 604h-504l-145 -604h-317z" />
<glyph unicode="&#x41e;" horiz-adv-x="1550" d="M252 567q0 160 55 317.5t158.5 283.5t253 205t338.5 79q125 0 229.5 -41t180 -117.5t117.5 -187.5t42 -250q0 -160 -54 -318.5t-157.5 -284.5t-253.5 -204t-340 -78q-125 0 -229.5 41t-180 118t-117.5 187.5t-42 249.5zM580 590q0 -154 64.5 -249t209.5 -95q94 0 175 49 t141.5 131t94 187.5t33.5 220.5q0 154 -64.5 249t-209.5 95q-94 0 -175 -49.5t-141.5 -131.5t-94 -188.5t-33.5 -218.5z" />
<glyph unicode="&#x41f;" horiz-adv-x="1445" d="M154 0l340 1419h1126l-342 -1419h-320l277 1149h-487l-277 -1149h-317z" />
<glyph unicode="&#x420;" horiz-adv-x="1308" d="M154 0l333 1399q111 20 210.5 28.5t187.5 8.5q129 0 232.5 -28t175 -80t110.5 -128t39 -170q0 -154 -59.5 -260t-164 -172t-246 -94.5t-306.5 -28.5h-80l-115 -475h-317zM651 743h80q86 0 156.5 13.5t121 44t78 79t27.5 117.5q0 92 -66.5 131t-189.5 39q-35 0 -59.5 -2 t-48.5 -4z" />
<glyph unicode="&#x421;" horiz-adv-x="1306" d="M252 573q0 160 56.5 318t166 281.5t268 201.5t365.5 78q98 0 193.5 -22.5t199.5 -79.5l-115 -248q-86 45 -153.5 61.5t-145.5 16.5q-117 0 -210 -47.5t-159.5 -128t-101 -187t-34.5 -225.5q0 -180 78.5 -262t226.5 -82q98 0 181 20.5t155 53.5l34 -261 q-84 -41 -186 -65.5t-250 -24.5q-127 0 -232.5 42t-180 120t-115.5 189.5t-41 250.5z" />
<glyph unicode="&#x422;" horiz-adv-x="1216" d="M297 1151l65 268h1151l-65 -268h-416l-276 -1151h-320l277 1151h-416z" />
<glyph unicode="&#x423;" horiz-adv-x="1269" d="M123 25l100 251q72 -32 154 -32q61 0 118.5 23.5t110.5 76.5l37 39q-43 123 -83 256t-75.5 268t-63.5 265.5t-46 246.5h354q18 -166 52 -353t81 -374q86 143 181.5 324.5t211.5 402.5h342q-186 -336 -362 -624.5t-330 -505.5q-104 -143 -233 -230.5t-303 -87.5 q-123 0 -246 54z" />
<glyph unicode="&#x424;" horiz-adv-x="1699" d="M236 651q0 121 50 243t148 220t242.5 161.5t333.5 67.5l39 168h311l-39 -168q129 -16 222 -62t152.5 -110.5t88 -143.5t28.5 -159q0 -121 -50 -242.5t-148 -220t-242.5 -162t-333.5 -67.5l-41 -176h-311l41 176q-129 16 -222 62.5t-152.5 112t-88 143t-28.5 157.5z M561 698q0 -117 55.5 -187.5t174.5 -80.5l157 666q-92 -10 -163.5 -49t-122 -94.5t-76 -122t-25.5 -132.5zM1100 424q92 10 163.5 49t122 94.5t76 122t25.5 131.5q0 117 -55.5 187.5t-174.5 81.5z" />
<glyph unicode="&#x425;" horiz-adv-x="1370" d="M31 0l645 772l-289 647h352l170 -438q92 111 178.5 224.5t157.5 213.5h350q-59 -84 -125.5 -173t-137 -178t-142.5 -174t-139 -161q43 -96 80.5 -182t72.5 -173t68 -179.5t67 -198.5h-342q-29 88 -52 155.5t-44.5 126t-44 110.5t-49.5 110l-412 -502h-364z" />
<glyph unicode="&#x426;" horiz-adv-x="1601" d="M154 0l340 1419h319l-276 -1149h487l276 1149h320l-277 -1149h246l-155 -649h-308l93 379h-1065z" />
<glyph unicode="&#x427;" horiz-adv-x="1361" d="M307 831q0 80 25 183l98 405h320l-101 -418q-16 -72 -16 -116q0 -49 16.5 -82t45 -52.5t64.5 -27.5t77 -8q53 0 105 10t93 20l162 674h320l-342 -1419h-320l115 475q-111 -31 -226 -31q-86 0 -165.5 21.5t-139 68t-95.5 120t-36 177.5z" />
<glyph unicode="&#x428;" horiz-adv-x="2039" d="M154 0l340 1419h319l-276 -1149h370l277 1149h319l-276 -1149h370l277 1149h319l-342 -1419h-1697z" />
<glyph unicode="&#x429;" horiz-adv-x="2174" d="M154 0l340 1419h319l-276 -1149h370l277 1149h319l-276 -1149h370l277 1149h319l-276 -1149h246l-156 -649h-307l92 379h-1638z" />
<glyph unicode="&#x42a;" horiz-adv-x="1507" d="M297 1149l65 270h654l-113 -473q14 2 52 4t61 2q160 0 259 -36.5t155.5 -97t77 -138.5t20.5 -162q0 -98 -37 -193.5t-124 -172t-229.5 -123.5t-353.5 -47q-109 0 -220 14t-202 37l269 1116h-334zM737 260q27 -4 60.5 -6t68.5 -2q96 0 161 21.5t102.5 57.5t54 80t16.5 89 q0 37 -10 70.5t-37 60t-73 42t-115 15.5q-10 0 -49 -1t-76 -5z" />
<glyph unicode="&#x42b;" horiz-adv-x="1886" d="M154 33l333 1386h320l-113 -473q14 2 52 4t61 2q160 0 259 -36.5t155.5 -97t77 -138.5t20.5 -162q0 -98 -37 -193.5t-124 -172t-229.5 -123.5t-353.5 -47q-109 0 -220 14t-201 37zM528 260q27 -4 61 -6t68 -2q96 0 161 21.5t102.5 57.5t54 80t16.5 89q0 37 -10 70.5 t-36.5 60t-73 42t-115.5 15.5q-10 0 -49 -1t-76 -5zM1397 0l338 1419h305l-340 -1419h-303z" />
<glyph unicode="&#x42c;" horiz-adv-x="1298" d="M154 33l333 1386h320l-113 -473q14 2 52 4t61 2q160 0 259 -36.5t155.5 -97t77 -138.5t20.5 -162q0 -98 -37 -193.5t-124 -172t-229.5 -123.5t-353.5 -47q-109 0 -220 14t-201 37zM528 260q27 -4 61 -6t68 -2q96 0 161 21.5t102.5 57.5t54 80t16.5 89q0 37 -10 70.5 t-36.5 60t-73 42t-115.5 15.5q-10 0 -49 -1t-76 -5z" />
<glyph unicode="&#x42d;" horiz-adv-x="1335" d="M133 74l135 248q86 -45 159 -61.5t151 -16.5q190 0 309 93t172 249h-567l67 270h545v35q0 80 -27.5 135t-74 88t-104.5 47.5t-120 14.5q-86 0 -175 -21.5t-161 -52.5l-20 260q98 41 207.5 65.5t220.5 24.5t212 -28.5t179 -91t125 -164t47 -246.5q0 -254 -69.5 -434.5 t-187.5 -295t-272.5 -168t-322.5 -53.5q-115 0 -223.5 26t-204.5 77z" />
<glyph unicode="&#x42e;" horiz-adv-x="2189" d="M154 0l338 1419h319l-131 -545h262q39 117 108.5 222.5t165 184.5t216 125t264.5 46q125 0 229.5 -41t180 -117.5t117.5 -187.5t42 -250q0 -160 -54 -318.5t-157.5 -284.5t-253.5 -204t-340 -78q-125 0 -229.5 41t-180 118t-117.5 187.5t-42 249.5v37h-275l-145 -604 h-317zM1219 590q0 -154 64.5 -249t209.5 -95q94 0 175 49t141.5 131t94 187.5t33.5 220.5q0 154 -64.5 249t-209.5 95q-94 0 -175 -49.5t-141.5 -131.5t-94 -188.5t-33.5 -218.5z" />
<glyph unicode="&#x42f;" horiz-adv-x="1378" d="M82 0q57 84 119.5 168t125 161t120 141.5t102.5 111.5q-98 68 -134 139.5t-36 169.5q0 156 61.5 260t163 167.5t233.5 89.5t273 26q123 0 223.5 -12.5t198.5 -32.5l-334 -1389h-319l122 510h-38q-27 0 -64 1t-74 5q-86 -94 -193.5 -228t-213.5 -288h-336zM713 930 q0 -70 48 -113t171 -43h133l92 383q-31 4 -61.5 6t-59.5 2q-63 0 -121.5 -11t-103.5 -37.5t-71.5 -72t-26.5 -114.5z" />
<glyph unicode="&#x430;" horiz-adv-x="1204" d="M205 418q0 141 50 266t139 218t210 146.5t262 53.5q18 0 64.5 -2t106 -9.5t125 -23.5t124.5 -45l-133 -557q-29 -117 -16.5 -234.5t47.5 -210.5l-273 -38q-12 25 -22 47t-21 51q-57 -47 -126.5 -78t-155.5 -31q-102 0 -175 36t-119 96.5t-66.5 141.5t-20.5 173zM508 440 q0 -98 32.5 -155.5t121.5 -57.5q47 0 84.5 18.5t80.5 61.5q4 51 13.5 107.5t19.5 103.5l80 324q-27 4 -48.5 6t-51.5 2q-70 0 -130.5 -35t-105.5 -91t-70.5 -130t-25.5 -154z" />
<glyph unicode="&#x431;" horiz-adv-x="1185" d="M225 416q0 80 11.5 161.5t30 159.5t39 148.5t38.5 126.5q76 227 251 362t468 170q72 10 142.5 18.5t144.5 26.5l-13 -260q-92 -20 -191 -26.5t-192.5 -30t-174.5 -83t-134 -185.5q109 45 221 45q70 0 136.5 -20.5t117.5 -67t82 -120t31 -177.5q0 -164 -49 -293 t-134 -218.5t-197 -135.5t-235 -46q-88 0 -160.5 24.5t-123.5 79t-80 138.5t-29 203zM512 449q0 -123 38 -171.5t114 -48.5q51 0 102 28t92 78t65.5 121.5t24.5 159.5q0 102 -46 143.5t-116 41.5q-53 0 -112.5 -18.5t-114.5 -47.5q-20 -78 -33.5 -152.5t-13.5 -133.5z" />
<glyph unicode="&#x432;" horiz-adv-x="1130" d="M133 37l148 618q29 119 80 203t120.5 138.5t153.5 79t180 24.5q174 0 275.5 -74t101.5 -197q0 -86 -56.5 -164.5t-154.5 -109.5q76 -27 117 -87t41 -134q0 -61 -27 -125t-93.5 -115t-180 -84t-285.5 -33q-98 0 -200.5 14.5t-219.5 45.5zM475 225q29 -6 69 -9t68 -3 q43 0 85 7t76 23.5t55.5 46t21.5 72.5q0 49 -47 69t-135 20h-138zM580 655h114q119 0 166 37t47 78q0 47 -32.5 70.5t-75.5 23.5q-98 0 -144.5 -47t-66.5 -129z" />
<glyph unicode="&#x433;" horiz-adv-x="989" d="M162 256q0 109 46 176.5t114.5 109.5t148.5 67.5t148.5 49t114.5 54t46 82.5q0 29 -25.5 47t-101.5 18q-78 0 -135 -14.5t-117 -32.5l-10 238q59 20 152.5 37.5t191.5 17.5q170 0 261 -67.5t91 -184.5q0 -121 -46 -197.5t-115.5 -126t-151.5 -77t-151.5 -51t-115.5 -49 t-46 -70.5q0 -37 30.5 -50.5t108.5 -13.5q80 0 155.5 17.5t162.5 48.5l12 -248q-41 -16 -142.5 -41t-244.5 -25q-98 0 -170 23.5t-119 62.5t-69.5 91.5t-22.5 107.5z" />
<glyph unicode="&#x434;" horiz-adv-x="1161" d="M205 399q0 145 45 265t122 206t181 133.5t223 47.5q43 0 88 -6.5t92 -20.5q-6 96 -31.5 155.5t-65.5 93.5t-93.5 46t-116.5 12q-106 0 -219 -45l-24 258q72 23 141 34t135 11q123 0 226.5 -32.5t177 -109.5t115.5 -203t42 -314q0 -252 -48 -433.5t-133 -298t-202 -172 t-254 -55.5q-201 0 -301 116t-100 312zM489 377q0 -53 34 -98.5t116 -45.5q53 0 104.5 28t94.5 90.5t72.5 166t41.5 256.5q-77 33 -147 33q-74 0 -133.5 -33t-99.5 -91t-61.5 -137t-21.5 -169z" />
<glyph unicode="&#x435;" horiz-adv-x="1085" d="M205 422q0 131 46 254t130 218t204 153.5t265 58.5q72 0 133 -20.5t107.5 -59.5t72 -95.5t25.5 -127.5q0 -115 -51.5 -195t-142.5 -130t-216 -72.5t-272 -22.5q14 -86 62 -122t153 -36q66 0 133.5 11.5t126.5 33.5l23 -239q-57 -23 -146.5 -41.5t-193.5 -18.5 q-127 0 -214.5 36t-141.5 97.5t-78.5 143.5t-24.5 174zM514 592q127 4 205 21.5t121 42t57 53t14 57.5q1 98 -110 98q-104 0 -183 -74.5t-104 -197.5z" />
<glyph unicode="&#x436;" horiz-adv-x="1910" d="M41 18l82 242q61 -31 115 -31q70 0 122 38t85.5 100.5t50 144.5t16.5 170q0 80 -26.5 123t-86.5 43q-43 0 -104 -25l-16 236q113 47 202 47q129 0 206 -97.5t77 -295.5v-29.5t-2 -28.5h180l100 422h289l-100 -422h155q57 213 186.5 332t293.5 119q66 0 110.5 -12.5 t98.5 -38.5l-82 -238q-61 31 -115 31q-70 0 -122 -43t-86 -108.5t-50 -146.5t-16 -155q0 -92 34.5 -129t90.5 -37q33 0 69.5 8.5t77.5 20.5l14 -240q-59 -25 -113.5 -36t-103.5 -11q-143 0 -232 97.5t-89 296.5v30.5t2 30.5h-178l-103 -426h-287l101 426h-156 q-51 -215 -176 -335t-305 -120q-66 0 -111 10.5t-98 36.5z" />
<glyph unicode="&#x437;" horiz-adv-x="966" d="M82 47l90 236q45 -27 121 -44.5t153 -17.5q43 0 82 6t69 21.5t47.5 39t17.5 58.5q0 53 -43.5 70.5t-102.5 17.5h-178l51 217h180q86 0 123 38t37 85q0 45 -41 61.5t-100 16.5q-37 0 -78 -5t-77 -11.5t-65.5 -13.5t-43.5 -11l-17 231q84 29 176 44.5t179 15.5 q94 0 162.5 -21.5t113.5 -57.5t67.5 -83t22.5 -98q0 -78 -51 -155t-150 -124q66 -33 101 -90t35 -125q0 -100 -46.5 -172t-122 -117t-170 -66.5t-192.5 -21.5t-189 20.5t-161 55.5z" />
<glyph unicode="&#x438;" horiz-adv-x="1189" d="M206 303q-3 94 21 193l140 581h305l-137 -577q-10 -45 -17.5 -92.5t-1.5 -87t31.5 -65.5t81.5 -26q47 0 87 17.5t85 60.5q4 51 13 107.5t20 103.5l133 559h305l-146 -612q-29 -117 -16.5 -234.5t47.5 -210.5l-272 -38q-23 45 -43 100q-57 -45 -129 -76t-160 -31 q-121 0 -195.5 44t-111.5 117t-40 167z" />
<glyph unicode="&#x439;" horiz-adv-x="1189" d="M206 303q-3 94 21 193l140 581h305l-137 -577q-10 -45 -17.5 -92.5t-1.5 -87t31.5 -65.5t81.5 -26q47 0 87 17.5t85 60.5q4 51 13 107.5t20 103.5l133 559h305l-146 -612q-29 -117 -16.5 -234.5t47.5 -210.5l-272 -38q-23 45 -43 100q-57 -45 -129 -76t-160 -31 q-121 0 -195.5 44t-111.5 117t-40 167zM532 1518l215 53q2 -78 37 -109.5t86 -31.5q53 0 95 28.5t79 110.5l193 -66q-49 -143 -152 -210.5t-250 -67.5q-63 0 -117.5 19.5t-94.5 57t-64.5 92t-26.5 124.5z" />
<glyph unicode="&#x43a;" horiz-adv-x="1175" d="M143 0l258 1077h306l-95 -389q55 49 112.5 101.5t112 104.5t101.5 99l84 84h369q-115 -127 -242 -249.5t-297 -258.5q43 -53 87 -122.5t84 -146.5t73.5 -153.5t56.5 -146.5h-340q-18 53 -46 116.5t-61.5 126t-70.5 122t-74 106.5l-115 -471h-303z" />
<glyph unicode="&#x43b;" horiz-adv-x="1249" d="M102 -18v254q92 4 154.5 42.5t103.5 104.5q57 90 87 215t59 258l47 221h809l-260 -1077h-305l198 827h-209q-57 -215 -108 -370.5t-123 -259t-178.5 -155.5t-274.5 -60z" />
<glyph unicode="&#x43c;" horiz-adv-x="1449" d="M102 0q31 115 74 256t89 286.5t93.5 285t87.5 249.5h252q18 -78 34 -149.5t29 -147t28.5 -158.5t33.5 -184q68 106 126.5 195.5t111.5 166.5t102 145.5t97 131.5h251q-10 -115 -22 -243.5t-29.5 -266t-41 -281t-56.5 -286.5h-303q18 74 37.5 153.5t39 161.5t38 163 t32.5 155l-340 -506h-202l-97 514q-23 -72 -46 -153.5t-46.5 -166.5t-46 -168t-41.5 -153h-285z" />
<glyph unicode="&#x43d;" horiz-adv-x="1218" d="M143 0l260 1077h306l-97 -401h318l96 401h305l-260 -1077h-305l102 426h-317l-102 -426h-306z" />
<glyph unicode="&#x43e;" horiz-adv-x="1175" d="M205 416q0 123 40 245.5t117.5 221t190.5 161t258 62.5q106 0 187 -33t133.5 -92t79 -140t26.5 -179q0 -123 -39 -246t-114.5 -221.5t-189 -161t-263.5 -62.5q-109 0 -189 33t-132 92.5t-78.5 140t-26.5 179.5zM508 446q0 -104 32.5 -160.5t118.5 -56.5q68 0 119 39 t86 98.5t52.5 130t17.5 134.5q0 104 -33 160.5t-119 56.5q-68 0 -119 -39t-85.5 -98.5t-52 -130t-17.5 -134.5z" />
<glyph unicode="&#x43f;" horiz-adv-x="1161" d="M143 0l248 1028q35 10 77 23.5t94 24.5t116.5 18.5t146.5 7.5q242 0 332 -139.5t31 -380.5l-139 -582h-306l136 569q12 53 19 103.5t-1 88.5t-38 61.5t-91 23.5q-59 0 -121 -12l-198 -834h-306z" />
<glyph unicode="&#x440;" horiz-adv-x="1183" d="M51 -379l340 1417q82 25 187.5 44.5t228.5 19.5q115 0 197.5 -35t136 -95.5t79 -141.5t25.5 -173q0 -150 -49 -273.5t-136 -213.5t-209 -140t-265 -50q-70 0 -140 12l-92 -371h-303zM502 238q35 -8 86 -9q80 0 145.5 30t111.5 83t71.5 128t25.5 165q0 88 -39 149.5 t-135 61.5q-66 0 -123 -12z" />
<glyph unicode="&#x441;" horiz-adv-x="983" d="M205 430q0 139 45 262t129 215t203.5 145.5t267.5 53.5q92 0 164.5 -17.5t132.5 -46.5l-105 -237q-41 16 -85 29.5t-107 13.5q-154 0 -242 -103.5t-88 -281.5q0 -104 45 -169t166 -65q59 0 114.5 12.5t98.5 30.5l23 -243q-57 -23 -126 -40.5t-167 -17.5q-127 0 -215 37 t-145.5 99.5t-83 146.5t-25.5 176z" />
<glyph unicode="&#x442;" horiz-adv-x="1732" d="M143 0l248 1028q35 10 75 23.5t90 24.5t112.5 18.5t144.5 7.5q98 0 162.5 -24.5t118.5 -73.5q76 43 150.5 70.5t174.5 27.5q96 0 165 -25.5t114 -74t65.5 -115t20.5 -146.5q0 -37 -5 -77.5t-16 -81.5l-139 -582h-305l135 569q6 29 13.5 65t7.5 71q0 57 -27 99t-105 42 q-43 0 -81.5 -15.5t-69.5 -31.5q4 -16 4 -30.5v-27.5q0 -37 -5 -77.5t-15 -81.5l-140 -582h-305l135 569q6 29 13.5 65t7.5 71q0 57 -26.5 99t-104.5 42q-33 0 -55.5 -3t-53.5 -9l-198 -834h-306z" />
<glyph unicode="&#x443;" horiz-adv-x="1089" d="M-51 -330l92 240q41 -16 73.5 -25.5t80.5 -9.5q72 0 136 46t107 124q-53 205 -97 459t-60 573h313q2 -80 8 -176t14.5 -193.5t18.5 -189.5t22 -166q98 147 173 327.5t141 397.5h323q-57 -156 -115.5 -291t-122 -256.5t-131 -232.5t-143.5 -219q-55 -80 -114.5 -162 t-132 -147.5t-161.5 -106.5t-206 -41q-72 0 -123 13.5t-96 35.5z" />
<glyph unicode="&#x444;" horiz-adv-x="1593" d="M205 461q0 147 57 261t153.5 193.5t224.5 125.5t269 59l107 438l309 51l-121 -502q90 -18 169 -56t137.5 -96t91 -141t32.5 -190q0 -111 -46 -220.5t-135 -198.5t-221 -146t-302 -62l-86 -356h-289l86 363q-219 37 -327.5 167t-108.5 310zM514 461q0 -39 11.5 -78t34 -73 t57 -58.5t83.5 -34.5l154 647q-80 -10 -142.5 -46t-106.5 -90t-67.5 -122.5t-23.5 -144.5zM979 197q72 6 134.5 40.5t108.5 89t72.5 125t26.5 148.5q0 39 -11.5 78t-34 72.5t-57 58.5t-83.5 35z" />
<glyph unicode="&#x445;" horiz-adv-x="1124" d="M41 0l489 549l-264 528h309l156 -336q70 86 132.5 168t119.5 168h305q-86 -123 -188.5 -255t-237.5 -275q82 -154 139.5 -284t102.5 -263h-301q-37 100 -74 184t-72 156l-297 -340h-319z" />
<glyph unicode="&#x446;" horiz-adv-x="1210" d="M206 303q-3 94 21 193l140 581h305l-137 -577q-10 -45 -17.5 -92.5t-1.5 -87t31.5 -65.5t81.5 -26q47 0 87 17.5t85 60.5q4 51 13 107.5t20 103.5l133 559h305l-146 -612q-4 -16 -9 -37.5t-10 -46.5t-8 -48.5t-3 -39.5q0 -53 29.5 -85t107.5 -44l-121 -471h-260l80 325 q-29 12 -48.5 33t-29.5 43q-66 -53 -139.5 -86t-161.5 -33q-121 0 -195.5 44t-111.5 117t-40 167z" />
<glyph unicode="&#x447;" horiz-adv-x="1126" d="M244 643q0 61 18 141l70 293h305l-84 -348q-6 -25 -6 -43q0 -33 14 -52.5t37 -28.5t51.5 -12t57.5 -3q61 0 112 10l115 477h305l-260 -1077h-305l86 354q-41 -6 -79 -10t-75 -4q-78 0 -144.5 16.5t-114.5 53t-75.5 94t-27.5 139.5z" />
<glyph unicode="&#x448;" horiz-adv-x="1763" d="M205 336q0 37 5 78t15 82l140 581h305l-135 -569q-8 -29 -14.5 -64.5t-6.5 -70.5q0 -57 26.5 -99.5t104.5 -42.5q43 0 82 15.5t70 32.5q-4 16 -4 30.5v26.5q0 37 5 78t15 82l139 581h305l-135 -569q-8 -29 -14 -64.5t-6 -70.5q0 -57 25.5 -98.5t103.5 -41.5 q33 0 70.5 18.5t72.5 53.5q0 6 3 28.5t6 52.5t8.5 61.5t11.5 56.5l137 573h305l-137 -579q-27 -109 -27 -211q0 -131 50 -267l-273 -38l-43 100q-57 -47 -127.5 -77t-144.5 -30q-63 0 -126 24t-122 75q-76 -43 -150.5 -71t-175.5 -28q-96 0 -164.5 26t-113.5 74t-65.5 114.5 t-20.5 146.5z" />
<glyph unicode="&#x449;" horiz-adv-x="1783" d="M205 336q0 37 5 78t15 82l140 581h305l-135 -569q-8 -29 -14.5 -64.5t-6.5 -70.5q0 -57 26.5 -99.5t104.5 -42.5q43 0 82 15.5t70 32.5q-4 16 -4 30.5v26.5q-2 37 4 78t16 82l139 581h305l-135 -569q-8 -29 -14 -64.5t-6 -70.5q0 -57 25.5 -98.5t103.5 -41.5 q33 0 70.5 18.5t72.5 53.5q0 6 3 28.5t6 52.5t8.5 61.5t11.5 56.5l137 573h305l-143 -608q-4 -16 -9 -38.5t-10.5 -47.5t-8.5 -49.5t-3 -40.5q0 -53 30 -85t107 -44l-120 -471h-258l79 325q-29 12 -48 33t-29 43q-66 -53 -133.5 -86t-155.5 -33q-63 0 -126 24t-122 75 q-76 -43 -150.5 -71t-175.5 -28q-96 0 -164.5 26t-113.5 74t-65.5 114.5t-20.5 146.5z" />
<glyph unicode="&#x44a;" horiz-adv-x="1228" d="M225 827l60 250h540l-92 -383q88 16 164 17q182 0 277.5 -85t95.5 -239q0 -86 -35 -160.5t-105.5 -130t-178 -87.5t-255.5 -32q-199 0 -426 56l191 794h-236zM621 221q29 -4 59.5 -6t60.5 -2q119 0 179.5 41t60.5 113q0 114 -174 114q-35 0 -71 -4t-58 -10z" />
<glyph unicode="&#x44b;" horiz-adv-x="1681" d="M143 33l250 1044h305l-92 -383q88 16 164 17q182 0 277.5 -85t95.5 -239q0 -86 -35 -160.5t-105.5 -130t-178 -87.5t-255.5 -32q-199 0 -426 56zM494 221q29 -4 59.5 -6t60.5 -2q119 0 179.5 41t60.5 113q0 114 -174 114q-35 0 -71 -4t-58 -10zM1233 0l256 1077h305 l-258 -1077h-303z" />
<glyph unicode="&#x44c;" horiz-adv-x="1101" d="M143 33l250 1044h305l-92 -383q88 16 164 17q182 0 277.5 -85t95.5 -239q0 -86 -35 -160.5t-105.5 -130t-178 -87.5t-255.5 -32q-199 0 -426 56zM494 221q29 -4 59.5 -6t60.5 -2q119 0 179.5 41t60.5 113q0 114 -174 114q-35 0 -71 -4t-58 -10z" />
<glyph unicode="&#x44d;" horiz-adv-x="1011" d="M102 45l88 246q74 -33 135.5 -46.5t123.5 -13.5q115 0 192.5 48.5t114.5 156.5h-394l52 219h372q0 55 -17 94t-47 63t-69 34t-84 10q-61 0 -125.5 -16.5t-121.5 -38.5l-17 235q164 70 316 70q111 0 195.5 -31t141 -87t86 -135t29.5 -175q0 -197 -55 -331t-145.5 -217 t-207 -120t-241.5 -37q-90 0 -173 18.5t-149 53.5z" />
<glyph unicode="&#x44e;" horiz-adv-x="1759" d="M143 0l260 1077h306l-97 -401h222q31 88 82 166t121.5 136t160.5 93t197 35q106 0 187 -33t133 -92t79 -140t27 -179q0 -123 -39 -246t-115 -221.5t-189.5 -161t-263.5 -62.5q-109 0 -188.5 33t-131.5 92.5t-79 140t-27 179.5v10h-237l-102 -426h-306zM1092 446 q0 -102 32.5 -159.5t118.5 -57.5q68 0 119 39t86 98.5t52.5 130t17.5 134.5q0 102 -33 159.5t-119 57.5q-68 0 -119 -39t-86 -98.5t-52 -130t-17 -134.5z" />
<glyph unicode="&#x44f;" horiz-adv-x="1146" d="M41 0q90 133 186.5 253t173.5 200q-78 43 -109.5 103t-31.5 130q0 121 48 201t127 127t181.5 66.5t212.5 19.5q115 0 226.5 -15.5t204.5 -37.5l-252 -1047h-306l93 383h-142q-76 -88 -154.5 -189.5t-146.5 -193.5h-311zM555 705q0 -41 37 -73t108 -32h146l63 258 q-29 4 -60.5 6t-66.5 2q-43 0 -83 -7t-72.5 -25.5t-52 -50t-19.5 -78.5z" />
<glyph unicode="&#x450;" horiz-adv-x="1085" d="M205 422q0 131 46 254t130 218t204 153.5t265 58.5q72 0 133 -20.5t107.5 -59.5t72 -95.5t25.5 -127.5q0 -115 -51.5 -195t-142.5 -130t-216 -72.5t-272 -22.5q14 -86 62 -122t153 -36q66 0 133.5 11.5t126.5 33.5l23 -239q-57 -23 -146.5 -41.5t-193.5 -18.5 q-127 0 -214.5 36t-141.5 97.5t-78.5 143.5t-24.5 174zM514 592q127 4 205 21.5t121 42t57 53t14 57.5q1 98 -110 98q-104 0 -183 -74.5t-104 -197.5zM602 1475l189 161l276 -338l-131 -118z" />
<glyph unicode="&#x451;" horiz-adv-x="1085" d="M205 422q0 131 46 254t130 218t204 153.5t265 58.5q72 0 133 -20.5t107.5 -59.5t72 -95.5t25.5 -127.5q0 -115 -51.5 -195t-142.5 -130t-216 -72.5t-272 -22.5q14 -86 62 -122t153 -36q66 0 133.5 11.5t126.5 33.5l23 -239q-57 -23 -146.5 -41.5t-193.5 -18.5 q-127 0 -214.5 36t-141.5 97.5t-78.5 143.5t-24.5 174zM514 592q127 4 205 21.5t121 42t57 53t14 57.5q1 98 -110 98q-104 0 -183 -74.5t-104 -197.5zM545 1368q0 39 14.5 72t38 55.5t53 35.5t60.5 13q57 0 98 -38t41 -101q0 -37 -15 -68.5t-40 -55.5t-54.5 -36t-58.5 -12 q-59 0 -98 37t-39 98zM1000 1368q0 39 14 72t38 55.5t53.5 35.5t60.5 13q57 0 98 -38t41 -101q0 -37 -15.5 -68.5t-40 -55.5t-54 -36t-58.5 -12q-59 0 -98 37t-39 98z" />
<glyph unicode="&#x452;" horiz-adv-x="1148" d="M143 0l291 1221h-127l47 190h127l31 129l317 49l-43 -178h293l-47 -190h-291l-41 -170q41 8 83 14t83 6q84 0 147.5 -26.5t105.5 -74.5t63.5 -112.5t21.5 -140.5q0 -37 -5 -78t-15 -82l-125 -518q-53 -221 -149.5 -321.5t-262.5 -100.5q-57 0 -105 10.5t-108 32.5l78 242 q49 -18 90 -19q113 0 141 117l131 545q6 29 12.5 64.5t8.5 70.5q0 57 -26.5 99t-104.5 42q-33 0 -62.5 -4t-58.5 -10l-194 -807h-306z" />
<glyph unicode="&#x453;" horiz-adv-x="989" d="M162 256q0 109 46 176.5t114.5 109.5t148.5 67.5t148.5 49t114.5 54t46 82.5q0 29 -25.5 47t-101.5 18q-78 0 -135 -14.5t-117 -32.5l-10 238q59 20 152.5 37.5t191.5 17.5q170 0 261 -67.5t91 -184.5q0 -121 -46 -197.5t-115.5 -126t-151.5 -77t-151.5 -51t-115.5 -49 t-46 -70.5q0 -37 30.5 -50.5t108.5 -13.5q80 0 155.5 17.5t162.5 48.5l12 -248q-41 -16 -142.5 -41t-244.5 -25q-98 0 -170 23.5t-119 62.5t-69.5 91.5t-22.5 107.5zM634 1307l328 329l158 -178l-363 -278z" />
<glyph unicode="&#x454;" horiz-adv-x="1001" d="M205 440q0 147 50 270.5t137 211.5t204 136t250 48q76 0 154.5 -16.5t158.5 -53.5l-100 -233q-43 27 -102.5 42t-122.5 15q-51 0 -100.5 -11t-91.5 -36t-72.5 -63.5t-45.5 -94.5h387l-51 -219h-381q0 -59 20.5 -99t53.5 -63.5t76 -34t90 -10.5q39 0 78 6.5t74.5 15.5 t65.5 20.5t48 21.5l16 -248q-86 -41 -168.5 -57.5t-148.5 -16.5q-96 0 -183 24.5t-152.5 81t-104.5 145.5t-39 218z" />
<glyph unicode="&#x455;" horiz-adv-x="989" d="M102 66l105 233q35 -20 109 -51t178 -31t143 29.5t39 64.5q0 23 -7 39.5t-23.5 30.5t-45.5 29.5t-74 35.5q-51 23 -96 48.5t-79 61.5t-53 82t-19 110q0 166 121.5 262t355.5 96q111 0 196.5 -24.5t139.5 -53.5l-105 -227q-43 23 -110.5 43t-133.5 20q-29 0 -56.5 -3 t-51 -13t-37.5 -28.5t-14 -49.5q0 -41 31.5 -61.5t89.5 -49.5q80 -39 133 -71.5t84.5 -69.5t46 -84t14.5 -110q0 -66 -27.5 -129.5t-87 -112.5t-151.5 -80t-221 -31q-80 0 -144.5 10.5t-114 26t-83 31.5t-52.5 27z" />
<glyph unicode="&#x456;" horiz-adv-x="579" d="M143 0l256 1077h306l-259 -1077h-303zM428 1362q0 43 17.5 81t46 65.5t66.5 44t81 16.5q63 0 114.5 -38t51.5 -116q0 -43 -17.5 -81t-46 -65.5t-66.5 -44t-81 -16.5q-63 0 -114.5 38t-51.5 116z" />
<glyph unicode="&#x457;" horiz-adv-x="579" d="M143 0l256 1077h306l-259 -1077h-303zM248 1368q0 39 14.5 72t38 55.5t53 35.5t60.5 13q57 0 98 -38t41 -101q0 -37 -15 -68.5t-40 -55.5t-54.5 -36t-58.5 -12q-59 0 -98 37t-39 98zM703 1368q0 39 14 72t38 55.5t53.5 35.5t60.5 13q57 0 98 -38t41 -101 q0 -37 -15.5 -68.5t-40 -55.5t-54 -36t-58.5 -12q-59 0 -98 37t-39 98z" />
<glyph unicode="&#x458;" horiz-adv-x="593" d="M-184 -340l78 242q29 -10 56 -16.5t62 -6.5q72 0 111 43t55 125l248 1030h305l-250 -1038q-49 -213 -153 -315.5t-297 -102.5q-57 0 -113.5 11.5t-101.5 27.5zM455 1362q0 43 17 81t46 65.5t67 44t81 16.5q63 0 114 -38t51 -116q0 -43 -17 -81t-46 -65.5t-66.5 -44 t-80.5 -16.5q-63 0 -114.5 38t-51.5 116z" />
<glyph unicode="&#x459;" horiz-adv-x="1744" d="M82 -18v254q92 4 154.5 42.5t103.5 104.5q57 90 87 215t58 258l47 221h809l-92 -383q88 16 164 17q182 0 277.5 -85t95.5 -239q0 -86 -35 -160.5t-105.5 -130t-178 -87.5t-255.5 -32q-199 0 -426 56l189 794h-209q-57 -215 -108.5 -370.5t-123 -259t-178 -155.5 t-274.5 -60zM1137 221q29 -4 59.5 -6t60.5 -2q119 0 179.5 41t60.5 113q0 114 -174 114q-35 0 -70.5 -4t-58.5 -10z" />
<glyph unicode="&#x45a;" horiz-adv-x="1726" d="M143 0l260 1077h306l-97 -401h310l96 401h305l-92 -383q88 16 164 17q182 0 277 -85t95 -239q0 -86 -34.5 -160.5t-105.5 -130t-178.5 -87.5t-254.5 -32q-199 0 -426 56l94 393h-311l-102 -426h-306zM1118 221q29 -4 59.5 -6t61.5 -2q119 0 179.5 41t60.5 113 q0 114 -174 114q-35 0 -71 -4t-58 -10z" />
<glyph unicode="&#x45b;" horiz-adv-x="1157" d="M143 0l291 1221h-127l47 190h127l31 129l317 49l-43 -178h293l-47 -190h-291l-41 -170q41 8 83 14t83 6q84 0 147.5 -26.5t105.5 -74.5t63.5 -112.5t21.5 -140.5q0 -37 -5 -78t-15 -82l-135 -557h-306l131 545q6 29 13.5 64.5t7.5 70.5q0 57 -26.5 99t-104.5 42 q-33 0 -62.5 -4t-58.5 -10l-194 -807h-306z" />
<glyph unicode="&#x45c;" horiz-adv-x="1175" d="M143 0l258 1077h306l-95 -389q55 49 112.5 102.5t111 104.5t101.5 98t85 84h369q-115 -127 -242 -249.5t-297 -258.5q43 -53 87 -122.5t84 -145.5t73.5 -153.5t56.5 -147.5h-340q-18 53 -46 116.5t-61.5 126t-70.5 122t-74 106.5l-115 -471h-303zM751 1307l328 329 l158 -178l-363 -278z" />
<glyph unicode="&#x45d;" horiz-adv-x="1189" d="M206 303q-3 94 21 193l140 581h305l-137 -577q-10 -45 -17.5 -92.5t-1.5 -87t31.5 -65.5t81.5 -26q47 0 87 17.5t85 60.5q4 51 13 107.5t20 103.5l133 559h305l-146 -612q-29 -117 -16.5 -234.5t47.5 -210.5l-272 -38q-23 45 -43 100q-57 -45 -129 -76t-160 -31 q-121 0 -195.5 44t-111.5 117t-40 167zM520 1475l189 161l276 -338l-131 -118z" />
<glyph unicode="&#x45e;" horiz-adv-x="1089" d="M-51 -330l92 240q41 -16 73.5 -25.5t80.5 -9.5q72 0 136 46t107 124q-53 205 -97 459t-60 573h313q2 -80 8 -176t14.5 -193.5t18.5 -189.5t22 -166q98 147 173 327.5t141 397.5h323q-57 -156 -115.5 -291t-122 -256.5t-131 -232.5t-143.5 -219q-55 -80 -114.5 -162 t-132 -147.5t-161.5 -106.5t-206 -41q-72 0 -123 13.5t-96 35.5zM493 1518l215 53q2 -78 37 -109.5t86 -31.5q53 0 95 28.5t79 110.5l193 -66q-49 -143 -152 -210.5t-250 -67.5q-63 0 -117.5 19.5t-94.5 57t-64.5 92t-26.5 124.5z" />
<glyph unicode="&#x45f;" horiz-adv-x="1189" d="M206 303q-3 94 21 193l140 581h305l-137 -577q-10 -45 -17.5 -92.5t-1.5 -87t31.5 -65.5t81.5 -26q47 0 87 17.5t85 60.5q4 51 13 107.5t20 103.5l133 559h305l-146 -612q-29 -117 -16.5 -234.5t47.5 -210.5l-272 -38q-23 45 -43 100q-57 -45 -129 -76t-160 -31 q-121 0 -195.5 44t-111.5 117t-40 167zM319 -379l72 293h264l-77 -293h-259z" />
<glyph unicode="&#x462;" horiz-adv-x="1495" d="M266 1096l62 252h336l38 163h322l-39 -163h352l-61 -252h-352l-35 -150q14 2 52 4t60 2q160 0 259.5 -36.5t156 -97t76.5 -138.5t20 -162q0 -98 -36.5 -193.5t-123.5 -172t-229.5 -123.5t-353.5 -47q-109 0 -220.5 14t-201.5 37l254 1063h-336zM723 260q27 -4 60.5 -6 t68.5 -2q96 0 160.5 21.5t102.5 57.5t54.5 80t16.5 89q0 37 -10.5 70.5t-37 60t-72.5 42t-116 15.5q-10 0 -49 -1t-76 -5z" />
<glyph unicode="&#x463;" horiz-adv-x="1689" d="M143 0l248 1028q35 12 77 24.5t94 23.5t116.5 18.5t146.5 7.5q193 0 289 -91t96 -257q0 -16 -1 -30.5t-3 -31.5q41 6 86 12.5t86 6.5q182 0 277.5 -85t95.5 -239q0 -86 -35 -160.5t-105.5 -130t-178 -87.5t-254.5 -32q-199 0 -426 56l133 567q6 29 11 58.5t5 58.5 q0 53 -26.5 91t-106.5 38q-59 0 -121 -12l-198 -834h-306zM1102 221q29 -4 59.5 -6t61.5 -2q119 0 179 41t60 113q0 114 -174 114q-35 0 -70.5 -4t-58.5 -10z" />
<glyph unicode="&#x472;" horiz-adv-x="1550" d="M252 567q0 160 55 317.5t158.5 283.5t253 205t338.5 79q125 0 229.5 -41t180 -117.5t117.5 -187.5t42 -250q0 -160 -54 -318.5t-157.5 -284.5t-253.5 -204t-340 -78q-125 0 -229.5 41t-180 118t-117.5 187.5t-42 249.5zM580 592q0 -156 64.5 -251t209.5 -95 q66 0 125 23.5t109.5 65.5t90.5 100.5t68 127.5q-37 -14 -69.5 -19t-63.5 -5q-66 0 -115 14t-91 32.5t-82 33t-89 14.5q-35 0 -72.5 -9.5t-84.5 -31.5zM616 817q51 29 98.5 40t88.5 11q66 0 115 -14t91 -32.5t81.5 -33t89.5 -14.5q53 0 118 23v34q0 154 -64.5 250.5 t-209.5 96.5q-70 0 -133.5 -28t-115.5 -76t-93 -114.5t-66 -142.5z" />
<glyph unicode="&#x473;" horiz-adv-x="1175" d="M205 416q0 123 40 245.5t117.5 221t190.5 161t258 62.5q106 0 187 -33t133.5 -92t79 -140t26.5 -179q0 -123 -39 -246t-114.5 -221.5t-189 -161t-263.5 -62.5q-109 0 -189 33t-132 92.5t-78.5 140t-26.5 179.5zM508 446q0 -102 32.5 -159.5t118.5 -57.5q88 0 148.5 63.5 t91.5 151.5q-29 -10 -51.5 -14t-38.5 -4q-35 0 -66.5 14.5t-61.5 30.5t-57.5 30.5t-52.5 14.5q-33 0 -61 -10q-2 -16 -2 -30.5v-29.5zM545 643q49 20 90 21q35 0 66.5 -14.5t61.5 -31t57.5 -31t51.5 -14.5q25 0 60 13q0 10 1 22.5t1 22.5q0 102 -33 159.5t-119 57.5 t-145 -60.5t-92 -144.5z" />
<glyph unicode="&#x474;" horiz-adv-x="1576" d="M328 1419h342q6 -117 16 -244.5t24.5 -261t32 -269.5t37.5 -267l416 770q86 160 188.5 226.5t231.5 66.5q53 0 97 -13.5t78 -32t57.5 -41t35.5 -40.5l-160 -195q-45 49 -112 49q-35 0 -67 -18.5t-60 -65.5l-637 -1083h-299q-33 174 -65.5 360.5t-62.5 370.5t-54.5 359.5 t-38.5 328.5z" />
<glyph unicode="&#x475;" horiz-adv-x="1206" d="M225 1077h316q2 -80 6 -175t10 -191.5t14.5 -187.5t18.5 -165l291 496q80 135 163.5 187.5t182.5 52.5q72 0 118 -17.5t87 -44.5l-107 -203q-49 27 -86 27q-74 0 -129 -90l-475 -766h-254q-53 205 -96 479.5t-60 597.5z" />
<glyph unicode="&#x48a;" horiz-adv-x="1589" d="M154 0l340 1419h317l-203 -837q100 111 203.5 225.5t206 223t203 207.5t192.5 181h260l-276 -1149h215q-33 -197 -124 -356.5t-278 -300.5l-170 143q47 43 98.5 100.5t86.5 143.5h-209l223 930q-117 -123 -223.5 -239t-205.5 -228.5t-195.5 -227t-194.5 -235.5h-266z M803 1845l215 53q2 -78 37 -109.5t86 -31.5q53 0 95 29t79 110l192 -65q-49 -143 -151.5 -211t-249.5 -68q-63 0 -117.5 19.5t-94.5 57.5t-64.5 92.5t-26.5 123.5z" />
<glyph unicode="&#x48b;" horiz-adv-x="1251" d="M206 303q-3 94 21 193l140 581h305l-137 -577q-10 -45 -17.5 -92.5t-1.5 -87t31.5 -65.5t81.5 -26q47 0 87 17.5t85 60.5q4 51 13 107.5t20 103.5l133 559h305l-135 -573l-23 -96q-12 -49 -13 -90.5t13 -72t50 -52t98 -29.5q-37 -147 -115 -270t-227 -234l-170 143 q33 27 59.5 49.5t47 47t38.5 53.5t37 65q-23 12 -43.5 28.5t-34.5 47.5q-59 -51 -136 -85t-165 -34q-121 0 -195.5 44t-111.5 117t-40 167zM541 1518l215 53q2 -78 36.5 -109.5t86.5 -31.5q53 0 95 28.5t79 110.5l192 -66q-49 -143 -151.5 -210.5t-249.5 -67.5 q-63 0 -117.5 19.5t-94.5 57t-64.5 92t-26.5 124.5z" />
<glyph unicode="&#x48c;" horiz-adv-x="1320" d="M174 33l248 1028h-166l53 225h166l33 133h321l-32 -133h219l-53 -225h-222l-34 -146h100q147 0 249.5 -25.5t165 -76.5t91 -125t28.5 -170q0 -154 -64.5 -256t-170 -163.5t-239.5 -87t-271 -25.5q-109 0 -220.5 12t-201.5 35zM551 262q27 -4 58.5 -6t66.5 -2 q102 0 167.5 20.5t102.5 54t51.5 74.5t14.5 84q0 35 -12.5 66t-41 52.5t-79 33.5t-123.5 12h-113z" />
<glyph unicode="&#x48d;" horiz-adv-x="1091" d="M154 33l184 774h-125l45 190h127l29 121h305l-29 -121h293l-45 -190h-295l-31 -133q88 16 164 16q182 0 279.5 -74.5t97.5 -228.5q0 -86 -35 -160.5t-105.5 -130t-178 -87.5t-254.5 -32q-199 0 -426 56zM504 221q29 -4 59.5 -6t61.5 -2q119 0 179 41t60 113 q0 114 -174 114q-35 0 -70.5 -4t-58.5 -10z" />
<glyph unicode="&#x48e;" horiz-adv-x="1349" d="M154 0l333 1399q111 20 220.5 28.5t197.5 8.5q129 0 232.5 -28t175 -80t110.5 -128t39 -170q0 -184 -82 -299t-223 -176l76 -195l-223 -84l-84 216q-57 -8 -116.5 -12.5t-123.5 -4.5h-100l-115 -475h-317zM651 743h101h39.5t37.5 2l-67 177l223 84l72 -187q78 61 78 178 q0 92 -66.5 131t-189.5 39q-35 0 -70 -2t-59 -4z" />
<glyph unicode="&#x48f;" horiz-adv-x="1208" d="M51 -379l340 1417q82 25 194.5 44.5t235.5 19.5q115 0 200 -35t140.5 -95.5t82 -141t26.5 -173.5q0 -190 -80 -337.5t-215 -235.5l86 -236l-201 -77l-84 229q-41 -10 -85 -15t-91 -5q-35 0 -77 3t-77 9l-92 -371h-303zM502 238q23 -4 50.5 -6.5t49.5 -2.5q51 0 86 9 l-65 182l200 78l51 -144q43 53 68 124t25 157q0 88 -44 149.5t-141 61.5q-33 0 -70.5 -3t-66.5 -9z" />
<glyph unicode="&#x490;" horiz-adv-x="1169" d="M154 0l340 1419h620l66 271h307l-131 -541h-608l-277 -1149h-317z" />
<glyph unicode="&#x491;" horiz-adv-x="940" d="M143 0l258 1077h463l62 254h260l-123 -504h-418l-199 -827h-303z" />
<glyph unicode="&#x492;" horiz-adv-x="1218" d="M174 600l53 225h166l144 594h927l-65 -270h-608l-78 -324h303l-53 -225h-304l-145 -600h-319l145 600h-166z" />
<glyph unicode="&#x493;" horiz-adv-x="987" d="M164 256q0 125 61.5 197.5t147.5 113.5l-99 47l86 146l236 -111q78 27 132 57.5t54 88.5q0 29 -25.5 47t-101.5 18q-78 0 -135 -14.5t-117 -32.5l-10 238q59 20 152.5 37.5t191.5 17.5q170 0 261.5 -67.5t91.5 -184.5q0 -131 -54.5 -211t-132.5 -127l107 -49l-86 -145 l-226 104q-47 -16 -90 -29.5t-75.5 -30t-51 -37t-18.5 -46.5q0 -37 30.5 -50.5t108.5 -13.5q80 0 156 17.5t162 48.5l12 -248q-41 -16 -142.5 -41t-244.5 -25q-98 0 -170 23.5t-119 62.5t-69.5 91.5t-22.5 107.5z" />
<glyph unicode="&#x494;" horiz-adv-x="1372" d="M154 0l340 1419h919l-65 -270h-600l-62 -254q96 20 186 20q240 0 349.5 -123.5t109.5 -367.5q0 -170 -49 -316.5t-143.5 -255t-228.5 -170t-304 -61.5q-41 0 -82 3t-82 11l64 238q23 -4 43 -6t41 -2q100 0 180 41t136.5 110.5t86 162.5t29.5 196q0 80 -20.5 133t-56.5 84 t-86 44t-109 13q-29 0 -61 -3t-64 -7l-152 -639h-319z" />
<glyph unicode="&#x495;" horiz-adv-x="1134" d="M143 0l258 1077h734l-60 -250h-428l-43 -174q41 8 79 12.5t75 4.5q100 0 171.5 -33t118 -89t67 -131t20.5 -157q0 -111 -32 -224.5t-102.5 -206.5t-183 -151.5t-274.5 -58.5q-76 0 -144 21l64 215q39 -6 74 -7q86 0 146 32t98 86t54.5 126t16.5 152q0 55 -15.5 91 t-42 58.5t-61.5 31.5t-74 9q-55 0 -110 -12l-100 -422h-306z" />
<glyph unicode="&#x496;" horiz-adv-x="2111" d="M61 0q86 113 177.5 222.5t183.5 208.5t185 185t186 154l-390 649h385l285 -569l137 569h312l-138 -569l580 569h383l-725 -696q82 -102 152.5 -215t130.5 -238h227l-156 -649h-307l92 379h-106q-39 102 -75 185t-73 157t-80 144.5t-94 148.5l-153 -635h-312l154 635 q-96 -86 -173 -160t-147.5 -147.5t-140 -153.5t-147.5 -174h-353z" />
<glyph unicode="&#x497;" horiz-adv-x="1951" d="M41 18l82 242q61 -31 115 -31q70 0 122 38t85.5 100.5t50 144.5t16.5 170q0 80 -26.5 123t-86.5 43q-43 0 -104 -25l-16 236q113 47 202 47q129 0 206 -97.5t77 -295.5v-29.5t-2 -28.5h180l100 422h289l-100 -422h155q57 213 186.5 332t293.5 119q66 0 110.5 -12.5 t98.5 -38.5l-82 -238q-61 31 -115 31q-70 0 -122 -43t-86 -108.5t-50 -146.5t-16 -155q0 -100 38.5 -134t116.5 -34q41 0 93.5 6.5t113.5 16.5l-131 -547h-260l76 289h-9q-131 0 -210.5 87t-79.5 286v30.5t2 30.5h-178l-103 -426h-287l101 426h-156q-51 -215 -176 -335 t-305 -120q-66 0 -111 10.5t-98 36.5z" />
<glyph unicode="&#x498;" horiz-adv-x="1236" d="M82 86l147 250q86 -47 169 -69.5t180 -22.5q82 0 141 17.5t99 47t59.5 66.5t19.5 76q0 72 -56.5 112.5t-172.5 40.5h-230l64 262h174q55 0 109.5 10.5t99.5 34t72.5 62.5t27.5 96q0 55 -48 82t-122 27t-163 -25t-173 -72l-45 267q96 49 207 75.5t252 26.5 q117 0 197.5 -27.5t132 -73.5t74 -105.5t22.5 -123.5q0 -123 -67.5 -221t-204.5 -151q106 -55 144 -132t38 -151q0 -76 -31 -157t-98.5 -149.5t-175 -117.5t-260.5 -64q-14 -18 -25.5 -36.5t-20.5 -30.5q45 -23 68 -59.5t23 -77.5q0 -59 -23.5 -102.5t-63.5 -71t-91.5 -40 t-104.5 -12.5q-55 0 -109.5 12.5t-97.5 34.5l74 168q27 -12 60.5 -20t64.5 -8q82 0 82 49q0 23 -14.5 37t-47.5 28l-41 19q14 23 34 51.5t38 56.5q-111 8 -211 36t-176 75z" />
<glyph unicode="&#x499;" horiz-adv-x="966" d="M82 47l90 236q45 -27 121 -44.5t153 -17.5q43 0 82 6t69 21.5t47.5 39t17.5 58.5q0 53 -43.5 70.5t-102.5 17.5h-178l51 217h180q86 0 123 38t37 85q0 45 -41 61.5t-100 16.5q-37 0 -78 -5t-77 -11.5t-65.5 -13.5t-43.5 -11l-17 231q84 29 176 44.5t179 15.5 q94 0 162.5 -21.5t113.5 -57.5t67.5 -83t22.5 -98q0 -78 -51 -155t-150 -124q66 -33 101 -90t35 -125q0 -80 -31 -142.5t-82 -106.5t-118.5 -72.5t-143.5 -40.5l-51 -76q45 -23 67.5 -59.5t22.5 -77.5q0 -59 -23.5 -102.5t-63.5 -71t-91.5 -40t-104.5 -12.5 q-55 0 -109.5 12.5t-97.5 34.5l74 168q27 -12 60.5 -20t64.5 -8q82 0 82 49q0 23 -14.5 37t-47.5 28l-41 19q12 23 32 50.5t38 55.5q-86 4 -165 22.5t-138 51.5z" />
<glyph unicode="&#x49a;" horiz-adv-x="1447" d="M154 0l340 1419h319l-125 -512q160 137 301 264t264 248h379q-186 -172 -370.5 -344t-384.5 -334q90 -98 174 -213.5t159 -257.5h275l-156 -649h-307l92 379h-125q-29 70 -68.5 149.5t-88 159.5t-103.5 154t-113 131l-145 -594h-317z" />
<glyph unicode="&#x49b;" horiz-adv-x="1226" d="M143 0l258 1077h306l-95 -389q55 49 112.5 101.5t112 104.5t101.5 99l84 84h369q-115 -127 -242 -249.5t-297 -258.5q51 -63 101.5 -146t95.5 -173h192l-131 -547h-260l72 297h-109q-18 53 -46 116.5t-61.5 126t-70.5 122t-74 106.5l-115 -471h-303z" />
<glyph unicode="&#x49c;" horiz-adv-x="1622" d="M154 0l340 1419h319l-137 -563h98l74 305h199l-74 -305h2q147 141 278 281.5t267 281.5h356q-160 -174 -333 -345t-361 -345q57 -74 107 -152.5t93 -168t82 -189.5t78 -219h-338q-23 78 -52.5 167t-66 174t-78.5 159.5t-87 126.5h-2l-72 -301h-199l72 301h-96l-152 -627 h-317z" />
<glyph unicode="&#x49d;" horiz-adv-x="1370" d="M143 0l258 1077h306l-103 -424h80l59 246h158l-59 -246q113 106 212 212t193 212h348q-115 -129 -242.5 -259t-277.5 -259q43 -53 84 -121.5t78 -142.5t67.5 -149.5t53.5 -145.5h-336q-18 53 -42 117.5t-51.5 129t-60 125t-67.5 107.5h-2l-58 -241h-157l57 241h-78 l-117 -479h-303z" />
<glyph unicode="&#x49e;" horiz-adv-x="1482" d="M174 0l275 1143h-166l49 205h166l39 163h319l-39 -163h176l-49 -205h-176l-72 -301q84 66 175.5 139.5t181.5 149t174 149.5t153 139h379q-201 -201 -409.5 -377t-442.5 -350q137 -141 258 -307t226 -385h-351q-68 141 -173 291.5t-240 267.5l-133 -559h-320z" />
<glyph unicode="&#x49f;" horiz-adv-x="1206" d="M143 0l222 928h-142l35 149h143l23 92h305l-22 -92h153l-35 -149h-155l-62 -260q55 49 120 105t127.5 111.5t116.5 105.5t91 87h369q-115 -127 -261.5 -259t-324.5 -267q47 -53 98 -122t99.5 -141.5t88 -147t62.5 -140.5h-346q-23 55 -55.5 116.5t-70.5 121t-81 114 t-86 99.5l-109 -451h-303z" />
<glyph unicode="&#x4a0;" horiz-adv-x="1542" d="M297 1149l65 270h637l-125 -512q160 137 301.5 264t264.5 248h379q-186 -172 -370.5 -344t-385.5 -334q129 -141 248 -323t213 -418h-348q-29 70 -69 149.5t-88 159.5t-103.5 154t-112.5 131l-146 -594h-317l274 1149h-317z" />
<glyph unicode="&#x4a1;" horiz-adv-x="1280" d="M225 852l56 225h540l-94 -389q55 49 112.5 101.5t112 104.5t101.5 99l84 84h368q-115 -127 -241.5 -249.5t-296.5 -258.5q43 -53 87 -122.5t84 -146.5t73.5 -153.5t56.5 -146.5h-340q-18 53 -46 116.5t-62 126t-70.5 122t-73.5 106.5l-115 -471h-303l205 852h-238z" />
<glyph unicode="&#x4a2;" horiz-adv-x="1550" d="M154 0l340 1419h319l-131 -545h504l131 545h319l-276 -1149h231l-155 -649h-308l93 379h-246l145 604h-504l-145 -604h-317z" />
<glyph unicode="&#x4a3;" horiz-adv-x="1308" d="M143 0l260 1077h306l-97 -401h318l96 401h305l-201 -827h193l-131 -547h-260l72 297h-238l102 426h-317l-102 -426h-306z" />
<glyph unicode="&#x4a4;" horiz-adv-x="1683" d="M154 0l340 1419h319l-131 -545h504l129 545h665l-65 -270h-344l-277 -1149h-319l145 604h-504l-145 -604h-317z" />
<glyph unicode="&#x4a5;" horiz-adv-x="1331" d="M143 0l260 1077h306l-97 -401h318l96 401h551l-55 -225h-246l-205 -852h-305l102 426h-317l-102 -426h-306z" />
<glyph unicode="&#x4a6;" horiz-adv-x="2172" d="M154 0l340 1419h1126l-129 -536q131 33 244 32q240 0 349 -123.5t109 -367.5q0 -170 -49 -316.5t-143 -255t-228.5 -170t-304.5 -61.5q-41 0 -81.5 3t-81.5 11l63 238q23 -4 43.5 -6t40.5 -2q100 0 180 41t136.5 110.5t86 162.5t29.5 196q0 80 -20.5 133t-56 84t-86 44 t-109.5 13q-88 0 -182 -18l-152 -631h-320l277 1149h-487l-277 -1149h-317z" />
<glyph unicode="&#x4a7;" horiz-adv-x="1744" d="M143 0l248 1028q35 10 77 23.5t94 24.5t116.5 18.5t146.5 7.5q221 0 316.5 -120t60.5 -333q82 20 166 21q100 0 172 -33t118 -89t66.5 -131t20.5 -157q0 -111 -32 -224.5t-102.5 -206.5t-183 -151.5t-274.5 -58.5q-76 0 -143 21l63 215q39 -6 74 -7q86 0 146.5 32 t98.5 86t54 126t16 152q0 55 -15 91t-42 58.5t-61.5 31.5t-73.5 9q-31 0 -61.5 -4t-59.5 -10l-100 -420h-306l136 569q12 53 19 103.5t-1 88.5t-38 61.5t-91 23.5q-59 0 -121 -12l-198 -834h-306z" />
<glyph unicode="&#x4a8;" horiz-adv-x="1587" d="M236 590q0 197 64.5 356.5t181 272t279.5 174t359 61.5q180 0 365 -63l-115 -248q-66 23 -128 32t-122 9q-117 0 -218 -41t-176 -123t-118 -202t-43 -279q0 -96 29 -175t123 -118v57q0 176 41 310.5t115.5 225.5t180 137t234.5 46q98 0 170 -27.5t120 -78t71.5 -119 t23.5 -148.5q0 -96 -34.5 -198.5t-107.5 -192.5t-185.5 -160.5t-268.5 -103.5q41 -59 118 -93t218 -38l-92 -242q-117 4 -207 32t-157.5 75t-113.5 109.5t-75 137.5q-119 12 -216 57.5t-168 123t-109.5 186.5t-38.5 248zM1022 229q98 18 166.5 59.5t110.5 93.5t61.5 109.5 t19.5 108.5q0 63 -30.5 105.5t-89.5 42.5q-57 0 -101.5 -37t-75 -101.5t-46 -152.5t-15.5 -189v-39z" />
<glyph unicode="&#x4a9;" horiz-adv-x="1273" d="M205 442q0 154 51 277t141 209t212 132t265 46q55 0 123 -10.5t105 -24.5l-101 -231q-23 8 -60.5 15t-80.5 7q-80 0 -149.5 -31.5t-121.5 -90t-83 -140.5t-31 -180q0 -100 28.5 -153.5t90.5 -73.5v20q0 141 37 242.5t97 168t136 97.5t154 31q150 0 223.5 -74t73.5 -191 q0 -80 -26.5 -157.5t-80 -145t-132.5 -118t-185 -74.5q41 -39 108.5 -59.5t171.5 -30.5l-84 -209q-166 10 -282.5 79.5t-169.5 202.5q-96 8 -175 43t-135.5 94.5t-88 142.5t-31.5 187zM821 186q63 12 113.5 41t84.5 64t51 72.5t17 72.5q0 43 -19 68.5t-69 25.5 q-33 0 -64.5 -17t-57 -56t-41 -101.5t-15.5 -150.5v-19z" />
<glyph unicode="&#x4aa;" horiz-adv-x="1306" d="M252 573q0 160 56.5 318t166 281.5t268 201.5t365.5 78q98 0 193.5 -22.5t199.5 -79.5l-115 -248q-86 45 -153.5 61.5t-145.5 16.5q-117 0 -210 -47.5t-159.5 -128t-101 -187t-34.5 -225.5q0 -180 78.5 -262t226.5 -82q98 0 181 20.5t155 53.5l34 -261 q-84 -41 -183 -64.5t-245 -25.5q-12 -16 -22 -32.5t-19 -28.5q45 -23 68 -59.5t23 -77.5q0 -59 -24 -102.5t-63.5 -71t-91 -40t-104.5 -12.5q-55 0 -109.5 12.5t-97.5 34.5l74 168q27 -12 60.5 -20t64.5 -8q82 0 82 49q0 23 -14.5 37t-47.5 28l-41 19l84 125 q-186 47 -292.5 199.5t-106.5 381.5z" />
<glyph unicode="&#x4ab;" horiz-adv-x="983" d="M205 430q0 139 45 262t129 215t203.5 145.5t267.5 53.5q92 0 164.5 -17.5t132.5 -46.5l-105 -237q-41 16 -85 29.5t-107 13.5q-154 0 -242 -103.5t-88 -281.5q0 -104 45 -169t166 -65q59 0 114.5 12.5t98.5 30.5l23 -243q-53 -20 -117 -37t-150 -21q-12 -16 -22 -32.5 t-19 -28.5q45 -23 68 -59.5t23 -77.5q0 -59 -24 -102.5t-63.5 -71t-91 -40t-104.5 -12.5q-55 0 -109.5 12.5t-97.5 34.5l74 168q27 -12 60.5 -20t64.5 -8q82 0 82 49q0 23 -14.5 37t-47.5 28l-41 19l82 123q-84 20 -143.5 62t-98 100.5t-56 129t-17.5 148.5z" />
<glyph unicode="&#x4ac;" horiz-adv-x="1216" d="M297 1151l65 268h1151l-65 -268h-416l-213 -881h262l-155 -649h-308l93 379h-275l277 1151h-416z" />
<glyph unicode="&#x4ad;" horiz-adv-x="1867" d="M143 0l248 1028q35 10 75 23.5t90 24.5t112.5 18.5t144.5 7.5q96 0 161.5 -24.5t119.5 -73.5q76 43 150.5 70.5t174.5 27.5q96 0 165 -25.5t114 -74t65.5 -115t20.5 -146.5q0 -37 -5 -77.5t-16 -81.5l-80 -332h199l-131 -547h-260l72 297h-244l135 569q6 29 13.5 65 t7.5 71q0 57 -27 99t-105 42q-43 0 -81.5 -15.5t-69.5 -31.5q4 -16 4 -30.5v-27.5q0 -37 -5 -77.5t-15 -81.5l-140 -582h-305l135 569q6 29 13.5 65t7.5 71q0 57 -26.5 99t-104.5 42q-33 0 -55.5 -3t-53.5 -9l-198 -834h-306z" />
<glyph unicode="&#x4ae;" horiz-adv-x="1335" d="M348 1419h340q33 -147 72 -288t86 -295q59 76 113.5 146.5t105.5 141t101.5 143t103.5 152.5h352q-86 -121 -166 -229.5t-159.5 -212t-163.5 -205.5t-179 -211l-135 -561h-319l135 561q-86 217 -155.5 424t-131.5 434z" />
<glyph unicode="&#x4af;" horiz-adv-x="1060" d="M266 1077h326q-4 -57 -4 -157.5t5 -210t14 -206.5t22 -149q31 43 68.5 105.5t80.5 150.5t92.5 204t100.5 263h325q-78 -201 -160.5 -360.5t-160.5 -282.5t-145.5 -212t-116.5 -146l-109 -455h-305l111 463q-53 215 -92 458.5t-52 534.5z" />
<glyph unicode="&#x4b0;" horiz-adv-x="1294" d="M311 360l47 226h246q-84 209 -150.5 410.5t-125.5 422.5h340q33 -147 71.5 -289t85.5 -294q59 76 113.5 146.5t106 141t101.5 143t103 152.5h353q-84 -119 -161 -224t-155 -205.5t-158.5 -200t-173.5 -203.5h242l-47 -226h-264l-86 -360h-320l86 360h-254z" />
<glyph unicode="&#x4b1;" horiz-adv-x="1060" d="M156 0l47 190h176q-23 86 -41.5 188.5t-33.5 216.5t-26.5 236.5t-17.5 245.5h326q-6 -55 -5 -158.5t7 -217t17 -215t24 -152.5q63 98 150 276t192 467h325q-125 -322 -254 -538.5t-233 -348.5h178l-47 -190h-246l-90 -379h-305l90 379h-233z" />
<glyph unicode="&#x4b2;" horiz-adv-x="1478" d="M31 0l645 772l-289 647h352l170 -438q92 111 178.5 224.5t157.5 213.5h350q-59 -84 -125.5 -173t-137 -177t-142.5 -174t-139 -162q57 -127 104 -236.5t90 -226.5h221l-155 -649h-307l92 379h-99q-29 88 -51 155.5t-44.5 126t-45 110.5t-49.5 110l-412 -502h-364z" />
<glyph unicode="&#x4b3;" horiz-adv-x="1202" d="M20 0l490 549l-264 528h309l156 -336q137 168 252 336h305q-86 -123 -189.5 -255t-236.5 -275q84 -160 145 -297h230l-132 -547h-260l72 297h-115q-74 199 -145 340l-297 -340h-320z" />
<glyph unicode="&#x4b4;" horiz-adv-x="1828" d="M297 1151l65 268h961l-66 -268h-315l-211 -881h520l277 1149h319l-276 -1149h246l-156 -649h-307l92 379h-1098l275 1151h-326z" />
<glyph unicode="&#x4b5;" horiz-adv-x="1404" d="M225 825l62 252h727l-62 -252h-196l-78 -325q-8 -31 -14.5 -65t-6.5 -66q0 -29 5.5 -54.5t20.5 -44t43 -30t71 -11.5q53 0 100 17.5t98 60.5q4 51 13.5 107.5t19.5 103.5l133 559h305l-145 -612q-4 -16 -9 -37.5t-10.5 -46.5t-8.5 -48.5t-3 -39.5q0 -53 30 -85t107 -44 l-120 -471h-260l79 325q-29 12 -48 33t-29 43q-72 -53 -152 -86t-176 -33q-100 0 -171 28t-116 75t-65.5 110.5t-20.5 137.5q0 80 23 170l78 329h-224z" />
<glyph unicode="&#x4b6;" horiz-adv-x="1495" d="M307 831q0 80 25 183l98 405h320l-101 -418q-16 -72 -16 -116q0 -49 16.5 -82t45 -52.5t64.5 -27.5t77 -8q53 0 105 10t93 20l162 674h320l-277 -1149h244l-156 -649h-307l92 379h-258l115 475q-111 -31 -226 -31q-86 0 -165.5 21.5t-139 68t-95.5 120t-36 177.5z" />
<glyph unicode="&#x4b7;" horiz-adv-x="1222" d="M244 643q0 61 18 141l70 293h305l-84 -348q-6 -25 -6 -43q0 -33 14 -52.5t37 -28.5t51.5 -12t57.5 -3q61 0 112 10l115 477h305l-201 -827h199l-131 -547h-260l72 297h-244l86 354q-41 -6 -79 -10t-75 -4q-78 0 -144.5 16.5t-114.5 53t-75.5 94t-27.5 139.5z" />
<glyph unicode="&#x4b8;" horiz-adv-x="1382" d="M307 831q0 80 25 183l98 405h320l-101 -418q-16 -72 -16 -116q0 -61 26.5 -98t67.5 -54l57 236h199l-61 -250q37 4 70.5 11t62.5 15l162 674h319l-342 -1419h-320l115 475q-33 -10 -65.5 -16t-65.5 -10l-55 -230h-199l55 232q-74 10 -138 36.5t-111.5 72.5t-75 113.5 t-27.5 157.5z" />
<glyph unicode="&#x4b9;" horiz-adv-x="1146" d="M244 643q0 61 18 141l70 293h305l-84 -348q-6 -25 -6 -43q0 -35 16.5 -54.5t44.5 -29.5l35 143h158l-37 -155q20 2 39.5 4t36.5 6l114 477h306l-261 -1077h-305l86 354q-20 -4 -38.5 -6t-36.5 -4l-41 -174h-158l41 172q-135 14 -219 85t-84 216z" />
<glyph unicode="&#x4ba;" horiz-adv-x="1335" d="M154 0l342 1419h319l-117 -477q53 12 111.5 19.5t118.5 7.5q197 0 312.5 -90.5t115.5 -264.5q0 -66 -19 -141l-114 -473h-320l117 485q4 23 7 42.5t3 35.5q0 84 -58.5 109.5t-158.5 25.5q-47 0 -94 -6t-84 -16l-162 -676h-319z" />
<glyph unicode="&#x4bb;" horiz-adv-x="1157" d="M143 0l369 1540l317 49l-124 -514q41 8 82.5 14.5t82.5 6.5q88 0 151.5 -26t104.5 -72t61.5 -109.5t20.5 -136.5q0 -86 -20 -170l-139 -582h-306l136 569q8 35 15 74t7 74q0 53 -27.5 91t-105.5 38q-33 0 -62.5 -4t-58.5 -11l-198 -831h-306z" />
<glyph unicode="&#x4bc;" horiz-adv-x="1808" d="M251 961.5q15 82.5 62 179.5l236 -33q-53 -113 -27.5 -161t107.5 -64q45 145 123.5 251.5t180 177t217.5 104.5t236 34q131 0 230.5 -36t164 -101.5t97.5 -156.5t33 -202q0 -158 -66 -344h-946v-20q0 -96 25.5 -163t70.5 -106.5t106.5 -57t131.5 -17.5q94 0 196.5 25.5 t196.5 66.5l23 -250q-98 -59 -216 -89t-241 -30q-162 0 -277.5 46t-189.5 124t-108.5 180.5t-34.5 217.5v49t2 47q-139 20 -216 66t-104.5 113t-12.5 149.5zM950 872h643q4 16 8.5 42t4.5 63q0 92 -60.5 147.5t-185.5 55.5q-78 0 -141.5 -23.5t-114.5 -64.5t-89 -97.5 t-65 -122.5z" />
<glyph unicode="&#x4bd;" horiz-adv-x="1351" d="M184 688q0 78 43 174l215 -28q-27 -66 -26 -113q0 -45 21.5 -74t56.5 -43q27 102 82 193.5t135 160t182 108.5t223 40q72 0 133.5 -20.5t107.5 -59.5t71.5 -95.5t25.5 -127.5q0 -115 -51 -195t-142.5 -130t-216 -72.5t-272.5 -22.5q14 -84 63.5 -121t151.5 -37 q66 0 133.5 11.5t126.5 33.5l23 -239q-57 -23 -146.5 -41.5t-193.5 -18.5q-123 0 -208 33t-140.5 91.5t-82 135t-28.5 166.5q-139 29 -213 105t-74 186zM780 592q127 4 205 21.5t121 42t57.5 54t14.5 56.5q0 47 -29 72.5t-82 25.5q-104 0 -183 -74.5t-104 -197.5z" />
<glyph unicode="&#x4be;" horiz-adv-x="1808" d="M251 961.5q15 82.5 62 179.5l236 -33q-53 -113 -27.5 -161t107.5 -64q45 145 123.5 251.5t180 177t217.5 104.5t236 34q131 0 230.5 -36t164 -101.5t97.5 -156.5t33 -202q0 -158 -66 -344h-946v-20q0 -96 25.5 -163t70.5 -106.5t106.5 -57t131.5 -17.5q94 0 196.5 25.5 t196.5 66.5l23 -250q-96 -57 -209 -86t-230 -33l-82 -348h-307l92 393q-86 33 -149.5 87.5t-103 123t-59 147.5t-19.5 165v49t2 47q-139 20 -216 66t-104.5 113t-12.5 149.5zM950 872h643q4 16 8.5 42t4.5 63q0 92 -60.5 147.5t-185.5 55.5q-78 0 -141.5 -23.5t-114.5 -64.5 t-89 -97.5t-65 -122.5z" />
<glyph unicode="&#x4bf;" horiz-adv-x="1351" d="M184 688q0 78 43 174l215 -28q-27 -66 -26 -113q0 -45 21.5 -74t56.5 -43q27 102 82 193.5t135 160t182 108.5t223 40q72 0 133.5 -20.5t107.5 -59.5t71.5 -95.5t25.5 -127.5q0 -115 -51 -195t-142.5 -130t-216 -72.5t-272.5 -22.5q14 -84 63.5 -121t151.5 -37 q66 0 133.5 11.5t126.5 33.5l23 -239q-47 -18 -119 -34.5t-158 -23.5l-63 -280h-260l69 305q-139 45 -201.5 152.5t-66.5 246.5q-139 29 -213 105t-74 186zM780 592q127 4 205 21.5t121 42t57.5 54t14.5 56.5q0 47 -29 72.5t-82 25.5q-104 0 -183 -74.5t-104 -197.5z" />
<glyph unicode="&#x4c0;" horiz-adv-x="638" d="M154 0l340 1419h319l-342 -1419h-317z" />
<glyph unicode="&#x4c1;" horiz-adv-x="2070" d="M61 0q86 113 177.5 222.5t183.5 208.5t185 185t186 154l-390 649h385l285 -569l137 569h312l-138 -569l580 569h383l-725 -696q125 -154 223.5 -333t165.5 -390h-356q-39 102 -75 185t-73 157t-80 144.5t-94 148.5l-153 -635h-312l154 635q-96 -86 -173 -160 t-147.5 -147.5t-140 -153.5t-147.5 -174h-353zM1085 1831l215 53q2 -78 37 -109.5t86 -31.5q53 0 95 28.5t79 110.5l193 -66q-49 -143 -152 -210.5t-250 -67.5q-63 0 -117.5 19.5t-94.5 57t-64.5 92t-26.5 124.5z" />
<glyph unicode="&#x4c2;" horiz-adv-x="1910" d="M41 18l82 242q61 -31 115 -31q70 0 122 38t85.5 100.5t50 144.5t16.5 170q0 80 -26.5 123t-86.5 43q-43 0 -104 -25l-16 236q113 47 202 47q129 0 206 -97.5t77 -295.5v-29.5t-2 -28.5h180l100 422h289l-100 -422h155q57 213 186.5 332t293.5 119q66 0 110.5 -12.5 t98.5 -38.5l-82 -238q-61 31 -115 31q-70 0 -122 -43t-86 -108.5t-50 -146.5t-16 -155q0 -92 34.5 -129t90.5 -37q33 0 69.5 8.5t77.5 20.5l14 -240q-59 -25 -113.5 -36t-103.5 -11q-143 0 -232 97.5t-89 296.5v30.5t2 30.5h-178l-103 -426h-287l101 426h-156 q-51 -215 -176 -335t-305 -120q-66 0 -111 10.5t-98 36.5zM915 1518l215 53q2 -78 37 -109.5t86 -31.5q53 0 95 28.5t79 110.5l193 -66q-49 -143 -152 -210.5t-250 -67.5q-63 0 -117.5 19.5t-94.5 57t-64.5 92t-26.5 124.5z" />
<glyph unicode="&#x4c3;" horiz-adv-x="1386" d="M154 0l340 1419h319l-139 -575q80 68 156.5 144.5t150.5 152.5t142.5 147.5t129.5 130.5h379q-158 -160 -307 -302t-309 -283q152 -39 235.5 -147.5t83.5 -295.5q0 -164 -49 -304t-143 -243.5t-228.5 -163t-304.5 -59.5q-41 0 -82 3t-82 11l64 238q23 -4 43 -6t41 -2 q100 0 180 39t136.5 104.5t86 151.5t29.5 182q0 74 -24.5 124t-64.5 78.5t-88 41t-95 12.5q-66 0 -140 -12l-143 -586h-317z" />
<glyph unicode="&#x4c4;" horiz-adv-x="1185" d="M143 0l258 1077h306l-95 -389q55 49 112.5 101.5t112 104.5t101.5 99l84 84h369q-100 -113 -210 -220t-251 -224q117 -53 171 -158.5t54 -228.5q0 -104 -31.5 -216t-102.5 -203t-183.5 -149.5t-274.5 -58.5q-76 0 -143 21l63 215q39 -6 74 -7q86 0 146.5 32t98.5 85 t54 122t16 142q0 98 -61 162t-164 64q-23 0 -46 -2t-46 -7l-109 -446h-303z" />
<glyph unicode="&#x4c5;" horiz-adv-x="1558" d="M82 250q102 8 179 58t135.5 132t102.5 191.5t80.5 236.5t68.5 267.5t67 283.5h927l-276 -1149h186q-33 -197 -124 -356.5t-277 -300.5l-170 143q47 43 98 100.5t86 143.5h-182l277 1149h-308q-68 -285 -134 -500t-157.5 -361.5t-221.5 -225t-326 -91.5z" />
<glyph unicode="&#x4c6;" horiz-adv-x="1312" d="M102 -18v254q92 4 154.5 42.5t103.5 104.5q57 90 87 215t59 258l47 221h809l-201 -827h158q-29 -199 -117 -339t-239 -251l-170 143q63 49 100 90t72 107h-168l198 827h-209q-57 -215 -108 -370.5t-123 -259t-178.5 -155.5t-274.5 -60z" />
<glyph unicode="&#x4c7;" horiz-adv-x="1462" d="M154 0l340 1419h319l-131 -545h504l131 545h319l-323 -1339q-31 -125 -72 -213t-100.5 -143.5t-138 -81t-185.5 -25.5q-51 0 -94 8t-96 25l98 248q29 -8 54.5 -13.5t47.5 -5.5q68 0 107 54.5t72 191.5l114 479h-504l-145 -604h-317z" />
<glyph unicode="&#x4c8;" horiz-adv-x="1200" d="M143 0l258 1077h306l-97 -401h312l96 401h305l-252 -1050q-31 -125 -70.5 -205t-91 -125t-113 -62.5t-132.5 -17.5q-53 0 -102.5 9t-88.5 22l80 246q20 -6 37.5 -10.5t34.5 -4.5q70 0 98.5 43t44.5 113l94 391h-311l-102 -426h-306z" />
<glyph unicode="&#x4c9;" horiz-adv-x="1540" d="M154 0l340 1419h319l-131 -545h504l131 545h319l-276 -1149h174q-33 -197 -124 -356.5t-277 -300.5l-170 143q47 43 98 100.5t86 143.5h-172l145 604h-504l-145 -604h-317z" />
<glyph unicode="&#x4ca;" horiz-adv-x="1259" d="M143 0l260 1077h306l-97 -401h318l96 401h305l-201 -827h158q-29 -199 -117 -339t-239 -251l-170 143q63 49 100 90t72 107h-168l102 426h-317l-102 -426h-306z" />
<glyph unicode="&#x4cb;" horiz-adv-x="1361" d="M307 831q0 80 25 183l98 405h320l-101 -418q-16 -72 -16 -116q0 -49 16.5 -82t45 -52.5t64.5 -27.5t77 -8q53 0 105 10t93 20l162 674h320l-342 -1419h-261l-92 -379h-307l141 588h248l66 266q-111 -31 -226 -31q-86 0 -165.5 21.5t-139 68t-95.5 120t-36 177.5z" />
<glyph unicode="&#x4cc;" horiz-adv-x="1116" d="M244 690q0 61 18 141l60 246h305l-74 -301q-6 -25 -6 -43q0 -33 14 -52t37 -28.5t51.5 -12.5t57.5 -3q61 0 112 10l105 430h305l-260 -1077h-244l-72 -297h-260l129 537h199l39 161q-41 -6 -79 -10t-75 -4q-78 0 -144.5 16.5t-114.5 53.5t-75.5 94t-27.5 139z" />
<glyph unicode="&#x4cd;" horiz-adv-x="1902" d="M113 0q47 168 103 358.5t116.5 380t120 364.5t112.5 316h287q12 -55 31.5 -156.5t41 -222t44 -249.5t41.5 -236q70 106 150.5 230t160.5 243t152.5 221.5t123.5 169.5h283q-12 -115 -29.5 -252t-40 -286.5t-48 -305t-52.5 -305.5h186q-33 -197 -124 -356.5t-277 -300.5 l-170 143q47 43 98.5 100.5t85.5 143.5h-159q43 207 91 450.5t89 491.5q-53 -84 -118.5 -187.5t-131.5 -208t-127 -201.5t-106 -165h-234q-10 61 -24.5 155.5t-32 200t-36 213t-34.5 193.5q-80 -248 -144.5 -491.5t-119.5 -450.5h-309z" />
<glyph unicode="&#x4ce;" horiz-adv-x="1562" d="M102 0q31 115 74 256t89 286.5t93.5 285t87.5 249.5h252q18 -78 34 -149.5t29 -147t28.5 -158.5t33.5 -184q68 106 126.5 195.5t111.5 166.5t102 145.5t97 131.5h251q-16 -180 -37.5 -392t-62.5 -435h158q-29 -199 -117 -339t-240 -251l-170 143q63 49 100.5 90t71.5 107 h-155q18 74 37.5 153.5t39 161.5t38 163t32.5 155l-340 -506h-202l-97 514q-23 -72 -46 -153.5t-46.5 -166.5t-46 -168t-41.5 -153h-285z" />
<glyph unicode="&#x4cf;" horiz-adv-x="593" d="M143 0l340 1419h305l-342 -1419h-303z" />
<glyph unicode="&#x4d0;" horiz-adv-x="1462" d="M31 0q133 229 248.5 423.5t223 367t210 327t209.5 301.5h284q33 -147 62.5 -326.5t55.5 -366.5t47.5 -374.5t39.5 -351.5h-321q-4 80 -9.5 156.5t-11.5 152.5h-532q-41 -76 -86 -152.5t-86 -156.5h-334zM666 559h383q-10 125 -22 266.5t-32 282.5q-86 -137 -169 -272.5 t-160 -276.5zM780 1831l215 53q2 -78 37 -109.5t86 -31.5q53 0 95 28.5t79 110.5l193 -66q-49 -143 -152 -210.5t-250 -67.5q-63 0 -117.5 19.5t-94.5 57t-64.5 92t-26.5 124.5z" />
<glyph unicode="&#x4d1;" horiz-adv-x="1204" d="M205 418q0 141 50 266t139 218t210 146.5t262 53.5q18 0 64.5 -2t106 -9.5t125 -23.5t124.5 -45l-133 -557q-29 -117 -16.5 -234.5t47.5 -210.5l-273 -38q-12 25 -22 47t-21 51q-57 -47 -126.5 -78t-155.5 -31q-102 0 -175 36t-119 96.5t-66.5 141.5t-20.5 173zM508 440 q0 -98 32.5 -155.5t121.5 -57.5q47 0 84.5 18.5t80.5 61.5q4 51 13.5 107.5t19.5 103.5l80 324q-27 4 -48.5 6t-51.5 2q-70 0 -130.5 -35t-105.5 -91t-70.5 -130t-25.5 -154zM647 1518l215 53q2 -78 37 -109.5t86 -31.5q53 0 95 28.5t79 110.5l193 -66q-49 -143 -152 -210.5 t-250 -67.5q-63 0 -117.5 19.5t-94.5 57t-64.5 92t-26.5 124.5z" />
<glyph unicode="&#x4d2;" horiz-adv-x="1462" d="M31 0q133 229 248.5 423.5t223 367t210 327t209.5 301.5h284q33 -147 62.5 -326.5t55.5 -366.5t47.5 -374.5t39.5 -351.5h-321q-4 80 -9.5 156.5t-11.5 152.5h-532q-41 -76 -86 -152.5t-86 -156.5h-334zM666 559h383q-10 125 -22 266.5t-32 282.5q-86 -137 -169 -272.5 t-160 -276.5zM747 1696q0 39 14.5 72t38 55.5t53 35.5t60.5 13q57 0 98 -38t41 -101q0 -37 -15 -68.5t-40 -55.5t-54.5 -36t-58.5 -12q-59 0 -98 37t-39 98zM1202 1696q0 39 14 72t38 55.5t53.5 35.5t60.5 13q57 0 98 -38t41 -101q0 -37 -15.5 -68.5t-40 -55.5t-54 -36 t-58.5 -12q-59 0 -98 37t-39 98z" />
<glyph unicode="&#x4d3;" horiz-adv-x="1204" d="M205 418q0 141 50 266t139 218t210 146.5t262 53.5q18 0 64.5 -2t106 -9.5t125 -23.5t124.5 -45l-133 -557q-29 -117 -16.5 -234.5t47.5 -210.5l-273 -38q-12 25 -22 47t-21 51q-57 -47 -126.5 -78t-155.5 -31q-102 0 -175 36t-119 96.5t-66.5 141.5t-20.5 173zM508 440 q0 -98 32.5 -155.5t121.5 -57.5q47 0 84.5 18.5t80.5 61.5q4 51 13.5 107.5t19.5 103.5l80 324q-27 4 -48.5 6t-51.5 2q-70 0 -130.5 -35t-105.5 -91t-70.5 -130t-25.5 -154zM528 1368q0 39 14.5 72t38 55.5t53 35.5t60.5 13q57 0 98 -38t41 -101q0 -37 -15 -68.5t-40 -55.5 t-54.5 -36t-58.5 -12q-59 0 -98 37t-39 98zM983 1368q0 39 14 72t38 55.5t53.5 35.5t60.5 13q57 0 98 -38t41 -101q0 -37 -15.5 -68.5t-40 -55.5t-54 -36t-58.5 -12q-59 0 -98 37t-39 98z" />
<glyph unicode="&#x4d4;" horiz-adv-x="2000" d="M0 0q172 221 319.5 409.5t289 357.5t283.5 328.5t300 323.5h1014l-66 -268h-606l-66 -279h535l-64 -262h-534l-82 -342h653l-65 -268h-953l82 336h-458q-63 -78 -131 -168t-123 -168h-328zM770 590h330l127 528q-43 -47 -101.5 -113.5t-121 -139t-124 -145.5t-110.5 -130 z" />
<glyph unicode="&#x4d5;" horiz-adv-x="1714" d="M184 274q0 115 50.5 195t140.5 130t213 72.5t270 22.5q-14 86 -62 122t-153 36q-66 0 -133.5 -11.5t-126.5 -33.5l-23 240q72 25 158 42t172 17q117 0 217.5 -39t161.5 -139q39 43 88 76.5t102.5 56t109.5 34t110 11.5q68 0 129 -18.5t107 -56.5t74 -95t28 -133 q0 -115 -50.5 -195t-140.5 -130t-213 -72.5t-270 -22.5q14 -86 62 -122t153 -36q66 0 133.5 11.5t126.5 33.5l22 -239q-78 -27 -162.5 -43.5t-170.5 -16.5q-113 0 -211.5 38t-163.5 136q-35 -41 -83 -73.5t-102.5 -55t-111.5 -34t-113 -11.5q-68 0 -128 17.5t-107 54.5 t-75 94.5t-28 136.5zM461 311q-1 -98 110 -98q104 0 179 74.5t100 197.5q-127 -4 -204 -21.5t-118 -42t-54 -54t-13 -56.5zM1151 592q127 4 204 21.5t117.5 42t54 53t13.5 57.5q1 98 -110 98q-104 0 -179 -74.5t-100 -197.5z" />
<glyph unicode="&#x4d6;" horiz-adv-x="1216" d="M154 0l340 1419h927l-65 -262h-608l-66 -287h537l-64 -258h-537l-81 -348h655l-66 -264h-972zM676 1831l215 53q2 -78 37 -109.5t86 -31.5q53 0 95 28.5t79 110.5l193 -66q-49 -143 -152 -210.5t-250 -67.5q-63 0 -117.5 19.5t-94.5 57t-64.5 92t-26.5 124.5z" />
<glyph unicode="&#x4d7;" horiz-adv-x="1085" d="M205 422q0 131 46 254t130 218t204 153.5t265 58.5q72 0 133 -20.5t107.5 -59.5t72 -95.5t25.5 -127.5q0 -115 -51.5 -195t-142.5 -130t-216 -72.5t-272 -22.5q14 -86 62 -122t153 -36q66 0 133.5 11.5t126.5 33.5l23 -239q-57 -23 -146.5 -41.5t-193.5 -18.5 q-127 0 -214.5 36t-141.5 97.5t-78.5 143.5t-24.5 174zM514 592q127 4 205 21.5t121 42t57 53t14 57.5q1 98 -110 98q-104 0 -183 -74.5t-104 -197.5zM534 1518l215 53q2 -78 37 -109.5t86 -31.5q53 0 95 28.5t79 110.5l193 -66q-49 -143 -152 -210.5t-250 -67.5 q-63 0 -117.5 19.5t-94.5 57t-64.5 92t-26.5 124.5z" />
<glyph unicode="&#x4d8;" horiz-adv-x="1490" d="M236 467q0 154 65 344h946v20q0 96 -25.5 163t-70.5 107t-106.5 57.5t-131.5 17.5q-94 0 -196.5 -26t-196.5 -67l-22 250q98 59 215.5 89t240.5 30q162 0 278 -46t189.5 -124t108.5 -181.5t35 -215.5q0 -233 -72 -404.5t-188.5 -285t-263 -169t-296.5 -55.5 q-127 0 -222 36t-159.5 101.5t-96 156.5t-31.5 202zM541 434q0 -104 59 -148t176 -44q80 0 144.5 23.5t117 64.5t91 97t65.5 122h-639q-8 -33 -11 -61.5t-3 -53.5z" />
<glyph unicode="&#x4d9;" horiz-adv-x="1103" d="M180 264q0 115 51.5 195t142.5 130t216 72.5t272 22.5q-14 86 -62 122t-153 36q-66 0 -133.5 -11.5t-126.5 -33.5l-22 239q57 23 146 41.5t194 18.5q125 0 213 -36t142 -97.5t78.5 -143.5t24.5 -174q0 -131 -46 -254t-131 -218t-203.5 -153.5t-264.5 -58.5 q-72 0 -133 20.5t-107.5 59.5t-72 95.5t-25.5 127.5zM457 301q-1 -98 110 -98q104 0 183 74.5t104 197.5q-127 -4 -205 -21.5t-121 -42t-57 -54t-14 -56.5z" />
<glyph unicode="&#x4da;" horiz-adv-x="1501" d="M246 467q0 158 65 344h946v20q0 96 -25.5 163t-70.5 107t-106.5 57.5t-130.5 17.5q-94 0 -196.5 -26t-197.5 -67l-22 250q98 59 216 89t241 30q162 0 277.5 -46t189 -124t108.5 -181.5t35 -215.5q0 -233 -71.5 -404.5t-188.5 -285t-263.5 -169t-295.5 -55.5 q-127 0 -222.5 36t-160 101.5t-96 156.5t-31.5 202zM551 434q0 -104 59 -148t176 -44q80 0 144.5 23.5t117 64.5t91.5 97t65 122h-639q-8 -33 -11 -61.5t-3 -53.5zM688 1696q0 39 14.5 72t38 55.5t53 35.5t60.5 13q57 0 98 -38t41 -101q0 -37 -15 -68.5t-40 -55.5t-54.5 -36 t-58.5 -12q-59 0 -98 37t-39 98zM1143 1696q0 39 14 72t38 55.5t53.5 35.5t60.5 13q57 0 98 -38t41 -101q0 -37 -15.5 -68.5t-40 -55.5t-54 -36t-58.5 -12q-59 0 -98 37t-39 98z" />
<glyph unicode="&#x4db;" horiz-adv-x="1085" d="M174 274q0 115 51 195t142.5 130t216.5 72.5t272 22.5q-14 86 -62.5 122t-152.5 36q-66 0 -133.5 -11.5t-126.5 -33.5l-23 240q57 23 146.5 41t193.5 18q125 0 213 -36t142.5 -97.5t79 -143.5t24.5 -174q0 -131 -46 -253.5t-131 -218t-204 -154t-264 -58.5 q-72 0 -133.5 20.5t-107.5 59.5t-71.5 95.5t-25.5 127.5zM450 1368q0 39 14.5 72t38 55.5t53 35.5t60.5 13q57 0 98 -38t41 -101q0 -37 -15 -68.5t-40 -55.5t-54.5 -36t-58.5 -12q-59 0 -98 37t-39 98zM451 311q-1 -98 110 -98q104 0 183 74.5t104 197.5q-127 -4 -205 -21.5 t-121 -42t-57 -54t-14 -56.5zM905 1368q0 39 14 72t38 55.5t53.5 35.5t60.5 13q57 0 98 -38t41 -101q0 -37 -15.5 -68.5t-40 -55.5t-54 -36t-58.5 -12q-59 0 -98 37t-39 98z" />
<glyph unicode="&#x4dc;" horiz-adv-x="2070" d="M61 0q86 113 177.5 222.5t183.5 208.5t185 185t186 154l-390 649h385l285 -569l137 569h312l-138 -569l580 569h383l-725 -696q125 -154 223.5 -333t165.5 -390h-356q-39 102 -75 185t-73 157t-80 144.5t-94 148.5l-153 -635h-312l154 635q-96 -86 -173 -160 t-147.5 -147.5t-140 -153.5t-147.5 -174h-353zM1038 1696q0 39 14.5 72t38 55.5t53 35.5t60.5 13q57 0 98 -38t41 -101q0 -37 -15 -68.5t-40 -55.5t-54.5 -36t-58.5 -12q-59 0 -98 37t-39 98zM1493 1696q0 39 14 72t38 55.5t53.5 35.5t60.5 13q57 0 98 -38t41 -101 q0 -37 -15.5 -68.5t-40 -55.5t-54 -36t-58.5 -12q-59 0 -98 37t-39 98z" />
<glyph unicode="&#x4dd;" horiz-adv-x="1910" d="M41 18l82 242q61 -31 115 -31q70 0 122 38t85.5 100.5t50 144.5t16.5 170q0 80 -26.5 123t-86.5 43q-43 0 -104 -25l-16 236q113 47 202 47q129 0 206 -97.5t77 -295.5v-29.5t-2 -28.5h180l100 422h289l-100 -422h155q57 213 186.5 332t293.5 119q66 0 110.5 -12.5 t98.5 -38.5l-82 -238q-61 31 -115 31q-70 0 -122 -43t-86 -108.5t-50 -146.5t-16 -155q0 -92 34.5 -129t90.5 -37q33 0 69.5 8.5t77.5 20.5l14 -240q-59 -25 -113.5 -36t-103.5 -11q-143 0 -232 97.5t-89 296.5v30.5t2 30.5h-178l-103 -426h-287l101 426h-156 q-51 -215 -176 -335t-305 -120q-66 0 -111 10.5t-98 36.5zM866 1368q0 39 14.5 72t38 55.5t53 35.5t60.5 13q57 0 98 -38t41 -101q0 -37 -15 -68.5t-40 -55.5t-54.5 -36t-58.5 -12q-59 0 -98 37t-39 98zM1321 1368q0 39 14 72t38 55.5t53.5 35.5t60.5 13q57 0 98 -38 t41 -101q0 -37 -15.5 -68.5t-40 -55.5t-54 -36t-58.5 -12q-59 0 -98 37t-39 98z" />
<glyph unicode="&#x4de;" horiz-adv-x="1236" d="M82 86l147 250q86 -47 169 -69.5t180 -22.5q82 0 141 17.5t99 47t59.5 66.5t19.5 76q0 72 -56.5 112.5t-172.5 40.5h-230l64 262h174q55 0 109.5 10.5t99.5 34t72.5 62.5t27.5 96q0 55 -48 82t-122 27t-163 -25t-173 -72l-45 267q96 49 207 75.5t252 26.5 q117 0 197.5 -27.5t132 -73.5t74 -105.5t22.5 -123.5q0 -123 -67.5 -221t-204.5 -151q106 -55 144 -132t38 -151q0 -82 -37 -169t-118 -160t-209 -119t-312 -46q-135 0 -258 31t-213 84zM596 1722q0 39 14.5 72t38 55.5t53 35.5t60.5 13q57 0 98 -38t41 -101 q0 -37 -15 -68.5t-40 -55.5t-54.5 -36t-58.5 -12q-59 0 -98 37t-39 98zM1051 1722q0 39 14 72t38 55.5t53.5 35.5t60.5 13q57 0 98 -38t41 -101q0 -37 -15.5 -68.5t-40 -55.5t-54 -36t-58.5 -12q-59 0 -98 37t-39 98z" />
<glyph unicode="&#x4df;" horiz-adv-x="966" d="M82 47l90 236q45 -27 121 -44.5t153 -17.5q43 0 82 6t69 21.5t47.5 39t17.5 58.5q0 53 -43.5 70.5t-102.5 17.5h-178l51 217h180q86 0 123 38t37 85q0 45 -41 61.5t-100 16.5q-37 0 -78 -5t-77 -11.5t-65.5 -13.5t-43.5 -11l-17 231q84 29 176 44.5t179 15.5 q94 0 162.5 -21.5t113.5 -57.5t67.5 -83t22.5 -98q0 -78 -51 -155t-150 -124q66 -33 101 -90t35 -125q0 -100 -46.5 -172t-122 -117t-170 -66.5t-192.5 -21.5t-189 20.5t-161 55.5zM360 1368q0 39 14.5 72t38 55.5t53 35.5t60.5 13q57 0 98 -38t41 -101q0 -37 -15 -68.5 t-40 -55.5t-54.5 -36t-58.5 -12q-59 0 -98 37t-39 98zM815 1368q0 39 14 72t38 55.5t53.5 35.5t60.5 13q57 0 98 -38t41 -101q0 -37 -15.5 -68.5t-40 -55.5t-54 -36t-58.5 -12q-59 0 -98 37t-39 98z" />
<glyph unicode="&#x4e0;" horiz-adv-x="1239" d="M72 82l153 254q78 -47 168 -69.5t180 -22.5q68 0 129.5 13t107.5 41t73.5 68t27.5 95q0 78 -72.5 122t-236.5 44h-100l41 176q47 39 103 85t111.5 93t106.5 91t92 81h-579l63 266h994l-45 -190q-33 -31 -87.5 -80t-120 -105.5t-135 -116t-133.5 -114.5q80 -12 141.5 -44 t102.5 -77t61.5 -101t20.5 -118q0 -88 -41 -177t-126 -162t-216 -118t-311 -45q-135 0 -249 27t-224 84z" />
<glyph unicode="&#x4e1;" horiz-adv-x="1001" d="M-20 -297l104 244q61 -29 137 -45.5t152 -16.5q72 0 130 20.5t99 54.5t63.5 77t22.5 90q0 72 -60.5 119t-195.5 47h-110l43 178q43 37 92 83t98 93t96 93t86 83h-479l61 254h867l-51 -209q-33 -33 -81 -79t-104.5 -98t-117 -107.5t-117.5 -110.5q143 -43 209.5 -135 t66.5 -209q0 -92 -43 -183t-126 -164t-204.5 -117t-281.5 -44q-98 0 -188.5 20.5t-167.5 61.5z" />
<glyph unicode="&#x4e2;" horiz-adv-x="1499" d="M154 0l340 1419h317l-203 -837q100 111 203.5 225.5t206 223t203 207.5t192.5 181h260l-342 -1419h-315l223 930q-117 -123 -223.5 -239t-205.5 -228.5t-195.5 -227t-194.5 -235.5h-266zM778 1589l51 209h660l-51 -209h-660z" />
<glyph unicode="&#x4e3;" horiz-adv-x="1189" d="M206 303q-3 94 21 193l140 581h305l-137 -577q-10 -45 -17.5 -92.5t-1.5 -87t31.5 -65.5t81.5 -26q47 0 87 17.5t85 60.5q4 51 13 107.5t20 103.5l133 559h305l-146 -612q-29 -117 -16.5 -234.5t47.5 -210.5l-272 -38q-23 45 -43 100q-57 -45 -129 -76t-160 -31 q-121 0 -195.5 44t-111.5 117t-40 167zM534 1276l51 209h660l-51 -209h-660z" />
<glyph unicode="&#x4e4;" horiz-adv-x="1499" d="M154 0l340 1419h317l-203 -837q100 111 203.5 225.5t206 223t203 207.5t192.5 181h260l-342 -1419h-315l223 930q-117 -123 -223.5 -239t-205.5 -228.5t-195.5 -227t-194.5 -235.5h-266zM780 1696q0 39 14.5 72t38 55.5t53 35.5t60.5 13q57 0 98 -38t41 -101 q0 -37 -15 -68.5t-40 -55.5t-54.5 -36t-58.5 -12q-59 0 -98 37t-39 98zM1235 1696q0 39 14 72t38 55.5t53.5 35.5t60.5 13q57 0 98 -38t41 -101q0 -37 -15.5 -68.5t-40 -55.5t-54 -36t-58.5 -12q-59 0 -98 37t-39 98z" />
<glyph unicode="&#x4e5;" horiz-adv-x="1189" d="M206 303q-3 94 21 193l140 581h305l-137 -577q-10 -45 -17.5 -92.5t-1.5 -87t31.5 -65.5t81.5 -26q47 0 87 17.5t85 60.5q4 51 13 107.5t20 103.5l133 559h305l-146 -612q-29 -117 -16.5 -234.5t47.5 -210.5l-272 -38q-23 45 -43 100q-57 -45 -129 -76t-160 -31 q-121 0 -195.5 44t-111.5 117t-40 167zM500 1368q0 39 14.5 72t38 55.5t53 35.5t60.5 13q57 0 98 -38t41 -101q0 -37 -15 -68.5t-40 -55.5t-54.5 -36t-58.5 -12q-59 0 -98 37t-39 98zM955 1368q0 39 14 72t38 55.5t53.5 35.5t60.5 13q57 0 98 -38t41 -101q0 -37 -15.5 -68.5 t-40 -55.5t-54 -36t-58.5 -12q-59 0 -98 37t-39 98z" />
<glyph unicode="&#x4e6;" horiz-adv-x="1550" d="M252 567q0 160 55 317.5t158.5 283.5t253 205t338.5 79q125 0 229.5 -41t180 -117.5t117.5 -187.5t42 -250q0 -160 -54 -318.5t-157.5 -284.5t-253.5 -204t-340 -78q-125 0 -229.5 41t-180 118t-117.5 187.5t-42 249.5zM580 590q0 -154 64.5 -249t209.5 -95q94 0 175 49 t141.5 131t94 187.5t33.5 220.5q0 154 -64.5 249t-209.5 95q-94 0 -175 -49.5t-141.5 -131.5t-94 -188.5t-33.5 -218.5zM735 1696q0 39 14.5 72t38 55.5t53 35.5t60.5 13q57 0 98 -38t41 -101q0 -37 -15 -68.5t-40 -55.5t-54.5 -36t-58.5 -12q-59 0 -98 37t-39 98z M1190 1696q0 39 14 72t38 55.5t53.5 35.5t60.5 13q57 0 98 -38t41 -101q0 -37 -15.5 -68.5t-40 -55.5t-54 -36t-58.5 -12q-59 0 -98 37t-39 98z" />
<glyph unicode="&#x4e7;" horiz-adv-x="1175" d="M205 416q0 123 40 245.5t117.5 221t190.5 161t258 62.5q106 0 187 -33t133.5 -92t79 -140t26.5 -179q0 -123 -39 -246t-114.5 -221.5t-189 -161t-263.5 -62.5q-109 0 -189 33t-132 92.5t-78.5 140t-26.5 179.5zM493 1368q0 39 14.5 72t38 55.5t53 35.5t60.5 13 q57 0 98 -38t41 -101q0 -37 -15 -68.5t-40 -55.5t-54.5 -36t-58.5 -12q-59 0 -98 37t-39 98zM508 446q0 -104 32.5 -160.5t118.5 -56.5q68 0 119 39t86 98.5t52.5 130t17.5 134.5q0 104 -33 160.5t-119 56.5q-68 0 -119 -39t-85.5 -98.5t-52 -130t-17.5 -134.5zM948 1368 q0 39 14 72t38 55.5t53.5 35.5t60.5 13q57 0 98 -38t41 -101q0 -37 -15.5 -68.5t-40 -55.5t-54 -36t-58.5 -12q-59 0 -98 37t-39 98z" />
<glyph unicode="&#x4e8;" horiz-adv-x="1550" d="M252 567q0 160 55 317.5t158.5 283.5t253 205t338.5 79q125 0 229.5 -41t180 -117.5t117.5 -187.5t42 -250q0 -160 -54 -318.5t-157.5 -284.5t-253.5 -204t-340 -78q-125 0 -229.5 41t-180 118t-117.5 187.5t-42 249.5zM580 590q0 -154 64.5 -249t209.5 -95 q68 0 130.5 26.5t114.5 73.5t93 110.5t65 139.5h-677v-6zM616 821h682v13q0 154 -64.5 249t-209.5 95q-70 0 -133.5 -28t-115.5 -75t-93 -112.5t-66 -141.5z" />
<glyph unicode="&#x4e9;" horiz-adv-x="1175" d="M205 416q0 123 40 245.5t117.5 221t190.5 161t258 62.5q106 0 187 -33t133.5 -92t79 -140t26.5 -179q0 -123 -39 -246t-114.5 -221.5t-189 -161t-263.5 -62.5q-109 0 -189 33t-132 92.5t-78.5 140t-26.5 179.5zM508 449q0 -104 32.5 -162t118.5 -58q88 0 148.5 63.5 t93.5 156.5h-393zM541 633h393q0 100 -33 157.5t-119 57.5q-88 0 -148.5 -64.5t-92.5 -150.5z" />
<glyph unicode="&#x4ea;" horiz-adv-x="1550" d="M252 567q0 160 55 317.5t158.5 283.5t253 205t338.5 79q125 0 229.5 -41t180 -117.5t117.5 -187.5t42 -250q0 -160 -54 -318.5t-157.5 -284.5t-253.5 -204t-340 -78q-125 0 -229.5 41t-180 118t-117.5 187.5t-42 249.5zM580 590q0 -154 64.5 -249t209.5 -95 q68 0 130.5 26.5t114.5 73.5t93 110.5t65 139.5h-677v-6zM616 821h682v13q0 154 -64.5 249t-209.5 95q-70 0 -133.5 -28t-115.5 -75t-93 -112.5t-66 -141.5zM735 1696q0 39 14.5 72t38 55.5t53 35.5t60.5 13q57 0 98 -38t41 -101q0 -37 -15 -68.5t-40 -55.5t-54.5 -36 t-58.5 -12q-59 0 -98 37t-39 98zM1190 1696q0 39 14 72t38 55.5t53.5 35.5t60.5 13q57 0 98 -38t41 -101q0 -37 -15.5 -68.5t-40 -55.5t-54 -36t-58.5 -12q-59 0 -98 37t-39 98z" />
<glyph unicode="&#x4eb;" horiz-adv-x="1175" d="M205 416q0 123 40 245.5t117.5 221t190.5 161t258 62.5q106 0 187 -33t133.5 -92t79 -140t26.5 -179q0 -123 -39 -246t-114.5 -221.5t-189 -161t-263.5 -62.5q-109 0 -189 33t-132 92.5t-78.5 140t-26.5 179.5zM508 449q0 -104 32.5 -162t118.5 -58q88 0 148.5 63.5 t93.5 156.5h-393zM514 1368q0 39 14.5 72t38 55.5t53 35.5t60.5 13q57 0 98 -38t41 -101q0 -37 -15 -68.5t-40 -55.5t-54.5 -36t-58.5 -12q-59 0 -98 37t-39 98zM541 633h393q0 100 -33 157.5t-119 57.5q-88 0 -148.5 -64.5t-92.5 -150.5zM969 1368q0 39 14 72t38 55.5 t53.5 35.5t60.5 13q57 0 98 -38t41 -101q0 -37 -15.5 -68.5t-40 -55.5t-54 -36t-58.5 -12q-59 0 -98 37t-39 98z" />
<glyph unicode="&#x4ec;" horiz-adv-x="1335" d="M133 74l135 248q86 -45 159 -61.5t151 -16.5q190 0 309 93t172 249h-567l67 270h545v35q0 80 -27.5 135t-74 88t-104.5 47.5t-120 14.5q-86 0 -175 -21.5t-161 -52.5l-20 260q98 41 207.5 65.5t220.5 24.5t212 -28.5t179 -91t125 -164t47 -246.5q0 -254 -69.5 -434.5 t-187.5 -295t-272.5 -168t-322.5 -53.5q-115 0 -223.5 26t-204.5 77zM551 1696q0 39 14.5 72t38 55.5t53 35.5t60.5 13q57 0 98 -38t41 -101q0 -37 -15 -68.5t-40 -55.5t-54.5 -36t-58.5 -12q-59 0 -98 37t-39 98zM1006 1696q0 39 14 72t38 55.5t53.5 35.5t60.5 13 q57 0 98 -38t41 -101q0 -37 -15.5 -68.5t-40 -55.5t-54 -36t-58.5 -12q-59 0 -98 37t-39 98z" />
<glyph unicode="&#x4ed;" horiz-adv-x="1011" d="M102 45l88 246q74 -33 135.5 -46.5t123.5 -13.5q115 0 192.5 48.5t114.5 156.5h-394l52 219h372q0 55 -17 94t-47 63t-69 34t-84 10q-61 0 -125.5 -16.5t-121.5 -38.5l-17 235q164 70 316 70q111 0 195.5 -31t141 -87t86 -135t29.5 -175q0 -197 -55 -331t-145.5 -217 t-207 -120t-241.5 -37q-90 0 -173 18.5t-149 53.5zM375 1368q0 39 14.5 72t38 55.5t53 35.5t60.5 13q57 0 98 -38t41 -101q0 -37 -15 -68.5t-40 -55.5t-54.5 -36t-58.5 -12q-59 0 -98 37t-39 98zM830 1368q0 39 14 72t38 55.5t53.5 35.5t60.5 13q57 0 98 -38t41 -101 q0 -37 -15.5 -68.5t-40 -55.5t-54 -36t-58.5 -12q-59 0 -98 37t-39 98z" />
<glyph unicode="&#x4ee;" horiz-adv-x="1269" d="M123 25l100 251q72 -32 154 -32q61 0 118.5 23.5t110.5 76.5l37 39q-43 123 -83 256t-75.5 268t-63.5 265.5t-46 246.5h354q18 -166 52 -353t81 -374q86 143 181.5 324.5t211.5 402.5h342q-186 -336 -362 -624.5t-330 -505.5q-104 -143 -233 -230.5t-303 -87.5 q-123 0 -246 54zM678 1589l51 209h660l-51 -209h-660z" />
<glyph unicode="&#x4ef;" horiz-adv-x="1089" d="M-51 -330l92 240q41 -16 73.5 -25.5t80.5 -9.5q72 0 136 46t107 124q-53 205 -97 459t-60 573h313q2 -80 8 -176t14.5 -193.5t18.5 -189.5t22 -166q98 147 173 327.5t141 397.5h323q-57 -156 -115.5 -291t-122 -256.5t-131 -232.5t-143.5 -219q-55 -80 -114.5 -162 t-132 -147.5t-161.5 -106.5t-206 -41q-72 0 -123 13.5t-96 35.5zM500 1276l51 209h660l-51 -209h-660z" />
<glyph unicode="&#x4f0;" horiz-adv-x="1269" d="M123 25l100 251q72 -32 154 -32q61 0 118.5 23.5t110.5 76.5l37 39q-43 123 -83 256t-75.5 268t-63.5 265.5t-46 246.5h354q18 -166 52 -353t81 -374q86 143 181.5 324.5t211.5 402.5h342q-186 -336 -362 -624.5t-330 -505.5q-104 -143 -233 -230.5t-303 -87.5 q-123 0 -246 54zM623 1696q0 39 14.5 72t38 55.5t53 35.5t60.5 13q57 0 98 -38t41 -101q0 -37 -15 -68.5t-40 -55.5t-54.5 -36t-58.5 -12q-59 0 -98 37t-39 98zM1078 1696q0 39 14 72t38 55.5t53.5 35.5t60.5 13q57 0 98 -38t41 -101q0 -37 -15.5 -68.5t-40 -55.5t-54 -36 t-58.5 -12q-59 0 -98 37t-39 98z" />
<glyph unicode="&#x4f1;" horiz-adv-x="1089" d="M-51 -330l92 240q41 -16 73.5 -25.5t80.5 -9.5q72 0 136 46t107 124q-53 205 -97 459t-60 573h313q2 -80 8 -176t14.5 -193.5t18.5 -189.5t22 -166q98 147 173 327.5t141 397.5h323q-57 -156 -115.5 -291t-122 -256.5t-131 -232.5t-143.5 -219q-55 -80 -114.5 -162 t-132 -147.5t-161.5 -106.5t-206 -41q-72 0 -123 13.5t-96 35.5zM434 1368q0 39 14.5 72t38 55.5t53 35.5t60.5 13q57 0 98 -38t41 -101q0 -37 -15 -68.5t-40 -55.5t-54.5 -36t-58.5 -12q-59 0 -98 37t-39 98zM889 1368q0 39 14 72t38 55.5t53.5 35.5t60.5 13q57 0 98 -38 t41 -101q0 -37 -15.5 -68.5t-40 -55.5t-54 -36t-58.5 -12q-59 0 -98 37t-39 98z" />
<glyph unicode="&#x4f2;" horiz-adv-x="1269" d="M123 25l100 251q72 -32 154 -32q61 0 118.5 23.5t110.5 76.5l37 39q-43 123 -83 256t-75.5 268t-63.5 265.5t-46 246.5h354q18 -166 52 -353t81 -374q86 143 181.5 324.5t211.5 402.5h342q-186 -336 -362 -624.5t-330 -505.5q-104 -143 -233 -230.5t-303 -87.5 q-123 0 -246 54zM665 1639l299 329l148 -176l-336 -278zM1081 1639l299 329l148 -176l-336 -278z" />
<glyph unicode="&#x4f3;" horiz-adv-x="1089" d="M-51 -330l92 240q41 -16 73.5 -25.5t80.5 -9.5q72 0 136 46t107 124q-53 205 -97 459t-60 573h313q2 -80 8 -176t14.5 -193.5t18.5 -189.5t22 -166q98 147 173 327.5t141 397.5h323q-57 -156 -115.5 -291t-122 -256.5t-131 -232.5t-143.5 -219q-55 -80 -114.5 -162 t-132 -147.5t-161.5 -106.5t-206 -41q-72 0 -123 13.5t-96 35.5zM497 1307l299 329l148 -176l-336 -278zM913 1307l299 329l148 -176l-336 -278z" />
<glyph unicode="&#x4f4;" horiz-adv-x="1361" d="M307 831q0 80 25 183l98 405h320l-101 -418q-16 -72 -16 -116q0 -49 16.5 -82t45 -52.5t64.5 -27.5t77 -8q53 0 105 10t93 20l162 674h320l-342 -1419h-320l115 475q-111 -31 -226 -31q-86 0 -165.5 21.5t-139 68t-95.5 120t-36 177.5zM608 1696q0 39 14.5 72t38 55.5 t53 35.5t60.5 13q57 0 98 -38t41 -101q0 -37 -15 -68.5t-40 -55.5t-54.5 -36t-58.5 -12q-59 0 -98 37t-39 98zM1063 1696q0 39 14 72t38 55.5t53.5 35.5t60.5 13q57 0 98 -38t41 -101q0 -37 -15.5 -68.5t-40 -55.5t-54 -36t-58.5 -12q-59 0 -98 37t-39 98z" />
<glyph unicode="&#x4f5;" horiz-adv-x="1126" d="M244 643q0 61 18 141l70 293h305l-84 -348q-6 -25 -6 -43q0 -33 14 -52.5t37 -28.5t51.5 -12t57.5 -3q61 0 112 10l115 477h305l-260 -1077h-305l86 354q-41 -6 -79 -10t-75 -4q-78 0 -144.5 16.5t-114.5 53t-75.5 94t-27.5 139.5zM455 1368q0 39 14.5 72t38 55.5 t53 35.5t60.5 13q57 0 98 -38t41 -101q0 -37 -15 -68.5t-40 -55.5t-54.5 -36t-58.5 -12q-59 0 -98 37t-39 98zM910 1368q0 39 14 72t38 55.5t53.5 35.5t60.5 13q57 0 98 -38t41 -101q0 -37 -15.5 -68.5t-40 -55.5t-54 -36t-58.5 -12q-59 0 -98 37t-39 98z" />
<glyph unicode="&#x4f6;" horiz-adv-x="1134" d="M154 0l340 1419h927l-65 -270h-608l-211 -879h245l-155 -649h-308l93 379h-258z" />
<glyph unicode="&#x4f7;" horiz-adv-x="989" d="M164 256q0 51 18.5 103.5t55 99.5t90 86t123.5 63l184 66q88 33 117.5 59.5t29.5 65.5q0 61 -127 61q-78 0 -135 -14.5t-117 -32.5l-10 238q59 20 152.5 37.5t191.5 17.5q170 0 261.5 -67.5t91.5 -184.5q0 -98 -35 -167t-91.5 -118t-130 -82.5t-153.5 -60.5 q-115 -39 -166 -70.5t-51 -79.5q0 -33 33.5 -45t105.5 -12q39 0 89 2t102.5 7t103.5 14.5t94 25.5l-147 -575h-260l75 287q-29 -4 -57.5 -6.5t-56.5 -2.5q-98 0 -170 23.5t-119 62.5t-69.5 91.5t-22.5 107.5z" />
<glyph unicode="&#x4f8;" horiz-adv-x="1886" d="M154 33l333 1386h320l-113 -473q14 2 52 4t61 2q160 0 259 -36.5t155.5 -97t77 -138.5t20.5 -162q0 -98 -37 -193.5t-124 -172t-229.5 -123.5t-353.5 -47q-109 0 -220 14t-201 37zM528 260q27 -4 61 -6t68 -2q96 0 161 21.5t102.5 57.5t54 80t16.5 89q0 37 -10 70.5 t-36.5 60t-73 42t-115.5 15.5q-10 0 -49 -1t-76 -5zM870 1687q0 39 14.5 72t38 55.5t53 35.5t60.5 13q57 0 98 -38t41 -101q0 -37 -15 -68.5t-40 -55.5t-54.5 -36t-58.5 -12q-59 0 -98 37t-39 98zM1325 1687q0 39 14 72t38 55.5t53.5 35.5t60.5 13q57 0 98 -38t41 -101 q0 -37 -15.5 -68.5t-40 -55.5t-54 -36t-58.5 -12q-59 0 -98 37t-39 98zM1397 0l338 1419h305l-340 -1419h-303z" />
<glyph unicode="&#x4f9;" horiz-adv-x="1681" d="M143 33l250 1044h305l-92 -383q88 16 164 17q182 0 277.5 -85t95.5 -239q0 -86 -35 -160.5t-105.5 -130t-178 -87.5t-255.5 -32q-199 0 -426 56zM494 221q29 -4 59.5 -6t60.5 -2q119 0 179.5 41t60.5 113q0 114 -174 114q-35 0 -71 -4t-58 -10zM711 1368q0 39 14.5 72 t38 55.5t53 35.5t60.5 13q57 0 98 -38t41 -101q0 -37 -15 -68.5t-40 -55.5t-54.5 -36t-58.5 -12q-59 0 -98 37t-39 98zM1166 1368q0 39 14 72t38 55.5t53.5 35.5t60.5 13q57 0 98 -38t41 -101q0 -37 -15.5 -68.5t-40 -55.5t-54 -36t-58.5 -12q-59 0 -98 37t-39 98zM1233 0 l256 1077h305l-258 -1077h-303z" />
<glyph unicode="&#x2000;" horiz-adv-x="984" />
<glyph unicode="&#x2001;" horiz-adv-x="1968" />
<glyph unicode="&#x2002;" horiz-adv-x="984" />
<glyph unicode="&#x2003;" horiz-adv-x="1968" />
<glyph unicode="&#x2004;" horiz-adv-x="656" />
<glyph unicode="&#x2005;" horiz-adv-x="492" />
<glyph unicode="&#x2006;" horiz-adv-x="328" />
<glyph unicode="&#x2007;" horiz-adv-x="328" />
<glyph unicode="&#x2008;" horiz-adv-x="246" />
<glyph unicode="&#x2009;" horiz-adv-x="393" />
<glyph unicode="&#x200a;" horiz-adv-x="109" />
<glyph unicode="&#x2010;" horiz-adv-x="702" d="M150 473l67 277h594l-68 -277h-593z" />
<glyph unicode="&#x2011;" horiz-adv-x="702" d="M150 473l67 277h594l-68 -277h-593z" />
<glyph unicode="&#x2012;" horiz-adv-x="702" d="M150 473l67 277h594l-68 -277h-593z" />
<glyph unicode="&#x2013;" horiz-adv-x="1040" d="M123 485l57 254h1024l-59 -254h-1022z" />
<glyph unicode="&#x2014;" horiz-adv-x="2064" d="M123 485l57 254h2048l-59 -254h-2046z" />
<glyph unicode="&#x2018;" horiz-adv-x="485" d="M266 1014q2 29 7.5 59.5t9.5 44.5q33 137 111.5 261t170.5 210l189 -71q-72 -111 -123 -237t-68 -267h-297z" />
<glyph unicode="&#x2019;" horiz-adv-x="485" d="M246 1071q72 111 120 237t64 263h297q-2 -29 -7 -59.5t-9 -45.5q-33 -137 -112 -261t-171 -210z" />
<glyph unicode="&#x201a;" horiz-adv-x="485" d="M-6 -184q72 111 120 237t64 263h297q-2 -29 -7 -59.5t-9 -45.5q-33 -137 -112 -261t-171 -210z" />
<glyph unicode="&#x201c;" horiz-adv-x="927" d="M266 1014q2 29 7.5 59.5t9.5 44.5q33 137 111.5 261t170.5 210l189 -71q-72 -111 -123 -237t-68 -267h-297zM710 1014q2 29 7.5 59.5t9.5 44.5q33 137 111.5 261t170.5 210l189 -71q-72 -111 -123 -237t-68 -267h-297z" />
<glyph unicode="&#x201d;" horiz-adv-x="927" d="M246 1071q72 111 120 237t64 263h297q-2 -29 -7 -59.5t-9 -45.5q-33 -137 -112 -261t-171 -210zM688 1071q72 111 120 237t64 263h297q-2 -29 -7 -59.5t-9 -45.5q-33 -137 -112 -261t-171 -210z" />
<glyph unicode="&#x201e;" horiz-adv-x="927" d="M-6 -184q72 111 120 237t64 263h297q-2 -29 -7 -59.5t-9 -45.5q-33 -137 -112 -261t-171 -210zM434 -184q72 111 120 237t64 263h297q-2 -29 -7 -59.5t-9 -45.5q-33 -137 -112 -261t-171 -210z" />
<glyph unicode="&#x2022;" horiz-adv-x="794" d="M246 723q0 57 20.5 110.5t59.5 93.5t93 63.5t122 23.5t122 -23.5t93 -63.5t59.5 -93.5t20.5 -110.5q0 -59 -20.5 -111.5t-59.5 -92.5t-93.5 -63.5t-121.5 -23.5q-68 0 -122 23.5t-93 63.5t-59.5 92.5t-20.5 111.5z" />
<glyph unicode="&#x2026;" horiz-adv-x="1937" d="M123 139q0 47 17.5 86t46 66.5t65.5 43t76 15.5q72 0 120 -40t48 -126q0 -47 -17.5 -86t-46.5 -66.5t-65.5 -43t-75.5 -15.5q-72 0 -120 40t-48 126zM834 139q0 47 17.5 86t46 66.5t65.5 43t76 15.5q72 0 120 -40t48 -126q0 -47 -17.5 -86t-46.5 -66.5t-65.5 -43 t-75.5 -15.5q-72 0 -120 40t-48 126zM1544 139q0 47 17.5 86t46 66.5t65.5 43t76 15.5q72 0 120 -40t48 -126q0 -47 -17.5 -86t-46.5 -66.5t-65.5 -43t-75.5 -15.5q-72 0 -120 40t-48 126z" />
<glyph unicode="&#x202f;" horiz-adv-x="393" />
<glyph unicode="&#x2039;" horiz-adv-x="702" d="M205 594l448 479l193 -115l-322 -403l148 -371l-203 -94z" />
<glyph unicode="&#x203a;" horiz-adv-x="704" d="M125 205l321 403l-147 371l203 94l264 -504l-449 -479z" />
<glyph unicode="&#x205f;" horiz-adv-x="492" />
<glyph unicode="&#x20ac;" d="M174 446l47 203h131q4 35 11.5 68t15.5 65h-129l49 203h139q45 104 107.5 189.5t148.5 145.5t200 93t261 33q135 0 277 -47l-121 -238q-102 35 -201 35q-143 0 -227 -56.5t-138 -154.5h482l-88 -203h-463q-14 -66 -25 -133h430l-86 -203h-352q10 -127 73.5 -174 t160.5 -47q61 0 131.5 14.5t142.5 36.5l12 -239q-86 -31 -170 -48.5t-170 -17.5q-96 0 -181 26t-150.5 82t-105.5 147t-44 220h-168z" />
<glyph unicode="&#x2122;" horiz-adv-x="1748" d="M246 1208v211h659v-211h-209v-510h-241v510h-209zM985 698q14 254 30.5 427t33.5 294h217q43 -92 81.5 -187t79.5 -188q41 92 83 194.5t75 180.5h219q20 -121 35.5 -294t32.5 -427h-236l-8 383l-121 -307h-161l-121 305q0 -66 -1 -130t-2 -117.5t-2 -90t-1 -43.5h-234z " />
<glyph unicode="&#x25fc;" horiz-adv-x="1075" d="M0 0v1075h1075v-1075h-1075z" />
</font>
</defs>
</svg>
