<?xml version="1.0" encoding="utf-8"?>
<!-- Generator: Adobe Illustrator 21.0.2, SVG Export Plug-In . SVG Version: 6.00 Build 0)  -->
<svg version="1.1" id="Layer_1" xmlns="http://www.w3.org/2000/svg" xmlns:xlink="http://www.w3.org/1999/xlink" x="0px" y="0px"
	 viewBox="0 0 394.6 392" style="enable-background:new 0 0 394.6 392;" xml:space="preserve">
<style type="text/css">
	.st0{fill:#E4A612;}
	.st1{fill:#000200;}
</style>
<g>
	<g>
		<path class="st0" d="M254.7,291.9c11.9-12.1,12.2-23.8,12.2-23.8l-9.4-9.6c-9.9-10.1-26-10.1-35.9,0c-9.9,10.1-10.1,26.8-0.3,36.2
			C226.7,299.7,241.4,305.5,254.7,291.9"/>
		<path class="st0" d="M328.4,258.5c-9.9-10.1-26.3-10.1-35.9,0c-9.6,10.1-23.2,26.2-29.7,33.3c-6.5,7.1-19.2,16.3-34.2,10.6
			c0,0,28,29,28,29c9.9,10.1,26,10.1,35.9,0l35.9-36.4C338.3,284.8,338.3,268.5,328.4,258.5"/>
	</g>
</g>
<g>
	<path class="st1" d="M332.4,46.6L332.4,46.6l0,14.6c0,19.5-15.8,35.2-35.2,35.2h-4.9c-19.5,0-35.2-15.8-35.2-35.2V46.6H138v14.6
		c0,19.5-15.8,35.2-35.2,35.2h-4.9c-19.5,0-35.2-15.8-35.2-35.2V46.6l0,0c-34.4,0-62.2,27.8-62.2,62.2L0,383.8
		c0,2.2,0.9,4.2,2.4,5.8c1.5,1.5,3.6,2.4,5.8,2.4H386c4.5,0,8.1-3.6,8.1-8.1l0.5-275C394.6,74.5,366.7,46.6,332.4,46.6z
		 M365.5,363.3H28.6l0.5-219.9H366L365.5,363.3z"/>
	<path class="st1" d="M97.9,84h4.9c12.6,0,22.9-10.3,22.9-22.9V46.6V22.9c0-12.6-10.3-22.9-22.9-22.9h-4.9C85.3,0,75,10.3,75,22.9
		v23.8v14.6C75,73.8,85.3,84,97.9,84z"/>
	<path class="st1" d="M292.2,84h4.9c12.6,0,22.9-10.3,22.9-22.9V46.6V22.9C320,10.3,309.8,0,297.2,0h-4.9
		c-12.6,0-22.9,10.3-22.9,22.9v23.8v14.6C269.4,73.8,279.6,84,292.2,84z"/>
</g>
</svg>
