<?xml version="1.0" encoding="utf-8"?>
<!-- Generator: Adobe Illustrator 21.0.2, SVG Export Plug-In . SVG Version: 6.00 Build 0)  -->
<svg version="1.1" id="Layer_1" xmlns="http://www.w3.org/2000/svg" xmlns:xlink="http://www.w3.org/1999/xlink" x="0px" y="0px"
	 viewBox="0 0 675.1 1029.1" style="enable-background:new 0 0 675.1 1029.1;" xml:space="preserve">
<style type="text/css">
	.st0{fill:#050505;}
</style>
<path class="st0" d="M547.3,363.8c3.8,110.5-75.2,141.8-75.2,141.8s12.2-81.2,12.2-144.2c0-247.7-203.1-347.2-203.1-347.2
	s20.3,39.1,20.3,82.7c0,154.3-272.1,286.9-272.1,528.6c0,159,155.5,299.7,247.2,368.9c-48.3-46.6-105.5-118.6-105.5-198.1
	c0-63.3,27.5-114.3,58.8-159.4c-2.1,67.3,41.1,86.4,41.1,86.4s-6.7-49.5-6.7-87.8c0-151,111-211.6,111-211.6s-11.1,23.8-11.1,50.4
	c0,94,148.8,174.8,148.8,322.1c0,79.5-57.2,151.5-105.5,198c91.7-69.2,247.2-210,247.2-368.9C654.8,521.5,604.6,437.8,547.3,363.8z"
	/>
</svg>
