<?xml version="1.0" encoding="utf-8"?>
<!-- Generator: Adobe Illustrator 21.0.2, SVG Export Plug-In . SVG Version: 6.00 Build 0)  -->
<svg version="1.1" id="Layer_5" xmlns="http://www.w3.org/2000/svg" xmlns:xlink="http://www.w3.org/1999/xlink" x="0px" y="0px"
	 viewBox="0 0 801 555" style="enable-background:new 0 0 801 555;" xml:space="preserve">
<style type="text/css">
	.st0{fill:#094569;}
</style>
<polygon class="st0" points="736.5,540.6 754.2,540.6 754.2,472.4 700.4,472.4 "/>
<polygon class="st0" points="50.3,544.6 66.1,544.6 100.1,472.4 50.3,472.4 "/>
<path class="st0" d="M135.4,160.1c0-26.5,18.9-48.1,42.1-48.1h164.9c23.2,0,42.1,21.7,42.1,48.1v84.2H416v-84.2
	c0-26.5,18.9-48.1,42.1-48.1H623c23.2,0,42.1,21.7,42.1,48.1v84.2h49.1V144c0-68.4-48.9-124.3-108.8-124.3h-414
	C131.7,19.7,82.7,75.7,82.7,144v100.3h52.6V160.1z"/>
<path class="st0" d="M110.8,256.4c-50.2,0-91.2,46.9-91.2,104.3v104.3h764.9V360.7c0-57.3-41-104.3-91.2-104.3H110.8z"/>
</svg>
