<?xml version="1.0" encoding="utf-8"?>
<!-- Generator: Adobe Illustrator 21.0.2, SVG Export Plug-In . SVG Version: 6.00 Build 0)  -->
<svg version="1.1" id="_x2014_ÎÓÈ_x5F_1" xmlns="http://www.w3.org/2000/svg" xmlns:xlink="http://www.w3.org/1999/xlink"
	 x="0px" y="0px" viewBox="0 0 356 357" style="enable-background:new 0 0 356 357;" xml:space="preserve">
<style type="text/css">
	.st0{fill:#0D78BC;}
</style>
<g>
	<polygon class="st0" points="349.4,256.1 200.7,186.9 250.9,344 277.2,297 325.9,351.6 348.4,331.5 299.3,276.4 	"/>
	<path class="st0" d="M180.6,248.7c-3.8,10.6-8.3,19-12.9,24.4c-2.9,3.4-5.7,5.4-7.7,5.4c-1.9,0-4.7-2-7.7-5.4
		c-4.6-5.4-9-13.8-12.9-24.4c-3-8.4-5.6-17.9-7.7-28.2c9.3-0.4,18.7-0.7,28.2-0.7c7.5,0,15,0.1,22.5,0.4l-8-25l-1.6-5.1
		c-4.3-0.1-8.6-0.1-12.9-0.1c-10.9,0-21.8,0.3-32.4,0.8c0,0-0.1,0-0.1,0c-1-10.6-1.5-21.7-1.5-32.8c0-11.2,0.5-22.2,1.5-32.8
		c0,0,0.1,0,0.1,0c10.6,0.6,21.5,0.8,32.4,0.8c10.9,0,21.8-0.3,32.4-0.8c0,0,0.1,0,0.1,0c0.9,9.2,1.4,18.7,1.5,28.4l18.3,8.5
		l11.4,5.3c0.1-3.1,0.1-6.2,0.1-9.4c0-11.9-0.5-23.8-1.6-35.2c18.3-2,35.4-4.7,50.8-8.3c5.4,13.9,8.1,28.5,8.1,43.5
		c0,11.6-1.6,23-4.8,33.9l27.3,12.7c1.2-3.7,2.3-7.4,3.2-11.2c2.8-11.5,4.2-23.4,4.2-35.4c0-18.8-3.4-37.1-10.1-54.4
		c0.1-0.9-0.1-1.8-0.5-2.6l-4.9-9.8c-5.4-11-12.3-21.4-20.2-30.8c0,0,0,0,0,0l-0.2-0.3c-0.4-0.4-0.8-0.9-1.1-1.3
		c-0.2-0.2-0.4-0.4-0.6-0.7c-0.3-0.3-0.5-0.6-0.8-0.9c-0.5-0.6-1.1-1.2-1.6-1.8l-0.2-0.2c0,0,0,0,0,0c-0.4-0.4-0.8-0.8-1.2-1.2h0
		l0,0c0,0,0,0,0,0c-1.2-1.3-2.5-2.6-3.8-3.9l-0.1-0.1c-1.1-1.1-2.3-2.2-3.4-3.2c-0.3-0.3-0.6-0.5-0.9-0.8c-0.2-0.2-0.4-0.4-0.7-0.6
		c-12.4-11.1-26.4-19.9-41.7-26.4c-17.7-7.5-36.5-11.5-55.9-11.8l-0.3,0c-1,0-1.8,0-2.5,0c-0.8,0-1.6,0-2.5,0l-0.3,0
		c-19.4,0.4-38.2,4.3-55.9,11.8C86.1,25.4,72,34.3,59.7,45.4c-0.2,0.2-0.4,0.4-0.6,0.6c-0.3,0.3-0.6,0.5-0.9,0.8
		c-1.1,1-2.3,2.1-3.4,3.2L54.7,50c-1.3,1.3-2.6,2.6-3.8,3.9l0,0l0,0c0,0,0,0,0,0c-0.4,0.4-0.8,0.9-1.2,1.3c0,0,0,0,0,0l-0.2,0.3
		c-0.6,0.6-1.1,1.2-1.6,1.8l0,0l0,0c-0.2,0.3-0.5,0.5-0.7,0.8c-0.2,0.2-0.4,0.4-0.6,0.7c-0.4,0.4-0.8,0.9-1.1,1.3L45,60.4
		c0,0,0,0,0,0c-8,9.4-14.8,19.7-20.2,30.8l-4.9,9.8c-0.4,0.8-0.6,1.7-0.5,2.6C12.6,120.9,9.2,139.2,9.2,158c0,12,1.4,23.9,4.2,35.4
		c1.5,6.4,3.5,12.8,5.9,19c-0.1,0.9,0.1,1.8,0.5,2.6l5.4,10.7c12.4,24.6,31.3,45.3,54.6,60c12.7,8,26.5,14,41,17.9
		c3.4,0.9,6.8,1.7,10.3,2.4c1.7,0.3,3.5,0.6,5.2,0.9c7.8,1.2,15.8,1.9,23.8,1.9c16.5,0,32.8-2.7,48.2-7.9L186,230.9
		C184.4,237.2,182.6,243.2,180.6,248.7z M258.2,87.2c-12.3,2.5-25.7,4.6-40,6.1c-2.5-13.2-5.7-25.3-9.5-36.1
		c-1.5-4.3-3.2-8.3-4.9-12C225.4,53.6,244.6,68.4,258.2,87.2z M139.6,67.2c3.8-10.6,8.3-19,12.9-24.4c2.9-3.4,5.7-5.4,7.7-5.4
		c1.9,0,4.7,2,7.7,5.4c4.6,5.4,9,13.8,12.9,24.4c3,8.4,5.6,17.9,7.7,28.2c-9.3,0.4-18.8,0.7-28.2,0.7c-9.5,0-18.9-0.2-28.2-0.7
		C134,85.1,136.5,75.7,139.6,67.2z M116.4,45.1c-1.7,3.8-3.4,7.8-4.9,12c-3.9,10.8-7.1,22.9-9.5,36.1c-14.3-1.5-27.7-3.5-40-6.1
		C75.6,68.4,94.8,53.6,116.4,45.1z M47.1,201.5C41.7,187.7,39,173.1,39,158c0-15.1,2.7-29.7,8.1-43.5c15.4,3.6,32.5,6.4,50.8,8.3
		c-1.1,11.4-1.6,23.3-1.6,35.2c0,11.9,0.5,23.8,1.6,35.2C79.6,195.1,62.5,197.9,47.1,201.5z M116.1,270.8l-0.6-0.2l0,0
		c-0.3-0.1-0.5-0.2-0.8-0.3c-0.1-0.1-0.3-0.1-0.4-0.2l0,0l-0.6-0.2l-0.1,0c-0.2-0.1-0.5-0.2-0.7-0.3c-0.1,0-0.2-0.1-0.3-0.1l0,0
		l-0.6-0.3l-0.1,0c-0.3-0.1-0.6-0.2-0.8-0.4c0,0-0.1,0-0.2-0.1c0,0,0,0,0,0l-0.3-0.1c0,0,0,0,0,0c-1.5-0.7-3-1.4-4.5-2.1
		c0,0,0,0,0,0l-0.2-0.1l0,0c0,0-0.1,0-0.1-0.1c-0.3-0.2-0.6-0.3-0.9-0.5l0,0l-0.5-0.3c0,0,0,0,0,0c-0.1-0.1-0.2-0.1-0.3-0.2
		c-0.3-0.2-0.6-0.3-0.9-0.5l-0.5-0.2c0,0,0,0,0,0c-0.1-0.1-0.3-0.1-0.4-0.2c-0.3-0.2-0.6-0.3-0.9-0.5l0,0l-0.4-0.2l0,0
		c-0.1-0.1-0.3-0.2-0.4-0.2c-0.3-0.2-0.6-0.3-0.9-0.5l0,0l-0.4-0.2c-0.2-0.1-0.3-0.2-0.5-0.3c-0.3-0.2-0.6-0.4-1-0.6l-0.3-0.2
		c-0.2-0.1-0.3-0.2-0.5-0.3c-0.3-0.2-0.6-0.4-1-0.6l-0.2-0.1c-0.2-0.1-0.4-0.2-0.5-0.3c-0.3-0.2-0.6-0.4-0.9-0.6l-0.1,0l-0.1-0.1
		c-0.2-0.1-0.4-0.3-0.6-0.4c-0.3-0.2-0.6-0.4-0.9-0.6l-0.1,0l-0.1,0c-0.2-0.1-0.4-0.3-0.6-0.4c-0.3-0.2-0.6-0.4-0.9-0.6
		c-0.2-0.2-0.5-0.3-0.7-0.5c-0.3-0.2-0.6-0.4-0.9-0.7c-0.2-0.2-0.5-0.3-0.7-0.5c-0.3-0.2-0.6-0.4-0.9-0.7c-0.2-0.2-0.5-0.4-0.7-0.5
		c-0.3-0.2-0.6-0.5-0.9-0.7c-0.2-0.2-0.5-0.4-0.7-0.5c-0.3-0.2-0.6-0.5-0.9-0.7c-0.2-0.2-0.5-0.4-0.7-0.6c-0.3-0.2-0.6-0.5-0.9-0.7
		c-0.2-0.2-0.4-0.4-0.6-0.5l0,0c-0.3-0.2-0.6-0.5-0.9-0.7c-0.2-0.2-0.4-0.4-0.7-0.6c-0.3-0.3-0.6-0.5-0.9-0.8
		c-0.2-0.2-0.4-0.3-0.5-0.5l0,0L79,248l0,0c-0.3-0.2-0.6-0.5-0.8-0.8c-0.2-0.2-0.3-0.3-0.5-0.5l-0.1-0.1l0,0
		c-0.3-0.2-0.5-0.5-0.8-0.7c-0.2-0.1-0.3-0.3-0.5-0.4l0,0l-0.2-0.2c-0.3-0.2-0.5-0.5-0.8-0.7c-0.1-0.1-0.3-0.3-0.4-0.4l0,0l-0.3-0.3
		l-0.1-0.1c-0.2-0.2-0.4-0.4-0.6-0.6c-0.1-0.1-0.2-0.3-0.4-0.4l0,0l-0.4-0.4l0,0c-0.2-0.2-0.4-0.4-0.6-0.6c-0.1-0.1-0.2-0.2-0.3-0.4
		l0,0l-0.4-0.4l0,0c-0.2-0.2-0.4-0.4-0.6-0.6c-0.1-0.1-0.2-0.2-0.3-0.3l0,0c0,0,0,0,0,0l-0.4-0.5l0-0.1c-0.2-0.2-0.4-0.4-0.6-0.6
		c-0.1-0.1-0.1-0.2-0.2-0.2l0,0l-0.2-0.3c0,0,0,0,0,0c-1-1.1-2-2.3-2.9-3.5c0,0,0,0,0,0l-0.2-0.3c0,0,0,0,0,0
		c-0.1-0.1-0.2-0.2-0.3-0.3c-0.1-0.2-0.3-0.4-0.4-0.6l0,0l-0.4-0.6c0,0,0,0,0,0c-0.1-0.1-0.2-0.3-0.4-0.5c-0.1-0.2-0.3-0.4-0.4-0.6
		l0,0l-0.4-0.5l0,0c-0.1-0.2-0.3-0.3-0.4-0.5c-0.1-0.2-0.3-0.4-0.4-0.6l0,0l-0.4-0.5l0-0.1c-0.1-0.2-0.3-0.3-0.4-0.5
		c0,0-0.1-0.1-0.1-0.1c12.4-2.5,25.8-4.6,40.1-6.1c2.5,13.2,5.7,25.3,9.5,36.1c1.6,4.3,3.2,8.4,5,12.2
		C116.4,271,116.2,270.9,116.1,270.8z"/>
</g>
</svg>
