<?xml version="1.0" encoding="utf-8"?>
<!-- Generator: Adobe Illustrator 21.0.2, SVG Export Plug-In . SVG Version: 6.00 Build 0)  -->
<svg version="1.1" id="Layer_1" xmlns="http://www.w3.org/2000/svg" xmlns:xlink="http://www.w3.org/1999/xlink" x="0px" y="0px"
	 viewBox="0 0 613 615" style="enable-background:new 0 0 613 615;" xml:space="preserve">
<style type="text/css">
	.st0{fill:#094569;}
</style>
<g>
	<path class="st0" d="M562.7,464.3l-99.4,99.4c-9.9,9.9-9.9,25.9,0,35.8v0c9.9,9.9,25.9,9.9,35.8,0l99.4-99.4
		c9.9-9.9,9.9-25.9,0-35.8h0C588.7,454.4,572.6,454.4,562.7,464.3z"/>
	<path class="st0" d="M535.1,391.6L390.6,536.1c-9.9,9.9-9.9,25.9,0,35.8l0,0c9.9,9.9,25.9,9.9,35.8,0l144.5-144.5
		c9.9-9.9,9.9-25.9,0-35.8l0,0C561.1,381.7,545,381.7,535.1,391.6z"/>
	<path class="st0" d="M507.5,318.9L317.9,508.5c-9.9,9.9-9.9,25.9,0,35.8v0c9.9,9.9,25.9,9.9,35.8,0l189.6-189.6
		c9.9-9.9,9.9-25.9,0-35.8l0,0C533.4,309,517.4,309,507.5,318.9z"/>
	<path class="st0" d="M148.7,14.4L148.7,14.4c-9.9-9.9-25.9-9.9-35.8,0l-99.4,99.4c-9.9,9.9-9.9,25.9,0,35.8h0
		c9.9,9.9,25.9,9.9,35.8,0l99.4-99.4C158.6,40.4,158.6,24.3,148.7,14.4z"/>
	<path class="st0" d="M221.4,42.1L221.4,42.1c-9.9-9.9-25.9-9.9-35.8,0L41.1,186.5c-9.9,9.9-9.9,25.9,0,35.8h0
		c9.9,9.9,25.9,9.9,35.8,0L221.4,77.9C231.3,68,231.3,51.9,221.4,42.1z"/>
	<path class="st0" d="M258.2,69.7L68.7,259.2c-9.9,9.9-9.9,25.9,0,35.8l0,0c9.9,9.9,25.9,9.9,35.8,0l189.6-189.6
		c9.9-9.9,9.9-25.9,0-35.8l0,0C284.2,59.8,268.1,59.8,258.2,69.7z"/>
	
		<rect x="280.7" y="173.5" transform="matrix(0.7071 -0.7071 0.7071 0.7071 -127.4564 306.2929)" class="st0" width="50.7" height="266.9"/>
	<path class="st0" d="M537.5,574.4l7.8,7.8c9.9,9.9,25.9,9.9,35.8,0l0,0c9.9-9.9,9.9-25.9,0-35.8l-7.8-7.8L537.5,574.4z"/>
	<path class="st0" d="M74.5,39.6l-7.8-7.8c-9.9-9.9-25.9-9.9-35.8,0l0,0c-9.9,9.9-9.9,25.9,0,35.8l7.8,7.8L74.5,39.6z"/>
</g>
</svg>
