<?xml version="1.0" encoding="utf-8"?>
<!-- Generator: Adobe Illustrator 21.0.2, SVG Export Plug-In . SVG Version: 6.00 Build 0)  -->
<svg version="1.1" id="Layer_1" xmlns="http://www.w3.org/2000/svg" xmlns:xlink="http://www.w3.org/1999/xlink" x="0px" y="0px"
	 viewBox="0 0 560 671" style="enable-background:new 0 0 560 671;" xml:space="preserve">
<style type="text/css">
	.st0{fill:#FFFFFF;}
</style>
<path class="st0" d="M456.6,101.7C394.2,39.4,311.4,5.1,223.2,5.1C142.6,5.1,66.5,33.8,6.4,86.3l28.4,28.4
	c52.5-45,118.6-69.6,188.5-69.6c77.5,0,150.3,30.2,205.1,84.9s84.9,127.6,84.9,205.1s-30.2,150.3-84.9,205.1s-127.6,84.9-205.1,84.9
	c-69.7,0-135.6-24.4-188-69.2L6.9,584.3c60,52.3,136,80.8,216.4,80.8c88.1,0,171-34.3,233.3-96.7s96.7-145.2,96.7-233.3
	S518.9,164.1,456.6,101.7z"/>
</svg>
