<?xml version="1.0" encoding="utf-8"?>
<!-- Generator: Adobe Illustrator 21.0.2, SVG Export Plug-In . SVG Version: 6.00 Build 0)  -->
<svg version="1.1" id="_x2014_ÎÓÈ_x5F_1" xmlns="http://www.w3.org/2000/svg" xmlns:xlink="http://www.w3.org/1999/xlink"
	 x="0px" y="0px" viewBox="0 0 1472.2 1452.8" style="enable-background:new 0 0 1472.2 1452.8;" xml:space="preserve">
<g>
	<path d="M1425.4,1285.3l-457-455.1c-17,25.2-36.5,48.9-58.2,70.9c-21.8,22-45.3,41.7-70.3,59l457,455.1c19,18.9,48.7,19.8,66.1,2.2
		l65.3-66C1445.7,1333.8,1444.5,1304.2,1425.4,1285.3z"/>
	<path d="M967.3,700.4c25.6-60.6,38.6-124.9,38.6-191.3c0-66.3-13-130.7-38.6-191.3c-24.7-58.5-60.2-111.1-105.3-156.2
		c-45.1-45.1-97.7-80.5-156.2-105.3c-60.6-25.6-124.9-38.6-191.3-38.6c-66.3,0-130.7,13-191.3,38.6
		c-58.5,24.7-111.1,60.2-156.2,105.3c-45.1,45.1-80.5,97.7-105.3,156.2c-25.6,60.6-38.6,124.9-38.6,191.3
		c0,66.3,13,130.7,38.6,191.3c24.8,58.5,60.2,111.1,105.3,156.2c45.1,45.1,97.7,80.5,156.2,105.3c60.6,25.6,124.9,38.6,191.3,38.6
		c66.3,0,130.7-13,191.3-38.6c58.5-24.7,111.1-60.2,156.2-105.3C907.2,811.5,942.6,758.9,967.3,700.4z M514.6,939
		c-237,0-429.8-192.8-429.8-429.8c0-237,192.8-429.8,429.8-429.8c237,0,429.8,192.8,429.8,429.8C944.4,746.2,751.6,939,514.6,939z"
		/>
</g>
</svg>
