<?xml version="1.0" encoding="utf-8"?>
<svg version="1.1" id="icon-search" xmlns="http://www.w3.org/2000/svg" xmlns:xlink="http://www.w3.org/1999/xlink"
	 x="0px" y="0px" viewBox="0 0 1480 1476" style="enable-background:new 0 0 1480 1476;" xml:space="preserve">
<style type="text/css">
	.st0{fill:#fff    ;}
</style>   
<g>
	<g class="st0">
		<path d="M1444.1,1308L987,852.9c-17,25.2-36.5,48.9-58.2,70.9c-21.8,22-45.3,41.7-70.3,59l457,455.1c19,18.9,48.7,19.8,66.1,2.2
			l65.3-66C1464.4,1356.4,1463.1,1326.8,1444.1,1308z"/>
	</g>
	<g class="st0">
		<path d="M986,723.1c25.6-60.6,38.6-124.9,38.6-191.3c0-66.3-13-130.7-38.6-191.3c-24.7-58.5-60.2-111.1-105.3-156.2
			c-45.1-45.1-97.7-80.5-156.2-105.3C664,53.5,599.6,40.5,533.3,40.5c-66.3,0-130.7,13-191.3,38.6
			c-58.5,24.7-111.1,60.2-156.2,105.3c-45.1,45.1-80.5,97.7-105.3,156.2c-25.6,60.6-38.6,124.9-38.6,191.3
			c0,66.3,13,130.7,38.6,191.3c24.8,58.5,60.2,111.1,105.3,156.2c45.1,45.1,97.7,80.5,156.2,105.3c60.6,25.6,124.9,38.6,191.3,38.6
			c66.3,0,130.7-13,191.3-38.6c58.5-24.7,111.1-60.2,156.2-105.3C925.8,834.2,961.3,781.6,986,723.1z M533.3,961.7
			c-237,0-429.8-192.8-429.8-429.8c0-237,192.8-429.8,429.8-429.8c237,0,429.8,192.8,429.8,429.8
			C963.1,768.8,770.3,961.7,533.3,961.7z"/>
		<path d="M533.3,1043.2c-69,0-136-13.5-199.1-40.2c-60.9-25.8-115.6-62.6-162.5-109.6c-46.9-46.9-83.8-101.6-109.6-162.5
			c-26.7-63.1-40.2-130-40.2-199.1c0-69,13.5-136,40.2-199.1c25.8-60.9,62.6-115.6,109.6-162.5S273.3,86.4,334.2,60.7
			c63.1-26.7,130-40.2,199.1-40.2s136,13.5,199.1,40.2c60.9,25.8,115.6,62.6,162.5,109.6c46.9,46.9,83.8,101.6,109.6,162.5
			c26.7,63.1,40.2,130,40.2,199.1c0,69-13.5,136-40.2,199.1l-18.4-7.8l18.4,7.8c-25.8,60.9-62.6,115.6-109.6,162.5
			c-46.9,46.9-101.6,83.8-162.5,109.6C669.3,1029.7,602.3,1043.2,533.3,1043.2z M533.3,60.5c-63.6,0-125.4,12.5-183.5,37
			c-56.1,23.7-106.5,57.7-149.8,101c-43.3,43.3-77.3,93.7-101,149.8c-24.6,58.1-37,119.8-37,183.5c0,63.6,12.5,125.4,37,183.5
			c23.7,56.1,57.7,106.5,101,149.8c43.3,43.3,93.7,77.3,149.8,101c58.1,24.6,119.9,37,183.5,37c63.6,0,125.4-12.5,183.5-37
			c56.1-23.7,106.5-57.7,149.8-101c43.3-43.3,77.3-93.7,101-149.8c24.6-58.1,37-119.8,37-183.5c0-63.6-12.5-125.4-37-183.5
			c-23.7-56.1-57.7-106.5-101-149.8c-43.3-43.3-93.7-77.3-149.8-101C658.6,72.9,596.9,60.5,533.3,60.5z M533.3,981.7
			c-248,0-449.8-201.8-449.8-449.8C83.5,283.8,285.2,82,533.3,82s449.8,201.8,449.8,449.8C983.1,779.9,781.3,981.7,533.3,981.7z
			 M533.3,122c-226,0-409.8,183.8-409.8,409.8c0,226,183.8,409.8,409.8,409.8c226,0,409.8-183.8,409.8-409.8
			C943.1,305.8,759.3,122,533.3,122z"/>
	</g>
</g>
</svg>
