<?xml version="1.0" encoding="utf-8"?>
<!-- Generator: Adobe Illustrator 21.0.2, SVG Export Plug-In . SVG Version: 6.00 Build 0)  -->
<svg version="1.1" id="Layer_1" xmlns="http://www.w3.org/2000/svg" xmlns:xlink="http://www.w3.org/1999/xlink" x="0px" y="0px"
	 viewBox="0 0 284 387" style="enable-background:new 0 0 284 387;" xml:space="preserve">
<style type="text/css">
	.st0{fill:#FFFFFF;}
</style>
<g>
	<path class="st0" d="M142.5,7C74.4,7,19,62.4,19,130.5c0,27.4,17.5,72.1,53.5,136.7c25.5,45.7,63.4,113.1,69.9,113.1
		s44.5-67.5,69.9-113.1c36-64.5,53.5-109.2,53.5-136.7C265.9,62.4,210.5,7,142.5,7L142.5,7z M142.5,193.6c-35.3,0-64-28.7-64-64
		c0-35.3,28.7-64,64-64c35.3,0,64,28.7,64,64C206.5,165,177.8,193.6,142.5,193.6L142.5,193.6z M142.5,193.6"/>
</g>
</svg>
