<?xml version="1.0" encoding="utf-8"?>
<!-- Generator: Adobe Illustrator 21.0.2, SVG Export Plug-In . SVG Version: 6.00 Build 0)  -->
<svg version="1.1" id="Layer_1" xmlns="http://www.w3.org/2000/svg" xmlns:xlink="http://www.w3.org/1999/xlink" x="0px" y="0px"
	 viewBox="0 0 760 671" style="enable-background:new 0 0 760 671;" xml:space="preserve">
<style type="text/css">
	.st0{fill:#0606EF;}
</style>
<g>
	<polygon class="st0" points="248.9,434.6 302.6,488.3 455.8,335 302.6,181.8 248.9,235.4 310.6,297.1 0.7,297.1 0.7,372.9 
		310.6,372.9 	"/>
</g>
<path d="M656.6,101.7C594.2,39.4,511.4,5.1,423.2,5.1c-80.6,0-156.7,28.7-216.8,81.2l28.4,28.4c52.5-45,118.6-69.6,188.5-69.6
	c77.5,0,150.3,30.2,205.1,84.9s84.9,127.6,84.9,205.1c0,77.5-30.2,150.3-84.9,205.1s-127.6,84.9-205.1,84.9
	c-69.7,0-135.6-24.4-188-69.2l-28.4,28.4c60,52.3,136,80.8,216.4,80.8c88.1,0,171-34.3,233.3-96.7s96.7-145.2,96.7-233.3
	S718.9,164.1,656.6,101.7z"/>
</svg>
