<?xml version="1.0" encoding="utf-8"?>
<!-- Generator: Adobe Illustrator 21.0.2, SVG Export Plug-In . SVG Version: 6.00 Build 0)  -->
<svg version="1.1" id="Layer_1" xmlns="http://www.w3.org/2000/svg" xmlns:xlink="http://www.w3.org/1999/xlink" x="0px" y="0px"
	 viewBox="0 0 460 317" style="enable-background:new 0 0 460 317;" xml:space="preserve">
<style type="text/css">
	.st0{fill:#FFFFFF;}
</style>
<g>
	<polygon class="st0" points="248.9,257.6 302.6,311.3 455.8,158 302.6,4.8 248.9,58.4 310.6,120.1 0.7,120.1 0.7,195.9 
		310.6,195.9 	"/>
</g>
<path d="M656.6-75.3c-62.4-62.3-145.2-96.6-233.4-96.6c-80.6,0-156.7,28.7-216.8,81.2l28.4,28.4c52.5-45,118.6-69.6,188.5-69.6
	c77.5,0,150.3,30.2,205.1,84.9s84.9,127.6,84.9,205.1s-30.2,150.3-84.9,205.1s-127.6,84.9-205.1,84.9c-69.7,0-135.6-24.4-188-69.2
	l-28.4,28.4c60,52.3,136,80.8,216.4,80.8c88.1,0,171-34.3,233.3-96.7s96.7-145.2,96.7-233.3S718.9-12.9,656.6-75.3z"/>
</svg>
