<?xml version="1.0" encoding="utf-8"?>
<!-- Generator: Adobe Illustrator 21.0.2, SVG Export Plug-In . SVG Version: 6.00 Build 0)  -->
<svg version="1.1" id="_x2014_ÎÓÈ_x5F_1" xmlns="http://www.w3.org/2000/svg" xmlns:xlink="http://www.w3.org/1999/xlink"
	 x="0px" y="0px" viewBox="0 0 110 292" style="enable-background:new 0 0 110 292;" xml:space="preserve">
<style type="text/css">
	.st0{fill:#094569;}
</style>
<g>
	<g>
		<path class="st0" d="M99.9,268.2c-6.8-1.7-11.6-3.7-14.4-5.9c-2.5-2-4.2-4.8-5.2-8.8c-1.1-4.5-1.6-12.9-1.6-24.9V70H61.5L7.1,72.1
			v18.6l3.3,0.6c6.1,1.1,10.8,2.4,14,3.9c2.7,1.3,4.7,3.2,6,5.8c1.5,2.9,2.3,6.9,2.6,11.9c0.3,5.6,0.4,13,0.4,22.1v94.3
			c0,9.8-0.4,17-1.3,21.5c-1,5.2-2.3,7.8-3.2,9c-1.3,1.8-2.9,3.2-4.7,4.2c-1.5,0.8-4.6,2.2-11.3,4.2l-2.8,0.9v17.5h92.7V269
			L99.9,268.2z"/>
		<path class="st0" d="M50.8,65C66.9,65,80,51.9,80,35.8C80,19.8,66.9,6.7,50.8,6.7c-16.1,0-29.2,13.1-29.2,29.2
			C21.6,51.9,34.7,65,50.8,65z"/>
	</g>
</g>
</svg>
