<?xml version="1.0" encoding="utf-8"?>
<!-- Generator: Adobe Illustrator 21.0.2, SVG Export Plug-In . SVG Version: 6.00 Build 0)  -->
<svg version="1.1" id="Isolation_Mode" xmlns="http://www.w3.org/2000/svg" xmlns:xlink="http://www.w3.org/1999/xlink" x="0px"
	 y="0px" viewBox="0 0 30.7 22.5" style="enable-background:new 0 0 30.7 22.5;" xml:space="preserve">
<style type="text/css">
	.st0{fill:#84B7D8;}
</style>
<g>
	<g>
		<path class="st0" d="M10.4,10.5c2.9-3,3-5.8,3-5.8l-2.3-2.4c-2.4-2.5-6.4-2.5-8.8,0c-2.4,2.5-2.5,6.6-0.1,8.9
			C3.6,12.4,7.2,13.8,10.4,10.5"/>
		<path class="st0" d="M28.5,2.3c-2.4-2.5-6.4-2.5-8.8,0c-2.4,2.5-5.7,6.4-7.3,8.2c-1.6,1.7-4.7,4-8.4,2.6c0,0,6.9,7.1,6.9,7.1
			c2.4,2.5,6.4,2.5,8.8,0l8.8-8.9C30.9,8.7,30.9,4.7,28.5,2.3"/>
	</g>
</g>
</svg>
