<?xml version="1.0" encoding="utf-8"?>
<!-- Generator: Adobe Illustrator 21.0.2, SVG Export Plug-In . SVG Version: 6.00 Build 0)  -->
<svg version="1.1" id="Layer_1" xmlns="http://www.w3.org/2000/svg" xmlns:xlink="http://www.w3.org/1999/xlink" x="0px" y="0px"
	 viewBox="0 0 246.9 373.3" style="enable-background:new 0 0 246.9 373.3;" xml:space="preserve">
<style type="text/css">
	.st0{ fill: #0d78bc}
</style>
<g>
	<path class="st0" d="M123.5,0C55.4,0,0,55.4,0,123.5c0,27.4,17.5,72.1,53.5,136.7c25.5,45.7,63.4,113.1,69.9,113.1
		s44.5-67.5,69.9-113.1c36-64.5,53.5-109.2,53.5-136.7C246.9,55.4,191.5,0,123.5,0L123.5,0z M123.5,186.6c-35.3,0-64-28.7-64-64
		c0-35.3,28.7-64,64-64c35.3,0,64,28.7,64,64C187.5,158,158.8,186.6,123.5,186.6L123.5,186.6z M123.5,186.6"/>
</g>
</svg>
