<?xml version="1.0" encoding="utf-8"?>
<!-- Generator: Adobe Illustrator 21.0.2, SVG Export Plug-In . SVG Version: 6.00 Build 0)  -->
<svg version="1.1" id="Layer_1" xmlns="http://www.w3.org/2000/svg" xmlns:xlink="http://www.w3.org/1999/xlink" x="0px" y="0px"
	 viewBox="0 0 425.2 425.2" style="enable-background:new 0 0 425.2 425.2;" xml:space="preserve">
<style type="text/css">
	.st0{clip-path:url(#SVGID_2_);fill:#FFFFFF;}
	.st1{fill:#FFFFFF;}
</style>
<g>
	<g>
		<defs>
			<rect id="SVGID_1_" x="20" y="20.2" width="385" height="385.9"/>
		</defs>
		<clipPath id="SVGID_2_">
			<use xlink:href="#SVGID_1_"  style="overflow:visible;"/>
		</clipPath>
		<path class="st0" d="M312.3,275c-12.6-12.4-28.2-12.4-40.7,0c-9.5,9.4-19,18.9-28.4,28.5c-2.6,2.6-4.7,3.2-7.8,1.4
			c-6.2-3.4-12.7-6.1-18.6-9.8c-27.6-17.4-50.7-39.7-71.2-64.8c-10.2-12.5-19.2-25.8-25.5-40.9c-1.3-3-1-5,1.4-7.5
			c9.5-9.2,18.8-18.6,28.2-28.1c13-13.1,13-28.5-0.1-41.7c-7.4-7.5-14.9-14.9-22.3-22.4c-7.7-7.7-15.3-15.4-23-23
			c-12.6-12.2-28.2-12.2-40.7,0.1C53.8,76.3,44.6,86,34.8,95.3c-9,8.6-13.6,19-14.6,31.3c-1.5,19.9,3.4,38.7,10.2,57
			C44.6,221.5,66,255.2,92,286.1c35.1,41.8,77,74.8,126.1,98.6c22.1,10.7,45,19,69.8,20.3c17.1,1,32-3.4,43.9-16.7
			c8.2-9.1,17.4-17.4,26-26.2c12.8-13,12.9-28.6,0.2-41.4C342.8,305.4,327.6,290.2,312.3,275L312.3,275z M312.3,275"/>
	</g>
	<path class="st1" d="M297,211.3l29.5-5c-4.6-27.1-17.4-51.7-36.9-71.2c-20.6-20.6-46.6-33.5-75.2-37.5l-4.2,29.7
		c22.2,3.1,42.3,13.1,58.2,29C283.6,171.3,293.4,190.3,297,211.3L297,211.3z M297,211.3"/>
	<path class="st1" d="M343.2,82.9C309.1,48.9,266,27.4,218.4,20.7l-4.2,29.7c41.1,5.8,78.4,24.4,107.8,53.8
		c27.9,27.9,46.2,63.2,52.9,102l29.5-5C396.7,156.2,375.5,115.4,343.2,82.9L343.2,82.9z M343.2,82.9"/>
</g>
</svg>
