<?xml version="1.0" encoding="utf-8"?>
<!-- Generator: Adobe Illustrator 21.0.2, SVG Export Plug-In . SVG Version: 6.00 Build 0)  -->
<svg version="1.1" id="Слой_1" xmlns="http://www.w3.org/2000/svg" xmlns:xlink="http://www.w3.org/1999/xlink" x="0px" y="0px"
	 viewBox="0 0 389 378" style="enable-background:new 0 0 389 378;" xml:space="preserve">
<style type="text/css">
	.st0{fill:#084569;stroke:#000000;stroke-miterlimit:10;}
	.st1{clip-path:url(#SVGID_2_);fill:#084569;stroke:#000000;stroke-miterlimit:10;}
</style>
<g>
	<path class="st0" d="M242.3,105.7v1.4c0,14.2-10.1,26-23.5,28.8c1.3,7.5,5.4,14.2,12,18.4c7.9,5.1,17.7,5.9,26.2,2.1l21.2-9.4
		l-23.7-35C251.6,107.8,247,105.8,242.3,105.7L242.3,105.7z M242.3,105.7"/>
	<path class="st0" d="M165.5,180.9l-9.2,43.4l37.5,21l69.7-18.6c1.5-0.4,2.9-0.6,4.4-0.8l-7.9-37l-4.5-21.1
		c-3.2,0.9-6.5,1.5-9.8,1.5c-7.2,0-14.4-2.1-20.7-6.2c-9.5-6.2-15.3-16.1-16.7-27.1c-14-2.3-24.7-14.3-24.7-28.9v-1.4h-2.1
		c-5.1,0.1-10.1,2.7-12.8,7.5L119,203.5l26,14.6L165.5,180.9z M165.5,180.9"/>
	<g>
		<defs>
			<rect id="SVGID_1_" y="8" width="384" height="362"/>
		</defs>
		<clipPath id="SVGID_2_">
			<use xlink:href="#SVGID_1_"  style="overflow:visible;"/>
		</clipPath>
		<path class="st1" d="M231.7,105.7l-8.4,0l-29.3,0v1.4c0,10.4,8.4,18.8,18.8,18.8c10.4,0,18.8-8.4,18.8-18.8V105.7z M231.7,105.7"
			/>
		<path class="st1" d="M363.6,268.4l-79.3-26.9c-5.5-1.9-11.4-2.1-17-0.6l-75.5,20.2L100.7,210c-14.1-7.9-32-2.9-39.9,11.2
			c-7.9,14.1-2.9,32,11.2,39.9l101.5,56.9c6.7,3.7,14.5,4.7,21.9,2.8l78.4-21l70.9,24.1c3.1,1.1,6.3,1.6,9.4,1.6
			c12.2,0,23.6-7.7,27.8-19.9C387.1,290.2,378.9,273.6,363.6,268.4L363.6,268.4z M363.6,268.4"/>
		<path class="st1" d="M45.1,208.8c2.5,0,4.9-0.3,7.2-0.8c8.6-1.9,15.9-7,20.6-14.1c3.5-5.3,5.6-11.7,5.6-18.5
			c0-18.5-15-33.5-33.5-33.5c-18.5,0-33.5,15-33.5,33.5C11.6,193.8,26.6,208.8,45.1,208.8L45.1,208.8z M45.1,208.8"/>
		<path class="st1" d="M357.8,332.7H171.2L54.3,265.4L27.5,250c-8.8-5.1-20-2-25,6.8c-5,8.8-2,20,6.7,25l148,85.1
			c2.8,1.6,5.9,2.4,9.1,2.4h191.5c10.1,0,18.3-8.2,18.3-18.3c0-5.6-2.5-10.5-6.4-13.8C366.5,334.4,362.4,332.7,357.8,332.7
			L357.8,332.7z M357.8,332.7"/>
	</g>
	<path class="st0" d="M290.4,141.5c0.7-5.1,4.8-9,10.1-9c5.7,0,10.3,4.6,10.3,10.3c0,5.7-4.6,10.3-10.3,10.3c-2.2,0-4.1-0.8-5.8-2
		l-10.4,4.6L261.2,166c-1.7,0.7-3.4,1.2-5.1,1.7l9.6,14.2c2.9,4.2,7.6,6.6,12.4,6.6c2.5,0,5-0.6,7.3-1.9l39.4-22
		c7.2-4,9.8-13.1,5.7-20.3c-2.2-3.9-5.9-6.3-9.9-7.1c-1-3.6-2.9-6.8-5.5-9.3c-3.8-3.6-8.8-5.9-14.4-5.9c-8.9,0-16.5,5.6-19.5,13.5
		c-0.9,2.3-1.4,4.8-1.4,7.4c0,1.1,0.2,2.3,0.3,3.4L290.4,141.5z M290.4,141.5"/>
	<path class="st0" d="M194.1,93.5c5.2,3.1,11.3,5,17.8,5c7.4,0,14.2-2.3,19.8-6.2c4.4-3,7.9-7.1,10.5-11.8c2.8-5,4.5-10.7,4.5-16.8
		c0-4.3-0.9-8.5-2.4-12.3c-10.6,2.7-21.5,4.2-32.5,4.2c-11,0-21.9-1.5-32.5-4.2c-1.5,3.8-2.3,7.9-2.3,12.3c0,7.6,2.5,14.5,6.5,20.2
		C186.4,87.8,190,91,194.1,93.5L194.1,93.5z M194.1,93.5"/>
	<path class="st0" d="M179.9,41.9c10.5,2.8,21.3,4.2,32,4.2c10.8,0,21.6-1.4,32.1-4.2c1.3-0.4,2.1-1.7,1.8-3
		c-1.9-7.8-3.7-21-5.6-28.9c-0.2-0.7-0.6-1.2-1.2-1.6c-0.4-0.2-0.8-0.4-1.3-0.4c-0.2,0-0.4,0-0.6,0.1c-8.2,2.2-16.7,3.2-25.1,3.2
		c-8.4,0-16.9-1.1-25.1-3.2C186.6,8,186.4,8,186.1,8c-0.5,0-0.9,0.1-1.3,0.4c-0.6,0.4-1,0.9-1.2,1.6c-1.9,7.9-3.8,21.1-5.6,28.9
		C177.7,40.1,178.5,41.5,179.9,41.9L179.9,41.9z M203.1,23.2h4.1v-4.1h9.4v4.1h4.1v9.4h-4.1v4.1h-9.4v-4.1h-4.1V23.2z M203.1,23.2"
		/>
</g>
</svg>
