<?xml version="1.0" encoding="utf-8"?>
<!-- Generator: Adobe Illustrator 21.0.2, SVG Export Plug-In . SVG Version: 6.00 Build 0)  -->
<svg version="1.1" id="Layer_1" xmlns="http://www.w3.org/2000/svg" xmlns:xlink="http://www.w3.org/1999/xlink" x="0px" y="0px"
	 viewBox="0 0 258 254" style="enable-background:new 0 0 258 254;" xml:space="preserve">
<style type="text/css">
	.st1{fill:#007bc4;}
</style>
<path class="st1" d="M216.4,40.5C169-6.8,92.3-6.8,45,40.5c-45.6,45.6-47.3,118.4-5.1,166l1.2,1c-4.6,9.9-12.5,22.1-25,28.2
	c-4.2,2-3.2,8.2,1.4,8.9c13.7,2.2,33.3-0.2,51.5-14.1l0.2,0.2c46.5,27.4,107.2,21,147.1-18.9C263.8,164.6,263.8,87.9,216.4,40.5
	L216.4,40.5z M135.8,51.4c10.9,0.1,19.6,9,19.5,20c-0.1,11-9,19.8-19.6,19.8c-11-0.1-19.9-9.1-19.8-20.1
	C116,60.1,124.9,51.3,135.8,51.4L135.8,51.4z M163.9,184.6c-0.4,1.7-1.5,3.4-2.7,4.7c-7.2,7.3-15.8,11.6-26.1,11.8
	c-4.8,0.1-9.7-0.1-14.4-0.8c-7.9-1.1-17.9-10.9-16.5-21.4c1-7.1,2.1-14.2,3.3-21.4c2.1-12.3,4.3-24.7,6.5-37
	c0.2-0.8,0.2-1.6,0.2-2.4c0-5.2-1.6-7-6.7-7.7c-2.2-0.3-4.5-0.5-6.5-1.2c-2.6-0.9-3.7-2.9-3.4-5c0.2-2.2,1.6-3.5,4.4-4.1
	c1.4-0.3,3-0.3,4.5-0.3h37.4c4.6,0,7.4,2.2,7.5,6.8c0.1,3.8-0.6,7.7-1.3,11.5c-2.5,14.1-5.1,28.2-7.7,42.3c-0.9,4.6-1.8,9.4-2.3,14
	c-0.2,2.2,0.1,4.6,0.6,6.8c0.7,3,3,4.6,5.9,4.2c2.5-0.3,5-1.2,7.4-2.1c1.9-0.7,3.6-2.1,5.6-2.8C162.2,179.6,164.6,181.6,163.9,184.6
	L163.9,184.6z M163.9,184.6"/>
</svg>
