<?xml version="1.0" encoding="utf-8"?>
<!-- Generator: Adobe Illustrator 21.0.2, SVG Export Plug-In . SVG Version: 6.00 Build 0)  -->
<svg version="1.1" id="ëÎÓÈ_1" xmlns="http://www.w3.org/2000/svg" xmlns:xlink="http://www.w3.org/1999/xlink" x="0px" y="0px"
	 viewBox="0 0 382 378" style="enable-background:new 0 0 382 378;" xml:space="preserve">
<style type="text/css">
	.st0{fill:none;stroke:#007bc4;stroke-width:10;stroke-miterlimit:10;}
  .st1{fill:#007bc4;}
</style>
<circle class="st0" cx="191.7" cy="189" r="180"/>
<rect class="st1" x="172.2" y="113.1" width="127.3" height="12.9"/>
<rect class="st1" x="172.2" y="181" width="127.3" height="12.9"/>
<rect class="st1" x="172.2" y="254.7" width="127.4" height="12.9"/>
<g class="st1">
	<path d="M154,101.5l-9.3-9.3L114,122.9L102.6,112l-9.3,9.3l20.7,20.2L154,101.5z M154,101.5"/>
</g>
<g class="st1">
	<path d="M154,168.8l-9.3-9.3L114,190.1l-11.4-10.8l-9.3,9.3l20.7,20.2L154,168.8z M154,168.8"/>
</g>
<g class="st1">
	<path d="M154,239.8l-9.3-9.3L114,261.1l-11.4-10.8l-9.3,9.3l20.7,20.2L154,239.8z M154,239.8"/>
</g>
</svg>
