<?xml version="1.0" encoding="utf-8"?>
<!-- Generator: Adobe Illustrator 21.0.2, SVG Export Plug-In . SVG Version: 6.00 Build 0)  -->
<svg version="1.1" id="_x2014_ÎÓÈ_x5F_1" xmlns="http://www.w3.org/2000/svg" xmlns:xlink="http://www.w3.org/1999/xlink"
	 x="0px" y="0px" viewBox="0 0 132.4 173.8" style="enable-background:new 0 0 132.4 173.8;" xml:space="preserve">
<style type="text/css">
	.st1{fill:#ebebeb;}
</style>
<path class="st1" d="M8.9,114.2l-6.1,0.2l11.3-21.7C5.6,91.5,0,89.9,0,88.3c0-1.6,5.1-3.2,13-4.7L1.6,63.9l6.1,0L22.9,82
	c12.5-1.8,28.5-3.3,43.1-4.2L38.9,1.6l12.5,0.1l38.1,74.8c1.6,0,3.1-0.1,4.5-0.1c28.7-0.4,35.6,4.2,35.7,10
	c0.1,5.8-6.7,10.6-35.4,11c-1.5,0-3.1,0-4.8,0l-34.8,75.7l-12.5,0.6L66.2,97c-14.1-0.6-29.5-1.6-41.8-2.9L8.9,114.2z"/>
</svg>
