<?xml version="1.0" encoding="utf-8"?>
<!-- Generator: Adobe Illustrator 21.0.2, SVG Export Plug-In . SVG Version: 6.00 Build 0)  -->
<svg version="1.1" id="_x2014_ÎÓÈ_x5F_1" xmlns="http://www.w3.org/2000/svg" xmlns:xlink="http://www.w3.org/1999/xlink"
	 x="0px" y="0px" viewBox="0 0 1468 1468" style="enable-background:new 0 0 1468 1468;" xml:space="preserve">
<style type="text/css">
	.st0{fill:#FFFFFF;}
</style>
<g>
	<path class="st0" d="M1432.1,1300L975,844.9c-17,25.2-36.5,48.9-58.2,70.9c-21.8,22-45.3,41.7-70.3,59l457,455.1
		c19,18.9,48.7,19.8,66.1,2.2l65.3-66C1452.4,1348.4,1451.1,1318.8,1432.1,1300z"/>
	<path class="st0" d="M974,715.1c25.6-60.6,38.6-124.9,38.6-191.3c0-66.3-13-130.7-38.6-191.3c-24.7-58.5-60.2-111.1-105.3-156.2
		c-45.1-45.1-97.7-80.5-156.2-105.3C652,45.5,587.6,32.5,521.3,32.5c-66.3,0-130.7,13-191.3,38.6C271.5,95.8,219,131.3,173.8,176.4
		C128.7,221.5,93.3,274,68.6,332.6c-25.6,60.6-38.6,124.9-38.6,191.3c0,66.3,13,130.7,38.6,191.3c24.8,58.5,60.2,111.1,105.3,156.2
		c45.1,45.1,97.7,80.5,156.2,105.3c60.6,25.6,124.9,38.6,191.3,38.6c66.3,0,130.7-13,191.3-38.6c58.5-24.7,111.1-60.2,156.2-105.3
		C913.8,826.2,949.3,773.6,974,715.1z M521.3,953.7c-237,0-429.8-192.8-429.8-429.8C91.5,286.8,284.3,94,521.3,94
		c237,0,429.8,192.8,429.8,429.8C951.1,760.8,758.3,953.7,521.3,953.7z"/>
</g>
<rect x="492" y="204" class="st0" width="64" height="653"/>
<rect x="200" y="492" class="st0" width="662" height="68"/>
</svg>
